<?xml version="1.0" encoding="UTF-8"?>
<svg id="Layer_1" data-name="Layer 1" xmlns="http://www.w3.org/2000/svg" version="1.1" xmlns:xlink="http://www.w3.org/1999/xlink" viewBox="0 0 1920 1080">
  <defs>
    <style>
      .cls-1 {
        fill: url(#linear-gradient);
      }

      .cls-1, .cls-2, .cls-3, .cls-4, .cls-5, .cls-6, .cls-7, .cls-8, .cls-9, .cls-10, .cls-11, .cls-12, .cls-13, .cls-14, .cls-15, .cls-16, .cls-17, .cls-18, .cls-19, .cls-20, .cls-21, .cls-22 {
        stroke-width: 0px;
      }

      .cls-2 {
        fill: #909091;
      }

      .cls-3 {
        fill: #79797a;
      }

      .cls-23 {
        opacity: .9;
      }

      .cls-4 {
        fill: #aaaaab;
      }

      .cls-5 {
        fill: #010102;
      }

      .cls-6 {
        fill: #989898;
      }

      .cls-7 {
        fill: #b9b8b8;
      }

      .cls-8 {
        fill: none;
      }

      .cls-9 {
        fill: #d2d1d1;
      }

      .cls-10 {
        fill: #e7e6e7;
      }

      .cls-11 {
        fill: #e0dfe0;
      }

      .cls-12 {
        fill: #7b7a7a;
      }

      .cls-13 {
        fill: #c3c2c2;
      }

      .cls-14 {
        fill: #cac8c9;
      }

      .cls-15 {
        fill: #626262;
      }

      .cls-16 {
        fill: #faf9f9;
      }

      .cls-17 {
        fill: #e6e5e5;
      }

      .cls-18 {
        fill: #b3b2b3;
      }

      .cls-19 {
        fill: #a2a2a2;
      }

      .cls-20 {
        fill: #727273;
      }

      .cls-21 {
        fill: #f3f2f3;
      }

      .cls-22 {
        fill: #cfcecf;
      }
    </style>
    <linearGradient id="linear-gradient" x1="210.2" y1="-302.1" x2="160.9" y2="-378.4" gradientTransform="translate(100.6 188.8) rotate(49.6) scale(.9 -.9)" gradientUnits="userSpaceOnUse">
      <stop offset="0" stop-color="#9f9797"/>
      <stop offset="1" stop-color="#adb3b4"/>
    </linearGradient>
  </defs>
  <g class="cls-23">
    <path class="cls-18" d="M1580.7,937.7c-1.4-3.2-3-7.9-1.6-11.3.8-1.9,2.4-3.1,4.3-3.8,2.8-1,5.9-.4,8.8,0-3.7,5.1-8.2,9.7-11.5,15.1Z"/>
    <path class="cls-19" d="M1520.5,1057.6c-2.8-2.1-4.4-3.8-5.2-7.3,1.2-2.7,2.9-4.4,5-6.4,2.2-1.6,4.9-2.5,7.4-3.6,1.3-4.6,3.7-9.6,3.8-14.3-2.5-3.5-6.3-5.5-5.4-10.4.2-.9.4-1.3,1-2,.9-.9,2.5-2.9,3.7-3.1,2.7-2.2,5.9-2.4,9.3-2.6,1.9-3.6,5.8-9.3,6.1-13.3-1.8-3.1-4.1-4.8-4.9-8.5.4-2.5,1-4.1,3.2-5.6,3.1-2.2,7-2.6,10.7-2.7,2.4-3.7,4.3-8,6.6-11.9l-2.8-8.9c.3-2.8.4-4.5,2.8-6.4,1-.8,2-1.6,3.3-1.7,3.8-.5,7.8.3,10.4-3.1,1.9-2.5,3.2-5.5,5.2-8,3.3-5.4,7.8-9.9,11.5-15.1l11.6-12.5c-.5-3-1.8-7.8-.2-10.5.9-1.4,3-2.6,4.6-2.8,7.1-1.2,9.1,3.6,15.4-4.8,4-5.3,2.1-17.5,9.4-19.2,5.8-1.3,10.8,3.6,15.9-2.4,4.6-5.6,1-13.7,9.9-16.8,4.7,1.1,2.5,6.8,9.5,2.5,4.9-3,8.2-5.3,9.5-11.1.4-1.7.2-2.9,1.6-4h.3c1-1.3,1.8-2.5,3.2-3.4l3.7.2c1.9,1.1,3.6,2.1,5.3,3.6,5.2-2.9,12.1-5.8,14.1-12,.4-1.2.6-2.5.8-3.7,1.2-1.3,2.4-2.3,4.3-2.5,2.3-.1,4.3,1.2,5.8,2.7.7.7,1.3,1.4,1.9,2.1,4.7-2.1,9.6-5.4,14.7-6.1l.7-.7c-.3-3-1.1-7.1.6-9.7,1.3-1.2,3-1.8,4.9-1.6,3.7.3,6.3,5.1,8.3,7.8,0-1.5,0-2.3.7-3.6,3.6-2.8,7.9-3.2,11.6-5.5,2.8-1.7,3.4-5.8,6-7.4,3.6-2.3,12.1-.3,16.4-.6,3.2-.2,6.7-1.4,9.8-2.1,1.6-2.7,3.5-5.8,6.9-6.7,1.3-.3,2.3,0,3.5.3l.8.8c3.2,2,5.2,2.5,8.9,1.6,1.6-.4,3.2-.6,4.3-1.9h.5c.3,0,.5,0,.8,0,5.4-1,7.7-6,12.4-7.2,2.1-.5,4.7,2.2,6.6,2.8,2.1.7,11.5-.9,14-1.4,4.4-.9,7.5-8.7,12.7-5.3,1.6,1.1,2.9,2.2,4.3,3.6,4.2.8,15.5.8,19.2-1.5,2.2-1.4,2.6-4,5.8-3.3,2.8.6,5.1,3.5,7.5,4,5.5,1.3,13.5.2,19.3.4v40.4c-.5-.1-1-.2-1.5-.3-.2,0-.5-.1-.7-.2-8.2-1.8-25.8.4-34.9.9-30.4,1.7-62.1,5.6-91.4,14.3-14.9,4.4-29.5,10.5-43.8,16.5-21.6,9.1-41.8,19.4-61.4,32.2-71.8,46.7-115.9,107.3-133.7,191.6h-34.8c1.1-6.7,4.3-14.8,4.3-21.4l-1.4-.9ZM1538.9,1080h13.5c17.8-84.3,61.9-144.9,133.7-191.6,19.7-12.8,39.9-23.1,61.4-32.2,14.3-6.1,28.9-12.1,43.8-16.5,29.3-8.7,61-12.5,91.4-14.3,9.2-.5,26.7-2.7,34.9-.9.2,0,.5.1.7.2.5.1,1,.2,1.5.3v-12.6l-4.7-.2c-12,.4-23.9.8-35.9.4-13.5,1.1-26.8,1.6-40.2,3.6-4.3.9-8.6,1.4-13,2l-.9.3c-8,2.9-20,3.8-29,6.2-11.8,3.2-23.4,6.9-34.8,11-11.5,4.1-22.8,8.7-33.9,13.6-4.5,3.1-10.4,5.1-15.3,7.8l-15.6,8.1c-11.7,6.6-23.6,14.2-34.2,22.5-7.4,3.6-19.2,14.7-25.3,20.4-37.3,34.8-65.4,74.6-84.2,122.1-.7,4.1-2.9,8.7-4.3,12.7-4.9,11.6-7.8,24.8-9.8,37.2Z"/>
    <path class="cls-4" d="M1540.2,1053.2c-.6,1.5-.7,1.8-2,2.9l-.9-.5c-.2-1.3-.6-2.7,0-3.9l2.9,1.6Z"/>
    <path class="cls-18" d="M1537.3,1051.6c.9-1.7,1.4-3.6,3.1-4.6.6,2.2.2,4-.2,6.2l-2.9-1.6Z"/>
    <path class="cls-6" d="M1644.6,895.4c1.5-3.7,3.5-7.5,6.6-10-.3,1.1,0,2.1,0,3.2-1.2,3.1-4.1,4.9-6.6,6.9Z"/>
    <path class="cls-6" d="M1653.6,881.5c3-2.9,7-5,9.6-7.9-.4,2.6-1.9,4.6-3.6,6.6-1.7,2-3.3,3.4-6,3.7v-2.3Z"/>
    <path class="cls-18" d="M1686.6,837.7c.2,1.9,2,3.3,3.2,4.7-2.9,2.3-6.3,4.1-9.4,6l-.8-.3c-.4-2.5-.3-4.6,0-7.1,1-1.4,1.8-2.6,3.2-3.4l3.7.2Z"/>
    <path class="cls-14" d="M1520.5,1057.6c-2.8-2.1-4.4-3.8-5.2-7.3,1.2-2.7,2.9-4.4,5-6.4h.5c1.7,0,3.4-.3,5.1-.6.7,1.7,0,3.1-.5,4.8-.5,2.1-.9,4.3-1.7,6.3-.9,2.1-1.3,2.3-3.3,3.2Z"/>
    <path class="cls-7" d="M1515.3,1050.4c1.2-2.7,2.9-4.4,5-6.4h.5c1.7,0,3.4-.3,5.1-.6.7,1.7,0,3.1-.5,4.8,0,0-.1,0-.2,0-4.6-.9-6-.1-9.9,2.3Z"/>
    <path class="cls-18" d="M1541.3,986.1c.4-2.5,1-4.1,3.2-5.6,3.1-2.2,7-2.6,10.7-2.7-1.9,3.5-4.7,11.3-7.7,13-2.9-.9-3.9-2.7-6.1-4.7Z"/>
    <path class="cls-4" d="M1558.9,956.9c.3-2.8.4-4.5,2.8-6.4,1-.8,2-1.6,3.3-1.7,2.3.2,4.5.3,6.6,1.2,0,.2,0,.8-.2,1.1-.5,1.4-6.1,10.1-7.2,10.6-1.4-.4-2.1-.7-3-1.9-.8-1-1.6-2-2.4-2.9Z"/>
    <path class="cls-7" d="M1527.1,1013.6c.9-.9,2.5-2.9,3.7-3.1l8.4-1.5c0,.6,0,1,0,1.5-1,3.9-4.6,12.6-8.1,14.6-2.9-2.3-3.2-7.9-3.9-11.5Z"/>
    <path class="cls-6" d="M1543.4,1033.8l-2.3.4c-1.2,2.2-2.3,7.9-4,8.7-.1-.5-.4-1.1-.4-1.6-.1-1.4,2.1-4.6,2.7-6.1,2.3-6.2,3.3-13.7,6.7-19.3.4-.6.8-1.2,1.2-1.7,2.3-3.2,3.1-7.7,4.9-11.3.2-.5.4-1.2.6-1.7,1,1.2,1.4,3.2,2,4.7.9-1.5.9-2.1,2.7-2.7-2,3.5-13,24.7-13.3,26.8-.1.8,1.4,2.7,1.9,3.4l-2.5.6Z"/>
    <path class="cls-18" d="M1543.4,1033.8l2.5-.6c-.5-.7-2-2.6-1.9-3.4.4-2.1,11.4-23.2,13.3-26.8.2,4.1-5.3,16.6-7.2,20.8,1.2,2.1,2,4,2.8,6.3-.7,4.1-2.9,8.7-4.3,12.7l-1.1-1.4-1.5,1.5-.8-.5c-.7-2.6-.1-3,1.1-5.3-.6-1.6-1.6-2.2-2.9-3.3Z"/>
    <path class="cls-18" d="M1783.2,805.8l-2.9-.7.3-1.2c7-3.5,12.5-2.8,17.4-9.7,1.9-1,3.6-1.2,5.7-1.4,3.2,2,5.2,2.5,8.9,1.6,1.6-.4,3.2-.6,4.3-1.9h.5c1.9.3,3.4.2,5,1.4v1.4c-7.5,6.5-30.2,4.5-39.3,10.4Z"/>
    <path class="cls-6" d="M1747.9,817.6c0-1.5,0-2.3.7-3.6,3.6-2.8,7.9-3.2,11.6-5.5,2.8-1.7,3.4-5.8,6-7.4,3.6-2.3,12.1-.3,16.4-.6,3.2-.2,6.7-1.4,9.8-2.1,1.6-2.7,3.5-5.8,6.9-6.7,1.3-.3,2.3,0,3.5.3l.8.8c-2.1.2-3.8.3-5.7,1.4-4.9,7-10.4,6.2-17.4,9.7l-.3,1.2,2.9.7c-3.9,3.4-28.6,9.6-35.2,11.8Z"/>
    <path class="cls-2" d="M1653.6,881.5c-3.7,3.6-10.4,11.9-15.2,13.2l-1.5-.2.6-.4c3.8-2.7,8.5-6.7,11.2-10.4l-.8-.8-3.2,1-.7-.7c5.3-5.3,40.5-31,46.1-31.1,5.4-.4,10.2-.9,15-3.9l2,.8-4.3,3,.5.5c-.9.9-1.7,1.9-2.5,2.8h.3c0,.1-.9,1.4-.9,1.4l-1.5-.7-1.2,1.3c-2.8,2.2-5.1,3.8-8.5,5-1.5.7-2.9,2.3-4.1,3.4,4.5,0,6.9-2.2,11.7-.9-11.7,6.6-23.6,14.2-34.2,22.5,0-.1-.1-.3-.2-.4-1.8-5.2,5.2-9,7.1-13,.6-1.3.7-1.4.2-2.7-2.8-.3-3.1.9-5.6,1.9-.3.1-.5.2-.8.3-2.6,2.9-6.6,5.1-9.6,7.9Z"/>
    <path class="cls-19" d="M1671,871.5c.4-3.1,1.5-3.8,3.9-5.7,6-4.6,14.2-7.8,21.1-10.8,2.5-1.1,4.3-1.3,6.6-2.8,0,0,.1,0,.2,0l.5.5c-.9.9-1.7,1.9-2.5,2.8h.3c0,.1-.9,1.4-.9,1.4l-1.5-.7-1.2,1.3c-2.8,2.2-5.1,3.8-8.5,5-1.5.7-2.9,2.3-4.1,3.4-3.9,1.3-7.4,5.4-11.4,7.2l-.7-1-1.9-.7Z"/>
    <path class="cls-2" d="M1689.1,862.6c.7-2.3,2.2-3.5,4.3-4.6,1.5-.8,2.6-.8,4.1-.4-2.8,2.2-5.1,3.8-8.5,5Z"/>
    <path class="cls-6" d="M1672.9,872.2l-1.9-.7c.2,0,.3-.1.5-.2,3.8-1.7,6.1-5.5,9.8-7.7l.7.3c-.8,3.5-6.2,6.4-9,8.3Z"/>
    <path class="cls-12" d="M1780.6,816.8l-2.3-1.1c18.9-8.1,80-17,101.8-16.4,13.2-1.3,26.6-.9,39.9-.9v13.8l-4.7-.2c-12,.4-23.9.8-35.9.4-13.5,1.1-26.8,1.6-40.2,3.6-4.3.9-8.6,1.4-13,2l-.9.3v-2.5c0,0-1.1-1.2-1.1-1.2-2.3-.5-4.3-1.2-6.4-2.1l-.6-.4-3.4-1.9v-1.4c-5.5,1-16.6,1.7-20.6,5.3l.4,2.4-1.3-.3-.5.2v-1c.1,0-.8-.3-.8-.3-.4.5-.7.8-1.3,1-1.4.6-4.6,1.3-6,.9-1.1-.4-1.9-.3-3.1-.2Z"/>
    <path class="cls-20" d="M1867.5,810c-2.4-.2-4.7-.4-7.1-.4.5-1.1,1.2-1.9,2-2.8-.4-.9-.3-1.2-1.3-1.5-2.5-.9-5.6-1-8.3-1.4,2.4-1.4,12.3-.2,15.2.7.5.2.7.3,1.1.6l-3.1.5c1.6.7,3.1,1.2,4.8,1.6l-3.3,2.7Z"/>
    <path class="cls-3" d="M1879.3,812.5l.8-.4.2-1c-4.5-.8-9.7,1.4-13.9,0l1.1-1.1,3.3-2.7c4.9-.7,10,1.2,14.4-1.9,3.3-1.9,8.3-.8,11.8-.2,2,1.1,3.7,1.8,6,2.3,4.2.4,8.4.9,11.5,4.1l.7.5c-12,.4-23.9.8-35.9.4Z"/>
    <path class="cls-2" d="M1900,809.9c1-.8,2.1-1.5,3-2.3,4.2.4,8.4.9,11.5,4.1-4.8.4-9.1-2-14.5-1.7Z"/>
    <path class="cls-6" d="M1900,809.9c-2.6,0-5.1.2-7.6,0l3.1-1.5-1.9-.6v-.8c-.1,0,3.5-1.7,3.5-1.7,2,1.1,3.7,1.8,6,2.3-.9.9-2,1.6-3,2.3Z"/>
    <path class="cls-6" d="M1813.8,810.2v-1.4c6.1-.6,13-1.5,19-3.2,6.3-.8,17-.3,22.8,2.1v.9c-2.8,1.3-5-1-7.6.1,4.7,2.9,7.9,2.2,13,1.9l.4.7c-7,1.3-14.3,1.8-21.4,2.7l-.9,2c-4.3.9-8.6,1.4-13,2l-.9.3v-2.5c0,0-1.1-1.2-1.1-1.2-2.3-.5-4.3-1.2-6.4-2.1l-.6-.4-3.4-1.9Z"/>
    <path class="cls-20" d="M1826.2,818c1.2-.8,2.8-1.5,3.5-2.8l-.7-2.8c2.8-.3,9.9-1.2,12.4,0l-1.4,1.5-.9,2c-4.3.9-8.6,1.4-13,2Z"/>
    <path class="cls-3" d="M1833.6,807.6l-.8-2c6.3-.8,17-.3,22.8,2.1v.9c-2.8,1.3-5-1-7.6.1-1.2.3-2,.5-3.2.3-1.4-.2-2.7-.2-4.1-.2l-.3.4c1.8,1.4,5,1.1,7.2,1.2l.2.8c-2.2,1.4-7.1.2-9.5-.4-.2-.5-.3-1-.3-1.6,0-.2,0-.3,0-.5l-4.4-1.2Z"/>
    <path class="cls-2" d="M1813.8,810.2v-1.4c6.1-.6,13-1.5,19-3.2l.8,2-.7.5.7.5h-1c0-.1-.1.2-.1.2.8.3,1.3.6,2,1.2-1.9.7-3.7,1.5-5.5,2.5l.7,2.8c-.7,1.3-2.3,2-3.5,2.8l-.9.3v-2.5c0,0-1.1-1.2-1.1-1.2-2.3-.5-4.3-1.2-6.4-2.1l-.6-.4-3.4-1.9Z"/>
    <path class="cls-20" d="M1817.8,812.5l-.6-.4.6.4Z"/>
    <path class="cls-20" d="M1885.2,805.4l-4.5.7c-3.1-1.9-5.2-2.3-8.8-1.6-.2,0-.5,0-.7.1,2.4-1.5,7.8-1.1,10.8-1.4-.9-.7-1.9-1.2-2.8-1.7l.9-2.1c13.2-1.3,26.6-.9,39.9-.9v13.8l-4.7-.2-.7-.5c-3.1-3.1-7.3-3.7-11.5-4.1-2.3-.5-4-1.2-6-2.3-3.6-.6-8.5-1.7-11.8.2Z"/>
    <path class="cls-6" d="M1903.1,807.5l.9-1.3c1.4-.2,2.2-.2,3.5.3,5.2,1.9,7.4-2.2,12.5,2.7v3.1l-4.7-.2-.7-.5c-3.1-3.1-7.3-3.7-11.5-4.1Z"/>
    <path class="cls-2" d="M1885.2,805.4l-4.5.7c-3.1-1.9-5.2-2.3-8.8-1.6-.2,0-.5,0-.7.1,2.4-1.5,7.8-1.1,10.8-1.4-.9-.7-1.9-1.2-2.8-1.7,4.2,0,7,3.9,11.3.6,3.1-2.4,10.3-1.6,14.1-1.5l.8.8-.3,1.6c-2.4-.1-3.5-.4-5.7.7,1.5,1,3,2.2,4.7,2.5l-.9,1.3c-2.3-.5-4-1.2-6-2.3-3.6-.6-8.5-1.7-11.8.2Z"/>
    <path class="cls-12" d="M1899.3,803.7l-1.8-.7c.8-1,1.2-1,2.6-1.2,1.6-.2,3.5.7,5,1.2-2.4-.1-3.5-.4-5.7.7Z"/>
    <path class="cls-6" d="M1685,866c1.2-1.2,2.6-2.7,4.1-3.4,3.3-1.3,5.7-2.8,8.5-5l1.2-1.3,1.5.7.9-1.3h-.3c.8-1.1,1.6-2.1,2.5-3l-.5-.5,4.3-3-2-.8c-4.8,3-9.5,3.5-15,3.9,9.1-7.9,45-24.2,56.3-26.4,7.2-3.7,23.9-9.2,31.9-10.1l2.3,1.1c1.1,0,1.9-.2,3.1.2,1.4.5,4.6-.3,6-.9.6-.2.9-.6,1.3-1l.9.3v1c-.1,0,.4-.2.4-.2l1.3.3-.4-2.4c4.1-3.6,15.1-4.3,20.6-5.3v1.4c0,0,3.4,1.9,3.4,1.9l.6.4c2.1.9,4.1,1.6,6.4,2.1l1.2,1.2v2.5c-8.1,2.9-20.1,3.8-29.1,6.2-11.8,3.2-23.4,6.9-34.8,11-11.5,4.1-22.8,8.7-33.9,13.6-4.5,3.1-10.4,5.1-15.3,7.8l-15.6,8.1c-4.8-1.3-7.2.9-11.7.9Z"/>
    <path class="cls-19" d="M1769.7,826.9c.1,0,.3-.2.4-.3,2.2-1.3,3.8-.9,6.1-.3-2.5,1.2-3.8,1.1-6.5.6Z"/>
    <path class="cls-19" d="M1751.3,833.6v-1.2c0,0,1.5.5,1.5.5.2.6.2,1.1.1,1.7l-1.6-1Z"/>
    <path class="cls-2" d="M1741.5,837.3c-.4-1.9,0-3,1.1-4.6.7-1,1.9-1.2,3.1-1.4l1,2.2c-1.2,1.5-3.4,3-5.2,3.8Z"/>
    <path class="cls-19" d="M1754.9,833.9c.3-1.6,1.4-3.9,2.6-5.1,1.6-1.6,2.7-1.4,4.8-1.4-.3,1-.7,1.6-1.4,2.4-.3.3-.6.6-.8,1-1.6,2-2.9,2.4-5.3,3.2Z"/>
    <path class="cls-2" d="M1712.3,857l-.5-3.8c1.8-2.1,3.8-3.3,6.6-3.6.9,0,1.7,0,2.6-.1,2,0,3.7-.2,5.6-.9l1,.6c-4.5,3.1-10.4,5.1-15.3,7.8Z"/>
    <path class="cls-20" d="M1793,817.9c-.4-.2-.6-1.2-.8-1.6l1.3.3-.4-2.4c4.1-3.6,15.1-4.3,20.6-5.3v1.4c-2.2.4-4.2.7-6.3,1.6l.4.2-1.7,1.2,1.4,1.3c-.6.8-.3.6-1,.9-2.1,1.1-8.2,3.7-10.5,3-1-.3-2.1-.5-3.1-.7Z"/>
    <path class="cls-19" d="M1793,817.9c-.4-.2-.6-1.2-.8-1.6l1.3.3c2.1.7,3.1,1.4,5.3.4.6-.3,1.2-.6,1.7-1-.3,0-.5.2-.8.2-1,.2-2.2.1-3.3.2,3.2-1.5,6.2-2.3,9.7-3.1l1.4,1.3c-.6.8-.3.6-1,.9-2.1,1.1-8.2,3.7-10.5,3-1-.3-2.1-.5-3.1-.7Z"/>
    <path class="cls-3" d="M1768.5,822.4l-1.9-.7c1.8-2.6,10.7-4.2,14-4.9,1.1,0,1.9-.2,3.1.2,1.4.5,4.6-.3,6-.9.6-.2.9-.6,1.3-1l.9.3v1c-.1,0,.4-.2.4-.2.2.5.4,1.4.8,1.6-.8,1.4-1.7,3-3.3,3.4-.6.2-1.1.3-1.7.6-4.8,2.2-10.4.5-15.5.3-1.4,0-2.6,0-4,.2Z"/>
    <path class="cls-12" d="M1779,819.8c2.9-1.1,4.2.2,7.3-1.1v.9c-2,1.2-3.7,1.4-6,1.6l-1.3-1.4Z"/>
    <path class="cls-20" d="M1750.4,829.7l-.9-1.2,1.3-1.6-.2-.6c-1.2.2-2.5.5-3.6-.1-.2-.1-.4-.2-.6-.4,7.2-3.7,23.9-9.2,31.9-10.1l2.3,1.1c-3.3.7-12.2,2.3-14,4.9l1.9.7.9.8-.7.2c-1.6.5-2.9,1.3-4.4,2.1-1.6.5-3.1.1-4.6.5-3,.8-6.3,2.6-9.3,3.7Z"/>
    <path class="cls-3" d="M1764.3,825.5c-1-1.4-1.5-1.8-1.6-3.5,1.6.3,2.7.5,4.1,1.4h1.9c-1.6.4-2.9,1.2-4.4,2.1Z"/>
    <path class="cls-3" d="M1690.2,852.2c9.1-7.9,45-24.2,56.3-26.4.2.1.4.2.6.4,1.1.6,2.4.3,3.6.1l.2.6-1.3,1.6.9,1.2c-1.6,1.2-2.7,1.5-4.7,1.6-1.1.2-2.3.4-3.1,1.4-1.2,1.6-1.6,2.7-1.1,4.6h-2.7s-1.1-1.6-1.1-1.6c-1.4.9-2.2,2-3.2,3.4-2.2,1-3.5,1.6-4.8,3.9l.6-.3-2.1,2.4c-2.5.6-2.7.6-5.1-.4-2.4-1.3-7.3,3.2-10.6,2.9-1.8,0-3.8.9-5.5,1.5l-2-.8c-4.8,3-9.5,3.5-15,3.9Z"/>
    <path class="cls-20" d="M1734.5,839.1l-.4-1.9c1.2-.7,2.3-1.1,3.6-1.4-1.4.9-2.2,2-3.2,3.4Z"/>
    <path class="cls-2" d="M1723.2,844.7c-2.4-1.3-7.3,3.2-10.6,2.9,1.1-.9,3.4-2.3,3.8-3.6.4-1,1.1-1.8,1.8-2.6,2-.7,4.1-1.6,6.1-2.4-.1.9,0,.5-.7,1.3l1.8.4c.4.9.6,1.5.5,2.5l1.1.5c-1.8-.2-2.3.3-3.8,1.1Z"/>
    <path class="cls-9" d="M1920,846.6c-5.4-6.6-9.9-2.3-16.6-3.5l-.4-2c5.7-.6,11.3.8,17,0v5.4Z"/>
    <path class="cls-10" d="M1657.9,1080c4.4-7.2,10.4-12.9,18.9-14.9.4,0,.9-.2,1.3-.3.4,0,.9-.1,1.3-.2.4,0,.9,0,1.3-.1.4,0,.9,0,1.3,0,.4,0,.9,0,1.3,0,.4,0,.9,0,1.3,0,.4,0,.9,0,1.3.1.4,0,.9.1,1.3.2s.9.2,1.3.3c.4,0,.8.2,1.3.3.4.1.8.2,1.2.4.4.1.8.3,1.2.4.4.2.8.3,1.2.5.4.2.8.4,1.2.6.4.2.8.4,1.2.6.4.2.8.4,1.1.7,4.3,2.7,8,6.9,10.4,11.4h-4.9l-.4-1.1-1.6.3c-.7-2.3-2.1-4.3-3.9-5.9-4-3.7-8.6-5-14-4.7-9.1.5-14.4,4.9-20.1,11.4h-4.4Z"/>
    <path class="cls-17" d="M1821.1,1080c0-4.7.8-8.6,4.3-12,2.2-2.1,5.1-3.4,8.2-3.3,2.6.2,5,1.5,6.7,3.5,2.9,3.5,2.7,7.5,2.6,11.8h-21.8Z"/>
    <path class="cls-10" d="M1662.3,1080c5.7-6.4,11.1-10.8,20.1-11.4,5.4-.3,10,1,14,4.7,1.8,1.6,3.2,3.6,3.9,5.9l1.6-.3.4,1.1h-40Z"/>
    <path class="cls-21" d="M1662.3,1080c5.7-6.4,11.1-10.8,20.1-11.4,5.4-.3,10,1,14,4.7,1.8,1.6,3.2,3.6,3.9,5.9l1.6-.3.4,1.1h-26.6c3.8-4.1,7.7-2.1,12.7-2.4,1.5-1.1,2.2-2,3-3.7-.2-1.1,0-1.5-.9-2.2-2.6-2-8.3-1.3-11.3-.6-6.2,1.3-10.1,3.7-13.6,9h-3.4Z"/>
    <path class="cls-17" d="M1920,857.2c-2.3,2.6-4.7,5.8-8.5,6-3.2.1-7-.6-9.2-3-1.7-1.9-2.2-4.5-2-7,.4-3.5,2.4-6.9,5.3-9,1.8-1.3,4.1-2.4,6.4-2,2.7.5,5.2,3.1,6.5,5.4,1.1,1.8,1.3,4.7,1.5,6.8v2.8Z"/>
    <path class="cls-2" d="M1671.7,1028.6c-.7-10.9.8-18.9,6.5-28.3,1.3-.7,2.6-1.3,3.9-1.8,2.7-1.2,5.5-1.7,8.3-.4,4.2,1.9,5.9,6.7,7.3,10.8,1.9,10.5.6,19.5-4.4,28.8-1.9,1.3-4.1,2.8-6.3,3.4-2.9.8-6.1.5-8.7-1.1-4.2-2.6-5.5-6.9-6.5-11.4Z"/>
    <path class="cls-9" d="M1680.7,1017c.2-1.4.6-2.7,1.1-4.1,1.5.4,3,.9,4.5,1.5v1.9c-1.8,1.3-3.3.8-5.5.8Z"/>
    <path class="cls-9" d="M1678.1,1024.8c.9-.8,1.9-1.7,2.9-2.3l.5.6c1.7-.6,3.5-.7,5.3-.9l.4.8c-1.4,1.7-3,3.2-5.3,3.4-2,.2-2.4-.5-3.9-1.7Z"/>
    <path class="cls-22" d="M1676.2,1027.7c-.4-6.7-.9-16.4,4-21.6,1.5-1.6,3.8-2.7,6-2.6,1,0,2,.2,3,.3l.9,1.1c-.8.4-1.5.4-2.4.4-2.2,0-3.7-.2-5.5,1.2-1.5,2.3-3.8,5.6-3.2,8.4.2,1,.9,1.8,1.6,2.6-1.7,1.1-2,1.2-2.8,3.1l1.1.8,1.8-.3.3-2.1,1.5-.4.9.6c-.7,1.9-.8,2.1-2.5,3.3-1,.6-2,1.5-2.9,2.3,0,.2,0,.3,0,.5.3,2,1.2,5.2,2.9,6.5.8.6,1.5.6,2.4.5.5,0,1.1-.4,1.6-.6l1.8.7c-.7,1.5-.9,1.6-2.2,2.5-2.7-.4-4.2-1.4-5.9-3.6-.9-1.2-1.7-2.3-2.5-3.5Z"/>
    <path class="cls-22" d="M1920,1058.3c-9.3-1.9-17.3-4.6-22.8-12.8-3.5-5.3-4.9-11.5-3.5-17.7,0-.4.2-.8.3-1.2.1-.4.2-.8.4-1.2.1-.4.3-.8.4-1.2.2-.4.3-.8.5-1.1.2-.4.4-.8.5-1.1s.4-.7.6-1.1c.2-.4.4-.7.7-1.1.2-.3.5-.7.7-1,.2-.3.5-.7.8-1,.3-.3.5-.6.8-.9.3-.3.6-.6.9-.9.3-.3.6-.6.9-.9.3-.3.6-.6.9-.8.3-.3.7-.5,1-.8.3-.2.7-.5,1-.7.3-.2.7-.5,1.1-.7,4.6-2.8,9.6-4.1,14.9-4.5v50.7Z"/>
    <path class="cls-6" d="M1670.2,966.7c-.2-4.8.4-9.8,3-14,3.9-6.3,9.8-8,16.6-9.5,5.1,2.1,10.3,4.2,14.3,8.2,2.1,2.2,3.5,4.1,3.5,7.2,0,6.4-.3,11.7-3.9,17.2-2.7,4.1-6.7,7.3-11.6,8.2-4.7.9-9.7-.4-13.6-3.1-5.1-3.6-7.4-8.2-8.4-14.2Z"/>
    <path class="cls-4" d="M1817.2,955.7c-.2-5.7,1.8-11.7,5.2-16.3l.3-.4c2.5-3.4,6.4-5.5,10-7.7l-2.6.3-.3-.7,2.1-.8c4.2,1.4,9,1.7,13.4,2.4l.4-.3c-.7-.2-1.3-.4-2-.4-2.1,0-3.9-.5-5.8-1,2.2-1.2,3.9-1.3,6.4-.7,3.9.9,9,4.3,11.1,7.8.9,1.6,1.7,3.9,1.2,5.8l-1-2c-1.2-2.2-2.5-4.1-4-6.1h-1c1,4.5,5.4,6.5,6.8,10.6,0,.2,0,.4.1.5.3,1,.6,2.1.6,3.1.2,7.8-6.3,14-11.3,19.1-3.5,1.1-7.1,1.9-10.8,2-10.3.2-10.5-4.6-16.4-9.9-1.7-1.5-1.9-3-2.4-5.2Z"/>
    <path class="cls-22" d="M1705.7,1040.8c.4-4.8,1.2-8.5,3.9-12.7,3.1-4.7,7.7-8.3,13.3-9.4,6.2-1.2,11.6.9,16.7,4.4.6.4,1.2.8,1.7,1.3.2.2.3.3.5.5,3.1,2.7,3.7,6.5,4.8,10.4.6,6.2-.6,11.7-4.4,16.8-3.5,4.7-9,8-14.8,8.7-5.1.6-10.4-.8-14.4-4.1-4.9-4.1-6.7-9.7-7.3-15.8Z"/>
    <path class="cls-7" d="M1710,1047.9c-2.1-5.6-2.3-11.2.3-16.8.4-.9,1-1.6,1.6-2.4,3-3.7,6.5-7.3,11.5-7.8,5.4-.6,10.7.1,15,3.6,3.7,3,6,7.6,6.5,12.3.5,5.4-1.6,10.9-5.1,14.9-3.3,3.9-7.9,6.3-13,6.6-2.8.2-5-.2-7.6-1.3-.2,0-.4-.1-.5-.2-.1,0-.2,0-.3-.1-3.7-2.1-6.7-5-8.3-8.9Z"/>
    <path class="cls-13" d="M1718.3,1056.8c-3.7-2.1-6.7-5-8.3-8.9l.5-6.3c1.6,2.6,1.6,5.7,3.7,8.1,2.4,2.9,6.8,2.7,9,6-1.6.7-3.1.9-4.8,1.1Z"/>
    <path class="cls-14" d="M1620.3,1050.3c0-6,0-11.1,3.4-16.4,3-4.9,7.8-8.5,13.5-9.6.3,0,.7-.1,1-.2.3,0,.7,0,1-.1.3,0,.7,0,1,0,.3,0,.7,0,1,0,.3,0,.7,0,1,0,.3,0,.7,0,1,0,.3,0,.7,0,1,.1.3,0,.7.1,1,.2.3,0,.7.1,1,.2.3,0,.7.2,1,.3.3,0,.6.2,1,.3.3.1.6.2,1,.4.3.1.6.3.9.4.3.1.6.3.9.5.3.2.6.3.9.5.3.2.6.4.9.6,6.5,4.4,9,11.2,10.3,18.7-2.2,7.4-4.9,13.4-11.7,17.6-4.5,2.7-9.2,3.5-14.4,2.3h.6c-.1,0-.2,0-.4,0-8-2.5-13.2-8.3-17-15.5Z"/>
    <path class="cls-9" d="M1832.7,1042.6c-.2-4.9-.2-9.4,1.9-14,2.5-5.5,7-9.7,12.8-11.7.4-.1.7-.2,1.1-.3.4-.1.7-.2,1.1-.3.4,0,.7-.2,1.1-.2.4,0,.8-.1,1.1-.2.4,0,.8,0,1.1-.1.4,0,.8,0,1.1,0,.4,0,.8,0,1.2,0,.4,0,.8,0,1.2,0s.8,0,1.1,0c.4,0,.8,0,1.1.2.4,0,.8.1,1.1.2.4,0,.7.2,1.1.3.4,0,.7.2,1.1.3.4.1.7.2,1.1.4s.7.3,1.1.4c.4.2.7.3,1,.5,6.1,3,9.6,8.3,11.7,14.5.2,4.4,0,7.9-1.5,12.1-2.2,5.8-6.4,10.6-12.1,13.1-.3.1-.7.3-1,.4-.3.1-.7.3-1,.4-.3.1-.7.2-1.1.3-.4,0-.7.2-1.1.3-.4,0-.7.1-1.1.2-.4,0-.7.1-1.1.2-.4,0-.7,0-1.1,0-.4,0-.7,0-1.1,0-.4,0-.7,0-1.1,0-.4,0-.7,0-1.1,0-.4,0-.7,0-1.1-.1-.4,0-.7-.1-1.1-.2-.4,0-.7-.2-1.1-.2-.4,0-.7-.2-1.1-.3-.3-.1-.7-.2-1-.3-.3-.1-.7-.3-1-.4-7.1-2.9-10.7-8.4-13.6-15.2Z"/>
    <path class="cls-7" d="M1834.8,1042.2c-.3-5.1-.1-9.3,2.4-13.9.2-.3.3-.6.5-.8.2-.3.4-.6.5-.8.2-.3.4-.5.6-.8.2-.3.4-.5.6-.8.2-.2.4-.5.7-.7.2-.2.5-.5.7-.7.2-.2.5-.4.7-.7.2-.2.5-.4.8-.6.3-.2.5-.4.8-.6.3-.2.5-.4.8-.5.3-.2.6-.3.8-.5.3-.2.6-.3.9-.5.3-.1.6-.3.9-.4.3-.1.6-.3.9-.4.3-.1.6-.2.9-.3.3-.1.6-.2.9-.3,5.4-1.5,11.6-.6,16.5,2.2,4.1,2.4,8.7,7.4,9.9,12,0,2.6.2,5.3-.5,7.9-1.5,5.6-5,10.6-10.2,13.4-.3.2-.6.3-.9.5-.3.1-.6.3-.9.4-.3.1-.6.3-.9.4-.3.1-.6.2-1,.3-.3,0-.6.2-1,.3-.3,0-.7.2-1,.2-.3,0-.7.1-1,.2-.3,0-.7,0-1,.1-.3,0-.7,0-1,0-.3,0-.7,0-1,0-.3,0-.7,0-1,0-.3,0-.7,0-1,0-.3,0-.7,0-1-.1-.3,0-.7-.1-1-.2-.3,0-.7-.1-1-.2-.3,0-.6-.2-1-.3-7.2-2.2-11.2-7.4-14.6-13.7Z"/>
    <path class="cls-9" d="M1847.9,1045.5l1.3-.9c1.1.7,1.9,1,3.1,1.3,1.5-.4,2.4-.7,3.5-1.9.7-.8,1.5-1.6,2.2-2.4,2.2-.8,3.5-.7,5.8-.3,0,1,.1,1.5-.4,2.4-.6,1.2-6.3,2.7-7.7,3.2-.9.3-1.9.7-2.8.9-2.3.4-3.3-1-4.9-2.3Z"/>
    <path class="cls-20" d="M1771.3,870.7c-1.5-.2-4-.7-5.3-1.6-1.3-.9-1-2.1-1.2-3.5-3.2-1.3-14,6.2-21.1,5.5l-1-2c37.1-15.1,78.3-29.3,118.5-32.3l-.5,1.1c3.3,2.4,11.8-2.9,16.4,0-.5,1.8-.9,1.9-2.4,2.8-.6.3-1.2.6-1.8,1l.3,1h2.4c0,0-2-.4-2-.4l1.4-.4v.5c-17.8,2.5-35.6,4.3-53.4,7.3,1.1,4.1,2.2,8.5,1.7,12.8-.7,5.4-3.1,10.4-7.5,13.7-3.4,2.6-7.8,3.9-12.1,3.3-.5,0-.9-.2-1.4-.3-.5-.1-.9-.3-1.3-.4s-.9-.3-1.3-.5c-.4-.2-.8-.4-1.2-.7-.4-.2-.8-.5-1.1-.8s-.7-.6-1.1-.9c-.3-.3-.7-.7-1-1-.3-.4-.6-.7-.9-1.1-3.7-5.3-3.2-10.6-2.1-16.7-7.9,2.8-16.2,5.2-23.8,8.8.3,2.3,1.4,3.1,2.8,4.9Z"/>
    <path class="cls-2" d="M1917.7,924.8c-.2.5-.3,1-.5,1.5-2.4,6.2-9.1,10.8-15.1,13.3-8.7,3.7-18.6,4.7-27.5,1.1-3.7-1.5-7.8-4.1-9.3-8-1.3-3.4-.5-9.3,1-12.5,3.6-6.7,10.3-10.1,17.4-12.3,9.2-2.9,20.8-3.7,29.5,1.1,2.2,1.2,4.3,3.2,5.1,5.7.9,2.7.7,7.5-.6,10.1Z"/>
    <path class="cls-9" d="M1873.1,938.6l1.4-1.9c1,.5,2,1,3,1.4,7,2.4,17.2,1.3,23.9-1.9,1.2-.6,2.4-.9,3.7-1.2l.2.9c-1,1.5-1.4,2.1-3.2,2.8-8.5,3.4-20.8,3.3-29.1-.2Z"/>
    <path class="cls-18" d="M1866.6,932.6c-.7-19.3,11.8-15.8,15.7-22.5l-1.2-.3c-5.3,1.5-10.7,6.8-14.7,10.5,3.6-6.7,10.3-10.1,17.4-12.3,9.2-2.9,20.8-3.7,29.5,1.1,2.2,1.2,4.3,3.2,5.1,5.7.9,2.7.7,7.5-.6,10.1l-.7-1.2c-2.1-.4-2.3,3.8-4.4,5.1-1.2-1.7,1.4-7.3,1.3-10-.1-2-1.1-3.8-2.6-5.2-3.9-3.6-9.4-4.4-14.4-4.1-8.5.5-18.5,3.8-24.3,10.4-2.2,2.6-3.7,5.8-3.4,9.3.4,3.5,2.7,5.6,5.3,7.5l-1.4,1.9c-2.3-1-4.7-4.2-6.5-6Z"/>
    <path class="cls-11" d="M1567.7,1080v-4.8c1.2-4.6,2-9.4,3.5-13.9,2.6-11,7.4-20.7,10.8-31.3,2.4-4.3,4.2-10.1,7.4-13.8l1.3.3c-3,6.3-9.3,16.1-9.6,22.9,9.5-2,17.7-2.8,26.2,3,4.5,3,7.4,7.6,8.4,13,1.2,6.8-.7,14.6-4.7,20.3-1.1,1.6-2.6,3.1-4,4.4h-39.3ZM1567.7,1080h18c-5.5-3.6-10.2-7.8-11.5-14.6-1.3-6.8,1.5-15.2,4-21.4,7-3.5,13.9-5.5,21.6-3,5.2,1.7,9.8,5.3,12.3,10.2,2.7,5.2,2.8,11.1.9,16.7-1.6,4.7-4.7,8.8-8.2,12.2h2.3c1.4-1.4,2.9-2.8,4-4.4,4-5.6,5.9-13.5,4.7-20.3-.9-5.4-3.8-9.9-8.4-13-8.6-5.7-16.7-4.9-26.2-3,.3-6.8,6.6-16.6,9.6-22.9l-1.3-.3c-3.2,3.6-5,9.5-7.4,13.8-3.4,10.7-8.2,20.3-10.8,31.3-1.5,4.5-2.3,9.3-3.3,13.9v4.8Z"/>
    <path class="cls-5" d="M1567.7,1080v-4.8c1.2-4.6,2-9.4,3.5-13.9,2.6-11,7.4-20.7,10.8-31.3,2.4-4.3,4.2-10.1,7.4-13.8l1.3.3c-3,6.3-9.3,16.1-9.6,22.9,9.5-2,17.7-2.8,26.2,3,4.5,3,7.4,7.6,8.4,13,1.2,6.8-.7,14.6-4.7,20.3-1.1,1.6-2.6,3.1-4,4.4h-2.3c3.6-3.4,6.6-7.5,8.2-12.2,1.9-5.5,1.7-11.4-.9-16.7-2.5-4.9-7-8.5-12.3-10.2-7.7-2.5-14.6-.5-21.6,3-2.5,6.3-5.3,14.7-4,21.4,1.3,6.8,6,11,11.5,14.6h-18ZM1568.2,1080h11.5c-3.9-3.5-5.8-7.2-7.9-11.8l-3.6,11.8Z"/>
    <path class="cls-22" d="M1576,1062.8c-.9-3.5,0-9.7,1.3-13.2,1.3-3.2,4-5.5,7.1-6.8,5.2-2.1,10.9-1.9,16.1.2,4,1.6,9.2,4.9,10.7,9.2.5,1.4.8,3,.1,4.4,0,5.1-.6,9-3.6,13.3-2.8,4.1-7.2,7.5-12.2,8.4-4.5.8-9,.2-12.7-2.6-4-3-6.1-8.1-6.8-13Z"/>
    <path class="cls-4" d="M1856.9,985c-.4-4.9-.2-14.7,2.4-19,1-1.7,12.9-7.9,15.1-8.3.2,0,.3,0,.5,0l-2.4-.7.4-.9c2.9-1.3,5.9-2.1,9.2-2,5.6,0,10.5,2.7,14.4,6.7,6.1,6.3,7.8,14.6,7.5,23.1,0,.2,0,.4,0,.6-2.4,8.9-10.4,15-18.1,19l3.1-.7-.8.4c-5.4,2.9-10.6,3.5-16.5,1.6-6.5-2.1-10.4-6.7-13.4-12.7,1,1.1,2.7,3.4,4.2,3.8-2.1-3.5-3.8-6.9-5.4-10.7Z"/>
    <path class="cls-14" d="M1841.9,878.6c-.3-5-.4-9.3,1.4-14.1.1-.4.3-.8.5-1.2.2-.4.3-.8.5-1.2s.4-.8.6-1.1c.2-.4.4-.7.6-1.1.2-.4.5-.7.7-1.1.2-.3.5-.7.7-1,.3-.3.5-.7.8-1,.3-.3.6-.6.8-1,.3-.3.6-.6.9-.9.3-.3.6-.6.9-.9.3-.3.6-.6,1-.8.3-.3.7-.5,1-.8s.7-.5,1.1-.7c.4-.2.7-.4,1.1-.7.4-.2.7-.4,1.1-.6.4-.2.8-.4,1.1-.5,5.8-2.5,12.2-2.5,18.1-.1,7.3,3,11.7,8.8,14.6,15.9,1.4,6.9,1.8,11.8-1.7,18.3-3.1,5.7-8.4,10.3-14.7,12.1-6.6,1.9-14.3.8-20.3-2.5-6.2-3.5-9.1-8.4-10.9-15.1Z"/>
    <path class="cls-22" d="M1764,1045.6c0-1.6.2-3.2.5-4.8,1.3-7,5-13,11-17.1,5.5-3.7,12.5-5.7,19-4.3,6.6,1.4,12.6,5.7,16.2,11.4,4.5,7,4.7,13.9,3,21.8-1.8,5.3-5.6,12.6-9.9,16.2-4.5,3.8-10.3,5.5-16.2,4.9-6.9-.7-11.4-3.7-15.7-8.9l2.4,1.8c-5.6-6.5-9.2-12.2-10.3-20.9Z"/>
    <path class="cls-11" d="M1800,1054.8c-3,2.8-1.7,3.6-3.2,5.7-1.8,2.6-9.6-.2-11.3,1-1.1.8-.4,3.5-2.3,3.4-3.1-.2-7.3-4.3-9.2-6.8-.2-.3-.4-.5-.6-.8-.2-.3-.4-.6-.6-.9-.2-.3-.3-.6-.5-.9-.2-.3-.3-.6-.5-.9-.1-.3-.3-.6-.4-.9-.1-.3-.3-.6-.4-1-.1-.3-.2-.6-.3-1,0-.3-.2-.7-.3-1,0-.3-.2-.7-.2-1,0-.3-.1-.7-.2-1s0-.7-.1-1c0-.3,0-.7,0-1,0-.3,0-.7,0-1,0-.3,0-.7,0-1,0-.3,0-.7,0-1,0-.3,0-.7.1-1,0-.3.1-.7.2-1,0-.3.2-.7.2-1,0-.3.2-.6.3-1,.1-.3.2-.6.3-.9.1-.3.2-.6.4-.9.1-.3.3-.6.4-.9.1-.3.3-.6.5-.9.2-.3.3-.6.5-.9.2-.3.4-.6.6-.8.2-.3.4-.5.6-.8.2-.3.4-.5.6-.8.2-.3.4-.5.7-.7.2-.2.5-.5.7-.7.2-.2.5-.5.7-.7.3-.2.5-.4.8-.6.3-.2.5-.4.8-.6,4.2-2.9,9.8-4.4,14.9-3.5,5.2.9,9.8,4.3,12.8,8.7.7,1,1.2,2,1.5,3.2l-1.3-.7h1.1s-.2.9-.2.9c-2-1.5-3.1-3.6-4.4-5.7-.9,1.3-2.2,2.3-3.3,3.4,2.3,2.4,3,4.2,3.7,7.4,1,1.2,2.1,1.5,3.6,2-.1,2.4,0,4.7-1.3,6.9l-.5.3-1.4-2.1-.2,1.4-3.4,3.2Z"/>
    <path class="cls-17" d="M1800,1054.8c-1.1-2.1-1.5-2.3-1.1-4.6,1.7-.3,2.2-.2,3.6.7.4.3.5.4.9.7l-3.4,3.2Z"/>
    <path class="cls-9" d="M1799.6,1035.7c-.2,0-.4,0-.5,0-.7.1-1.3.4-2,.6-3.2-.4-4.6,0-7.1,1.9-.4.3-.7.5-1.1.8-5.5,0-3.9-3.7-8.6,0-1.3-1.6-3-3.3-3.2-5.4.6-2,1.4-3,3.3-4.1,4.2-2.3,10.9-3.3,15.5-1.8,2.5.8,5,2.6,7,4.3-.9,1.3-2.2,2.3-3.3,3.4Z"/>
    <path class="cls-15" d="M1582,1030c-.9-2.9.7-5.1,2-7.7,1.8-3.5,4.5-7.3,5.2-11.2l-.7-1-2,.2c10.1-23,35.1-53.8,53.3-71.8,9.3-9.2,19.7-17.6,30-25.6,3.2-2.4,6.9-7,10.6-8.3.2,0,.4,0,.7,0,12.6-11.7,45.4-28.5,61.7-35.4l1,2c7.1.6,18-6.8,21.1-5.5.1,1.5-.1,2.6,1.2,3.5,1.3.9,3.7,1.4,5.3,1.6.9,1.1,1.5,2.2,2,3.5,2.7,7-.4,15.3-3.3,21.8-4,8.8-10.6,19.2-20.1,22.6-2.9,1-6,1.3-8.7-.2-3.4-1.8-5.5-5.7-6.5-9.2-3.1-11.4,4.3-23.5,9.6-33.2-10.1,3.7-20.9,9-30.1,14.8-2.4,1.5-6,3.7-6.7,6.6,1.2,3.6,3.4,4.8,5.3,7.8,2,3.2.2,9.1-.4,12.6-3.2,3.6-6.1,6.5-11.1,7.2-3.3.4-6.3-.5-8.8-2.6-4.7-3.8-5.5-8.2-6-13.9-7.6,5.5-14.8,11.5-22.1,17.4,1.7,1.7,3.5,3.5,4.6,5.7,1.9,3.5,2.8,8.3,1.6,12.2-1.7,5.8-5.1,7.8-10.3,10.5h-9.4c-4.5-2.7-6.6-4.6-8.8-9.4-4.3,4.8-8.5,9.6-12.5,14.6,5.4,4.5,8.4,9.9,9.9,16.7,2,9.2.5,18.7-4.7,26.6-4.1,6.3-9.9,10.6-17.4,12-7,1.3-13.9-.3-19.7-4.2l-1.3-1.2c-2.6.7-4.5,4.9-5.9,7.2l-1.3-.3c-3.2,3.6-5,9.5-7.4,13.8Z"/>
    <path class="cls-9" d="M1645,946.8l.2-3.6.3,1.7v-1c.5,1.1.6,1.7,1.7,2.3.2-1.8.3-3.7.4-5.5,1.1-1.7,2-3,3.7-4.3.4.9.7,1.5,1.3,2.2l1.5-.7c.4-1.9.9-4.5,2.2-6,1.5-1.7,4.3-3.2,6.5-3.4,1.1,1.1,2.2,2.2,3.1,3.4.3.3.5.6.7,1,.2.3.4.7.6,1.1.2.4.4.7.5,1.1.2.4.3.8.4,1.2.1.4.2.8.3,1.2,0,.4.1.8.2,1.2s0,.8,0,1.2c0,.4,0,.8,0,1.2-.4,3.5-2.2,6.6-5.1,8.7-2.9,2.2-6.6,3.2-10.2,2.6-3.9-.7-6.3-2.5-8.5-5.7Z"/>
    <path class="cls-3" d="M1582,1030c-.9-2.9.7-5.1,2-7.7,1.8-3.5,4.5-7.3,5.2-11.2l-.7-1-2,.2c10.1-23,35.1-53.8,53.3-71.8,9.3-9.2,19.7-17.6,30-25.6,3.2-2.4,6.9-7,10.6-8.3.2,0,.4,0,.7,0,1.7-.6,3.3-1.3,5.1-.9-1.2,2.9-7.5,5.9-10.1,8.1-3.9,3.4-7.2,7.6-11,11-14.7,13.2-29.7,25.2-41.7,41.1-1.2,1.6-2.8,2.3-3.9,4.1l.7.6c2.2-1.2,4-3.7,5.6-5.7l1.9-1.4,2.1.7c2.3,2.3,3.9,5.1,5.2,8,3.7,8.3,4.4,17.4.8,25.9-2.7,6.4-7.4,12-14,14.6-6.7,2.6-15.4,2.3-21.9-.7l-2.1.4-1.3-1.2c-2.6.7-4.5,4.9-5.9,7.2l-1.3-.3c-3.2,3.6-5,9.5-7.4,13.8Z"/>
    <path class="cls-10" d="M1600,1010.1c-1.6-1.6-3-2.4-3.5-4.7l1.5-2.7h.8c1.8,2.7,3.7,6.4,7,7.1,6.5,1.5,15.3-.5,20.8-4.3.3-.2.7-.5,1-.7.3-.2.6-.5.9-.8.3-.3.6-.5.9-.8.3-.3.6-.6.9-.9.3-.3.5-.6.8-.9.3-.3.5-.6.8-.9.2-.3.5-.6.7-1,.2-.3.5-.7.7-1,.2-.3.4-.7.6-1,.2-.4.4-.7.6-1.1.2-.4.3-.7.5-1.1.2-.4.3-.7.4-1.1.1-.4.3-.8.4-1.1.1-.4.2-.8.3-1.2.1-.4.2-.8.3-1.2,0-.4.2-.8.2-1.2,1.2-7.4-.6-15.4-5.1-21.4-1.6-2.1-3.4-3.8-5.6-5.2l1.9-1.4,2.1.7c2.3,2.3,3.9,5.1,5.2,8,3.7,8.3,4.4,17.4.8,25.9-2.7,6.4-7.4,12-14,14.6-6.7,2.6-15.4,2.3-21.9-.7Z"/>
    <path class="cls-19" d="M1552.4,1080c17.8-84.3,61.9-144.9,133.7-191.6,19.7-12.8,39.9-23.1,61.4-32.2,14.3-6.1,28.9-12.1,43.8-16.5,29.3-8.7,61-12.5,91.4-14.3,9.2-.5,26.7-2.7,34.9-.9.2,0,.5.1.7.2.5.1,1,.2,1.5.3v16.2c-5.7.7-11.3-.7-17,0-9.3,0-18.6.4-27.9,1.3v-.5c0,0-1.4.4-1.4.4l2,.5h-2.4c0,0-.3-1.1-.3-1.1.6-.3,1.2-.6,1.8-1,1.6-.9,2-1,2.4-2.8-4.6-2.8-13.1,2.4-16.4,0l.5-1.1c-40.2,3.1-81.4,17.2-118.5,32.3-16.3,6.9-49,23.7-61.7,35.4-.2,0-.5,0-.7,0-3.7,1.4-7.4,5.9-10.6,8.3-10.3,8-20.7,16.4-30,25.6-18.2,18-43.2,48.8-53.3,71.8l2-.2.7,1c-.7,3.9-3.4,7.7-5.2,11.2-1.3,2.6-3,4.9-2,7.7-3.4,10.7-8.2,20.3-10.8,31.3-1.5,4.5-2.3,9.3-3.3,13.9v4.8h-15.4Z"/>
    <path class="cls-2" d="M1567.8,1075.2l-.7-4.1-1.4,1.3c-.8-1.1-.7-1.1-.5-2.4.7-4.3,1.9-8.6,3-12.8,1.2,1.3,2.4,2.4,2.9,4.1-1.5,4.5-2.3,9.3-3.3,13.9Z"/>
    <path class="cls-20" d="M1568.3,1057.2c2.2-14.5,10.7-34.2,18.2-46.9l2-.2.7,1c-.7,3.9-3.4,7.7-5.2,11.2-1.3,2.6-3,4.9-2,7.7-3.4,10.7-8.2,20.3-10.8,31.3-.5-1.7-1.7-2.8-2.9-4.1Z"/>
    <path class="cls-15" d="M1875.1,842.4v-.5c0,0-1.4.4-1.4.4l2,.5h-2.4c0,0-.3-1.1-.3-1.1.6-.3,1.2-.6,1.8-1,1.6-.9,2-1,2.4-2.8-4.6-2.8-13.1,2.4-16.4,0l.5-1.1c19.9-2,38.8-2.8,58.8-1.8v6.2c-5.7.7-11.3-.7-17,0-9.3,0-18.6.4-27.9,1.3Z"/>
    <path class="cls-12" d="M1908.3,838.7c-1.8-.4-3.6-.7-5.5-.9l-.8-1.5c2.7,0,11.6-.6,13.7.7-2.6,1.1-4.5,1.8-7.4,1.7Z"/>
    <path class="cls-20" d="M1908.3,838.7c-4.2,0-14,1.3-17.3-1.3,0,0-.2-.2-.3-.2-1.1,0-2,0-3.1.2l-.8.2-.3-1c3.5-.2,11.8-1.8,14.8-.7.3.1.5.2.8.3l.8,1.5c1.8.3,3.7.6,5.5.9Z"/>
  </g>
  <g class="cls-23">
    <path class="cls-8" d="M67.3,491.7c4.7-3.4,9.5-6.7,14.1-10.1-2.3-5.8-5.1-11.8-6.7-17.8-7.2-15.4-12.6-32.3-18.7-48.2-6.1-15.8-13.7-31.9-18.5-48-3.9-9.6-8.6-19.6-11.3-29.6-7.1-4.2-17.8-4.9-26.2-5.5v3.2c14.1,32.6,28.4,65.1,42.8,97.6,8.4,19,18,38.8,24.5,58.5Z"/>
    <path class="cls-8" d="M58.9,495.8c.5-2.2,0-3.4-.6-5.6-2.9-4.5-5.1-11.3-7.2-16.4-4.7-11.2-9.4-22.4-14.2-33.5-11.9-27.3-25.2-54.5-36.9-82v50.1c16.2,31.5,32,63.3,47.4,95.2,3.9-2.4,8.7-4.2,11.6-7.8Z"/>
    <path class="cls-8" d="M423.6,122.8c-3.4-.7-9.4,3.4-12.2,5.3-1.9,1.2-3.7,2.6-5.5,4,.2,1.5,1.2,2.1,2.4,3,.6.4,1.2.8,1.8,1.2,6.4,3.6,12.8,7.3,19.1,11l-2-9c-1-4.3-1.9-8.5-2.6-12.8l-1.1-2.6Z"/>
    <path class="cls-8" d="M425.1,173.9c3,2.3,8.1,5.7,11.9,6.5-1.8-4.7-3.2-10.4-3.8-15.4-.5-3.2-.9-6.6-3.4-9-11-5.5-21.6-11.8-32.2-18-5.5,2.2-11.4,7.4-16,11.2,14,8.7,28.8,17.3,43.6,24.7Z"/>
    <path class="cls-8" d="M374.9,153.9c-5.2,3.2-9.8,7-14.5,10.9,11,7.6,22.5,14.5,33.9,21.5,6.4,4.6,41.7,28.1,48.2,30.2l-.3-.8h.7c-.4-7.9-3.2-16.3-2.9-24.1,0-.1,0-.2,0-.4-7.1-2.6-13.8-7.1-20.2-11.1-14.8-9-30-17.5-45-26.2Z"/>
    <path class="cls-8" d="M160.2,406.7c-.6-3.3-1.5-6.6-2.3-9.9-1.8-4-3.2-5-7-6.8-5.8-3.2-11.7-6.3-17.3-9.7,3.1,8.8,6.6,17.6,9.4,26.5,2.1,4.3,3.5,9.4,5.2,13.9,4.1-4.6,8.1-9.2,11.9-13.9Z"/>
    <path class="cls-8" d="M39.3,507.2l-.6-2.4c-11.5-22.1-22.2-44.9-33.2-67.2-1.7-2.3-3.6-5.6-5.5-9.3v38.7c9,15.9,17.6,32.2,27.2,47.8,3.5-1.8,10-4.2,12.1-7.6Z"/>
    <path class="cls-8" d="M130.2,440.2c3.5-3.6,10-8.8,9.9-13.9-4.9-17.4-11.4-34.6-17.5-51.7-6.4-3.6-12.9-7-19.4-10.3,5.7,22.5,15.1,43.8,21.4,66.1l4.2,11.2c.5-.5,1-1,1.4-1.4Z"/>
    <path class="cls-8" d="M17.7,518.7c.7-2.7-.3-3.8-1.4-6.2-5.5-9.5-10.9-19.1-16.3-28.7v30.1c2.3,3.4,4.4,7.1,6.5,10.3,3.4-1.3,9-2.5,11.1-5.4Z"/>
    <path class="cls-8" d="M425.2,58.2c9.4,5.7,29.1,19.3,35.8,27.7.6-.8,3.2-1.4,4.3-1.8,4-2.5,8.3-4.5,12.5-6.6-2.7-4.5-39.6-33.2-47.5-39.7l-6.8-4.9c0,8.4.7,16.9,1.7,25.2Z"/>
    <path class="cls-8" d="M315.9,345.3c-8.4-8.6-16.3-19.6-23.2-29.4-4.7-4.9-8.8-10.7-13-15.9-6.1-7.5-12.4-14.9-18.1-22.6-1.9,4.2-7.1,9.3-7.8,13.5,18.3,24.3,34.8,50.3,52.1,75.3l26.2,37.8c4.3,6.2,9.1,12.3,13,18.8l2.2,1.1c5.8-.2,19.4-2.9,23.7-6.6-7-8.2-13.2-17.6-19.8-26.2-11.8-15.2-24-30.2-35.3-45.8Z"/>
    <path class="cls-8" d="M248.8,296.8c-2.1,3.5-4.4,6.9-6.7,10.2-.7,1.5-2,3.2-1.5,4.9,2.8,8.4,13.2,21.1,18.1,29.1,17.6,28.5,34.6,57.2,51.2,86.3l-.4.6c.1,0,.3,0,.5,0,3.3-.4,10,.6,12.6-.9,4.2.7,9.1-.5,13.5-.5l.4-.7c-4.8-10.8-18.8-28.4-26.1-39.1-20.3-30-40-60.8-61.5-89.9Z"/>
    <path class="cls-8" d="M341.2,182.2c9.4,5.4,18.3,12.5,27.2,18.8l52.9,37.8c8.5,6,17.6,13.4,26.9,18,.8-6-1.6-24.1-3.9-29.6-11.4-5.9-22.4-13.9-33.2-20.9-19-12.2-38.1-24.1-56.9-36.6-2.6,2.6-5.3,4.9-8.2,7.2-1.7,1.7-3.4,3.2-4.8,5.2Z"/>
    <path class="cls-8" d="M119.1,439.9c-10.5-26.7-17.1-54.9-28.3-81.4l-22-9.6c5.1,12.8,9.3,26,13.9,39,8.3,24.1,16.8,48.1,25.6,72,4.5-3.7,8.8-7.6,13.1-11.4-1-2.8-1.7-5.6-2.4-8.5Z"/>
    <path class="cls-8" d="M390.9,389c-8.5-9.6-17.9-18.9-25.9-28.9-7.6-6.2-17.3-19.5-24.3-27.3-21.9-24.5-43.6-49.5-66.4-73.2l-8.5,12.1c9.7,12,112.6,141.7,112.9,142,1.2,0,2.4-.3,3.6-.7,5.8-2.1,15.4-6.9,18-12.4-3.4-2.9-6.4-8-9.5-11.4Z"/>
    <path class="cls-8" d="M430.7,292.2c-4.3-1.9-63.5-48.2-67.4-52.6-3.3-2.4-6.5-4.7-9.6-7.3-11.6-9.2-24.4-18.2-35.1-28.4-3.6,4.1-7.2,8.3-11,12.2,21.3,18.7,42.4,37.6,63.4,56.6,10.4,9.4,21.2,18.7,31.3,28.5l.8.8c3.5,2.9,6.7,6.1,10,9.3,5.3,4.3,10.3,9.3,15.1,14.1,4.2,3.2,7.8,7.3,12.1,10.6l1.5-.3c.6-.6.9-1.1,1.2-2,2-6,7-22.5,4.3-27.9-2.8-1.8-5.1-4.1-7.5-6.5-3.2-1.3-6.7-4.6-9.1-7.2Z"/>
    <path class="cls-8" d="M324.6,198l.3,1.6c4.5,2.7,8.7,6.8,12.8,10.1l27,21.7c23.4,18.9,47.3,37,71.1,55.4,3.6,2.8,7.2,5.6,10.6,8.6l1.7.7.9-.9c.8-7,1.3-15,.4-22,.5-2.1.4-3.8.3-6-4.8-3-9.8-5.6-14.5-8.9-12.5-8.7-24.6-18.2-37.1-27.1-20.7-14.6-41.8-29-62.1-44.3-3.7,1.4-8.9,7.8-11.3,10.9Z"/>
    <path class="cls-8" d="M379.8,331.4c-31-29.7-60-61.5-91-91.3-3.2,4.2-7.3,8.6-9.9,13.2l52.9,58.6c11.6,12.8,23.9,25.4,34.5,38.9,14,14.2,26.6,29.8,39.8,44.7,1.4-.3,2.6-.6,3.8-1.6,4.8-3.7,13.4-11.7,13.9-17.7-11.3-11.8-23.4-23-34.1-35.2-3.7-2.5-6.8-6.5-9.8-9.7Z"/>
    <path class="cls-8" d="M401.4,310c-2.4-1.4-4.2-3.5-6-5.6-8.5-4.9-18.2-15.9-25.5-22.7-13.7-12.5-27.4-24.9-41.3-37.2l-1.6-1.8c-3.3-2.8-21.6-20.3-24.3-20.5l-1.8,2.3c-2.5,3-5.4,6.2-7.5,9.5,31.9,32.3,64,64.5,96.3,96.4,12.8,12.7,25.2,26,38.4,38.3,1.7-.7,2.3-1.1,3.2-2.6,3.2-4.9,8.5-15.4,7.4-21.3-9.9-9.1-29.7-25.5-37.4-34.9Z"/>
    <path class="cls-8" d="M88.1,476.7l12.8-10.1c-2.3-7.3-6.1-16-6.8-23.4-.5-.6-33.2-90.6-35-97.8-8-2.9-16.1-6-24.5-7.1l.8,1.9c18.6,45.1,35.2,91,52.8,136.6Z"/>
    <path class="cls-8" d="M221.8,339.4c-3.3,5.4-6.9,10.7-9.5,16.5,3.6,7.5,19.4,39.7,20.2,45.2,1.8,3.5,3.4,6.8,4.1,10.8,6.5,3.7,16.3,6.1,23.7,7.5l2.8.7c-3.2-8.9-9-18-13.3-26.4l-28-54.2Z"/>
    <path class="cls-8" d="M429.5,83.3c1,5.4,2.1,10.8,3.4,16.2,5-2.5,17.3-7,20.7-10.7-8.8-6.9-17.9-13.4-26.9-20,1,4.8,2,9.7,2.8,14.5Z"/>
    <path class="cls-8" d="M235.1,318.6l-8.7,13.7c10.8,20.4,21.8,40.8,32.3,61.3,4.5,8.9,10.2,18.3,13.4,27.7,5,1.9,10.6,3.3,16,3.6,2.9.6,10,2.5,12.8,1.7-14.7-25.5-29.7-50.7-45.2-75.7-6.7-10.8-13.2-22-20.6-32.4Z"/>
    <path class="cls-8" d="M207.6,362.9c-3.4,5.4-6.8,10.8-10.1,16.3,1.2,3.3,2.7,6.7,3.4,10.1,1.6,4.1,3,8.9,5.2,12.6,6.7.5,14,7,20.7,6.4-.8-3.2-2.2-6.2-3.4-9.3-5.5-11.9-9.8-24.5-15.8-36.1Z"/>
    <path class="cls-2" d="M394.5,419.8l-2.6-1.2-1.5.9c-1.7-.5-2.1-.9-3.8-.4.8,1.9,1.3,2.4.7,4.4-1.5.9-3.4,1.8-4.7,2.9.9,0,1.7,0,2.6-.2,4-1,10.7-4.1,12.8-7.7-.3,0-.5,0-.8.1-1.1.1-1.8.6-2.8,1.2Z"/>
    <path class="cls-19" d="M456.8,297c0,2.5,0,2.5-1.7,4.4l-1.2-.2c-.2-1.1-.2-1.7.1-2.8,1-1.8,3.1-1.9,4.1-3.8l-.5-.5-2.6.7-.5-.5,2.5-2.9-1.2-1.2,1.1.3c-3.2-6.4-.5-10.5-2.3-15-.7,0-1.3.1-1.9.3-.2,0-.3,0-.5.1l-3-2.7c.9,7,.4,15-.4,22l-.9.9c.4,2.2,1.5,7.1.1,8.9-.3.4-.5.5-.9.8,2.6,5.4-2.3,21.9-4.3,27.9-.3.8-.6,1.4-1.2,2-.1,2.5-.4,6.9-2.4,8.6-.2.2-.4.3-.6.5,1.1,5.8-4.2,16.4-7.4,21.3-1,1.5-1.6,2-3.2,2.6,0,2.1,0,3.6-1.5,5.2-.8.9-1.9,1.7-2.9,2.4-.5,5.9-9.1,13.9-13.9,17.7-1.2.9-2.3,1.3-3.8,1.6-.5,1.8-.7,3-2.4,4.1-.9.6-2.3.8-3.3.8-2.6,5.6-12.2,10.4-18,12.4-1.2.4-2.4.6-3.6.7-2.3,2.5-4.6,3.2-7.9,3.8-4.4,3.7-17.9,6.5-23.7,6.6l-2.2-1.1c-1.9,2.2-3,2.7-5.9,2.9-.9,0-1.7,0-2.6.1l-.4.7-.4.3c-1,.8-1.8,1.5-2.6,2.5-1,1.1-2,1.6-3.4,2.1-2.8-.1-5.2-2.6-7.1-4.4-2.7,1.5-9.3.5-12.6.9-.2,0-.3,0-.5,0l.4-.6c-16.6-29.1-33.6-57.8-51.2-86.3-4.9-8-15.2-20.7-18.1-29.1-.6-1.7.7-3.4,1.5-4.9-.2,0-.5.1-.7.2-4,1.1-7.3,6.2-11.8,5.6l-.9-1.5c-.3,0-.5,0-.8.1-.9.1-1.5,0-2.4-.3.1-4.4,4.4-7.1,4.2-11.2-19.6,28.6-35.1,59.9-55.1,88.4-49.9-27.4-102.3-58.9-159.7-66.3-5-.6-9.9-.9-14.9-1v10.4c9.4,0,18.8,1,27.5,4.1,2,1.3,4.8,1.7,7,2.8,8.5,1.1,16.5,4.3,24.5,7.1,1.9,7.2,34.5,97.2,35,97.8,2.4,4.8,5.2,19.6,8.9,22.1.2-.1.3-.2.5-.3,1.7-1.2,2.3-4.9,2.6-6.9v-.7c0,0,1.2,2.8,1.2,2.8l1.1-.3c-8.8-23.9-17.3-47.9-25.6-72-4.6-13-8.8-26.2-13.9-39l22,9.6c11.1,26.5,17.8,54.7,28.3,81.4.4.9.8,1.9,1.2,2.8,1,2.3,1.6,2.8,3.8,3.6l1.4-.7c2.5-5.3-1.1-9.3-1-14.6v-.7c-6.2-22.3-15.7-43.6-21.4-66.1,6.6,3.3,13.1,6.7,19.4,10.3,6.1,17.1,12.6,34.2,17.5,51.7l1.7.8c2.1-.6,2.5-.7,3.6-2.7,2.1-3.9-1.8-13.2-3.1-17.2l.5.3.4-.7c-2.8-8.9-6.3-17.7-9.4-26.5,5.6,3.5,11.5,6.6,17.3,9.7l.5-.6c2-.4,9.4,3.3,11.4,4.4,2,1.1,3.6,2.9,4.3,5.1-.4,2.3-1.9,3.6-3.5,5.2-27,35.6-61.3,66.6-99.5,91-.1.2-.2.2-.4.5h-.2c-19.9,12.6-40.9,23.5-62.4,32.3-.4.2-.7.3-1.1.5v11.5s0,0,0,0l1.1-3.6c2,0,3.7,2.1,5.2,3.3l2-.9,1.8-2.5c0-.7,0-1.4,0-2.2.4-3,1.8-4.8,4-6.7l.9.6,1.9-.8c-.3,1.6-.5,2.5.3,3.9,2.1-.1,4,.2,6.1.5l.6-.3c1.5-2.3,4.9-3.9,5.8-6.4-.7-1.3-1.3-2.4-1.7-3.9l1.2-.6,1.3,1c.5,2.1,1.3,3.2,2.8,4.7l.5.5c4.4-2.3,8.7-4.6,13.1-6.9,1.2-2.1,1.3-3.5,1.2-5.9,0-1.3,1.1-2.8,1.8-4,.3-1.5,1.2-3,2.3-4.1,1.1-1.1,1.2-1.1,2.7-1.2l.9,2,2.8-1c.7.6,1,.8,1.9,1,.1-1.6.2-2.8.9-4.2,0-.1.1-.2.2-.3l.6-1.2-1.8-1,.7-.5c2.5,0,4,0,6.2,1.1.3,2-1.5,4.1-2.5,5.9,3.4-1.7,13.9-8.1,15.7-11,1.2-1.9.4-3.2-.2-5.1,2.3.9,3.2,3.5,5.3,4.9.1,0,.2.2.4.2,31.3-20.7,72.9-60.8,94.6-91,5.1,3,35.6,17.1,39.9,16.1,2.7-.4,3-1.1,4.7-3.1,5.7,1.6,20.4,9.3,25.2,12.6,3.9,2.7,10.6,3.7,15.2,4.7,26.6,6.1,55.3,8.4,82.4,3.6,6.6-1.1,31.3-6.9,34.7-11.7,1.3-1.1,3.2-2,4.7-2.9.6-2,0-2.5-.7-4.4-1.8,1-2.2,1.7-4.4,1.2v-1.4c.8-1.2,1.3-1.5,2.8-1.9,1.1-.3,1.7-.4,2.6-1.2l-.8-1.7,1.4-.7c.8.2,1.8.3,2.6.7,1.6.8,2.1,1.8,2.5,3.4l-1.5,1.1,2.6,1.2c.9-.6,1.6-1,2.8-1.2.3,0,.5,0,.8-.1.4,0,.7,0,1.1,0,3.9-.6,8.2-4.6,10.5-7.6,1-1.7,4.4-3.7,6-5.2,2-2,2.1-3.2,2.1-5.9l-.7-.7c1.1-2.4,3.4-4,5.4-5.6l.6-1.6c-.4-.6-.5-1-1.2-1.4-.6-.3-.7-.5-1-1.1,3.2-4.7,6.7-9.2,10.2-13.7.6.9,1,1.5,1.2,2.6h1.1c0,0,.5-1,.5-1l1.7-1.1-2.4-1.7c.8-.5,1.7-.4,2.6-.5.9,1,1.4,1.5,2.7,1.9l2.2-1.3c.7-.3,1-.5,1.5-1.1,11.6-15.4,22.2-60.4,20.2-79.8-1.6,2.2-2.8,2.7-5.3,3.3ZM36.2,331.9l.9-1,.6.3v.8s-1.4-.2-1.4-.2ZM116.5,464.8c.6-1.3,1.3-2.4,2.2-3.6l1.5.8v.5c-1.1,1.6-1.7,1.7-3.6,2.3ZM154.2,427.1c-.7-1.1-1.3-2-1.8-3.2l1.3-.3c1.3.4,1.7.4,2.6,1.6l-2.1,2ZM208.3,350.3c-.9-1.1-1-1.7-1.2-3,1.1,1.3,1.1,1.4,1.2,3ZM198,407.4c-1.6-.8-2.8-2.8-3.9-4.2l-1.2-.3c-.5,1.9-.6,3.9-2.2,5.1l-1-.4c-.3-1.4-.7-2.7-1.2-4-1.8.3-1.9.5-3.2,1.8-1.2-1.3-2.3-2.5-3.3-4h-.9c0,0,1.9-1.5,1.9-1.5,9.2,1.2,12.1-.9,19.6,6.1l.5,1.5c-1.7.7-3.4.8-5.1,0ZM252.8,426.4l-2.1-1.1-.4-.7,2.7-.5.6,1.8-.9.6ZM260.3,419.3c-1.3,1.4-2,2.6-4,2.8-7.9.7-21-8.8-28.5-11.7l-1-2c-6.7.6-14-6-20.7-6.4l-.7.7c-4.2-1.6-7.8-3.4-11.6-5.8-1.6.7-3.3,1.3-4.9,1.9l-1.4-1.4c-.7-1.8-1-3.3-.1-5.1.8-1.8,2-2.8,3.8-3.5,1.6,1.3,2.4,4.4,3.5,6.1,1,1.6,1.8,2.3,3.7,2.7,3.2-2.5.9-5.3,2.6-8.3-.7-3.4-2.2-6.8-3.4-10.1,3.3-5.4,6.7-10.9,10.1-16.3,6,11.7,10.3,24.2,15.8,36.1,2.2,2.5,4.9,6.5,8.2,7.3,1.1-1.8.9-3.3.9-5.3-.8-5.5-16.7-37.7-20.2-45.2,2.7-5.7,6.2-11.1,9.5-16.5l28,54.2c4.3,8.4,10.1,17.5,13.3,26.4l-2.8-.7ZM288.1,425c-5.4-.3-10.9-1.7-16-3.6-3.2-9.4-8.9-18.9-13.4-27.7-10.5-20.6-21.5-40.9-32.3-61.3l8.7-13.7c7.4,10.4,13.9,21.6,20.6,32.4,15.5,25,30.6,50.2,45.2,75.7-2.8.8-9.9-1.1-12.8-1.7ZM323.8,434.6l-.7-.5v-2.5c.6.7,1.2,1.5,1.8,2.3l-1.1.7ZM339.1,430.9l-1.6-1.1v-1.9c0,0,2.1,2.2,2.1,2.2l-.5.8ZM451.3,336.9c0,0,0,0,0-.1-.4-3.1,1.9-6.4,3.3-9,.7.8,1.3,1.6,1.9,2.6-.8,3.4-2.5,4.6-5.1,6.6Z"/>
    <polygon class="cls-6" points="181.1 401.3 182 401.3 183.1 399.8 181.1 401.3"/>
    <path class="cls-2" d="M207.1,347.2c.2,1.4.3,1.9,1.2,3,0-1.7-.1-1.7-1.2-3Z"/>
    <polygon class="cls-6" points="37.1 331 36.2 331.9 37.7 332.1 37.6 331.3 37.1 331"/>
    <polygon class="cls-4" points="337.6 429.8 339.1 430.9 339.7 430.1 337.7 427.8 337.6 429.8"/>
    <path class="cls-4" d="M323,434.1l.7.5,1.1-.7c-.6-.8-1.2-1.6-1.9-2.3v2.5Z"/>
    <polygon class="cls-6" points="250.3 424.6 250.7 425.4 252.8 426.4 253.7 425.9 253.1 424.1 250.3 424.6"/>
    <path class="cls-6" d="M453.9,301.2l1.2.2c1.6-1.9,1.6-1.9,1.7-4.4-.9.6-1.6,1.4-2.7,1.4-.3,1.1-.3,1.7-.1,2.8Z"/>
    <path class="cls-18" d="M118.6,461.2c-.9,1.2-1.5,2.3-2.2,3.6,1.9-.7,2.5-.8,3.7-2.3v-.5c0,0-1.6-.8-1.6-.8Z"/>
    <path class="cls-4" d="M153.7,423.6l-1.3.3c.5,1.2,1,2.2,1.8,3.2l2.1-2c-.8-1.2-1.2-1.1-2.6-1.6Z"/>
    <path class="cls-4" d="M422.4,393.5c-2,1.7-4.3,3.2-5.4,5.6l.7.7c.9-.4,1.8-.8,2.5-1.4,1.6-1.2,1.9-3.1,2.2-5Z"/>
    <path class="cls-4" d="M53.3,510.7l.9-.4,1.6-3.7-.9-2c-1.5,0-1.6.1-2.7,1.2-1.1,1-2,2.6-2.3,4.1l.3.6,3.1.3Z"/>
    <path class="cls-4" d="M451.2,336.7s0,0,0,.1c2.6-2,4.4-3.3,5.1-6.6-.6-.9-1.1-1.7-1.9-2.6-1.4,2.6-3.7,6-3.3,9Z"/>
    <path class="cls-6" d="M30.5,521.4l-1.3-1-1.2.6c.4,1.4,1,2.6,1.7,3.9-.9,2.5-4.2,4.1-5.8,6.4,3.3-1.3,6.6-3.1,9.8-4.7l-.5-.5c-1.4-1.5-2.3-2.6-2.8-4.7Z"/>
    <path class="cls-6" d="M322.6,427c2,1.8,4.4,4.3,7.1,4.4,1.4-.5,2.4-1,3.4-2.1.8-1,1.6-1.7,2.6-2.5l.4-.3c-4.3,0-9.2,1.2-13.5.5Z"/>
    <path class="cls-4" d="M390.4,419.5l1.5-.9,1.5-1.1c-.5-1.6-1-2.5-2.5-3.4-.8-.4-1.8-.6-2.6-.7l-1.4.7.8,1.7c-.9.8-1.4.9-2.6,1.2-1.5.4-1.9.7-2.9,1.9v1.4c2.2.6,2.7-.2,4.5-1.2,1.7-.6,2.1-.2,3.8.4Z"/>
    <path class="cls-6" d="M17.3,531.1c-.7-1.5-.6-2.3-.3-3.9l-1.9.8-.9-.6c-2.2,1.9-3.6,3.7-4,6.7,0,.7,0,1.4,0,2.2l-1.8,2.5c5.1-2.1,10-4.6,15-7.1-2.1-.3-4-.6-6.1-.5Z"/>
    <path class="cls-6" d="M0,539.9s0,0,0,0v2.3c2.1-.8,4.2-1.7,6.3-2.5-1.5-1.3-3.2-3.3-5.2-3.3l-1.1,3.6Z"/>
    <path class="cls-4" d="M433.6,377.3l-.5.9h-1.1c-.1-1.1-.5-1.6-1.2-2.5-3.5,4.5-6.9,9-10.2,13.7.3.6.5.8,1,1.1.6.4.8.8,1.2,1.4,1-.7,1.8-1.5,2.6-2.3,4-3.8,7.9-6.5,8-12.4Z"/>
    <path class="cls-2" d="M158,396.8c2.4,2.2,2.5,6,5.7,7.3,1.6-1.6,3.1-2.9,3.5-5.2-.6-2.2-2.2-4-4.3-5.1-2-1.1-9.4-4.8-11.4-4.4l-.5.6c3.8,1.9,5.2,2.9,7,6.8Z"/>
    <path class="cls-18" d="M183.1,399.8l-1.1,1.5c.9,1.5,2,2.8,3.3,4,1.3-1.2,1.4-1.5,3.2-1.8.5,1.3.9,2.7,1.2,4l1,.4c1.7-1.2,1.7-3.1,2.2-5.1l1.2.3c1,1.4,2.3,3.4,3.9,4.2,1.7.9,3.4.7,5.1,0l-.5-1.5c-7.5-7-10.4-4.9-19.6-6.1Z"/>
    <path class="cls-6" d="M220.5,420.4c.5.4,1,.7,1.5,1.1,4.2,2.6,24.3,9.4,28.4,8.4-4.8-3.3-19.5-11-25.2-12.6-1.7,2-1.9,2.7-4.7,3.1Z"/>
    <path class="cls-6" d="M198.3,397.5c-1.8-.4-2.7-1-3.7-2.7-1.1-1.8-1.9-4.8-3.5-6.1-1.8.6-3,1.7-3.8,3.5-.9,1.8-.6,3.3.1,5.1l1.4,1.4c1.7-.6,3.3-1.2,4.9-1.9,3.8,2.4,7.4,4.2,11.6,5.8l.7-.7c-2.2-3.7-3.6-8.5-5.2-12.6-1.7,2.9.6,5.8-2.6,8.3Z"/>
    <path class="cls-6" d="M232.6,401c0,2.1.2,3.5-.9,5.3-3.3-.8-6.1-4.8-8.2-7.3,1.2,3.1,2.5,6.1,3.4,9.3l1,2c7.6,2.9,20.6,12.3,28.5,11.7,2-.2,2.7-1.4,4-2.8-7.4-1.4-17.2-3.8-23.7-7.5-.6-3.9-2.3-7.2-4.1-10.8Z"/>
    <path class="cls-6" d="M435.5,374c-.9,0-1.8,0-2.6.5l2.4,1.7-1.7,1.1c0,5.9-4,8.5-8,12.4-.9.8-1.7,1.6-2.6,2.3l-.6,1.6c-.2,1.9-.6,3.7-2.2,5-.7.6-1.7,1-2.5,1.4,0,2.7-.1,3.9-2.1,5.9-1.5,1.5-5,3.5-6,5.2,1.3,0,2.4-.5,3.4-1.3,8-6.1,26-25.2,27.4-35.1l-2.2,1.3c-1.3-.4-1.8-.9-2.7-1.9Z"/>
    <path class="cls-2" d="M80.3,490.3c.6,1.9,1.3,3.2.2,5.1-1.8,2.9-12.3,9.4-15.7,11,1-1.8,2.8-3.9,2.5-5.9-2.3-1.1-3.8-1.2-6.2-1.1l-.7.5,1.8,1-.6,1.2,2,1.6c.2,2,0,1.9-1.2,3.4l-2.5.4-1.4-1.9-2.8,1-1.6,3.7-.9.4c-.6,1.9-.4,2.2-2.3,3.2l-1-1,.2-2.5-.3-.6c-.7,1.2-1.8,2.7-1.8,4,0,2.4,0,3.8-1.2,5.9,13.6-6.7,26.6-15.6,39-24.3-.1,0-.2-.2-.4-.2-2.1-1.4-3-4-5.3-4.9Z"/>
    <path class="cls-19" d="M50,512.9l1,1c1.9-1,1.7-1.3,2.3-3.2l-3.1-.3-.2,2.5Z"/>
    <path class="cls-6" d="M62.4,507.1c1.3-1.5,1.4-1.4,1.2-3.4l-2-1.6c0,.1-.1.2-.2.3-.7,1.4-.8,2.7-.9,4.2-.9-.2-1.3-.4-1.9-1l1.4,1.9,2.5-.4Z"/>
    <path class="cls-18" d="M358.8,344c.6,1.6,1.6,2.7,2.6,4l-.9,1.8.3-1.7-3.5-2.1-.3.7c2.2,4.2,6.1,9.5,7.9,13.3,8,10,17.4,19.3,25.9,28.9,3.1,3.5,6.1,8.5,9.5,11.4,1,0,2.5-.2,3.3-.8,1.6-1.1,1.9-2.3,2.4-4.1-13.2-15-25.8-30.5-39.8-44.7-2.9-.4-5.6-4.6-7.6-6.8Z"/>
    <path class="cls-4" d="M365,360c-1.7-3.8-5.7-9.1-7.9-13.3l.3-.7,3.5,2.1-.3,1.7.9-1.8c-1.1-1.3-2-2.4-2.6-4,2,2.2,4.7,6.5,7.6,6.8-10.6-13.6-22.9-26.2-34.5-38.9l-52.9-58.6c-1.5,2-3.2,4.1-4.6,6.2,22.7,23.7,44.5,48.7,66.4,73.2,7,7.9,16.7,21.1,24.3,27.3Z"/>
    <path class="cls-4" d="M389.7,330.4c-32.3-32-64.4-64.1-96.3-96.4-1.6,2-3.1,4-4.6,6.1,31,29.8,60,61.6,91,91.3,1.9.3,4.2-.2,6.1-.4l.6.8c-.9.9-1.4,1.4-1.8,2.7,1.9,2.1,3.6,4.2,5,6.6,10.7,12.2,22.8,23.5,34.1,35.2,1-.7,2.1-1.5,2.9-2.4,1.5-1.6,1.6-3.1,1.5-5.2-13.3-12.3-25.6-25.6-38.4-38.3ZM300.4,244.7l-4.3.8c-.6-.8-.6-1.1-.7-2.1,1.2-1.4,2.3-1.7,4-2.3.7,1.4,1.3,2,1,3.6Z"/>
    <path class="cls-18" d="M295.3,243.4c.1,1,0,1.3.7,2.1l4.3-.8c.3-1.6-.3-2.2-1-3.6-1.8.5-2.8.8-4,2.3Z"/>
    <path class="cls-19" d="M389.7,341.1c-1.4-2.4-3.2-4.5-5-6.6.4-1.3.9-1.8,1.8-2.7l-.6-.8c-1.9.2-4.2.7-6.1.4,3,3.2,6.1,7.2,9.8,9.7Z"/>
    <path class="cls-4" d="M428.2,325.4c-3.2-.3-4.8-.2-6.9-2.8-2.8-3.5-5.7-7.6-8.2-11.3-3.3-3.1-6.5-6.4-10-9.3l.9,2.9c-1.3,1.2-1.7,1.4-2.1,3.2,1,0,2-.1,3-.3l.4,1.1c-1.6,1.1-2.1,1-3.9,1.1,7.7,9.3,27.5,25.8,37.4,34.9.2-.2.4-.3.6-.5,2-1.7,2.2-6.1,2.4-8.6l-1.5.3c-4.2-3.3-7.8-7.4-12.1-10.6Z"/>
    <path class="cls-19" d="M428.2,325.4c-4.8-4.9-9.7-9.8-15.1-14.1,2.5,3.7,5.3,7.9,8.2,11.3,2.1,2.6,3.7,2.5,6.9,2.8Z"/>
    <path class="cls-4" d="M275.8,240.8c.6,1.9,1.1,3.2,2.7,4.5l1.1-.2.2-.9-1.2-.8.2-1.1c10.1,1.4,10.9-14.1,19-17.9,1.3-.6,1.7-.3,3,.1l1.8-2.3c2.8.2,21,17.6,24.3,20.5l-3.6-5.3c.7-1.1,1.4-1.2,2.6-1.7,1.6,1.3.9,2.2,1.9,3.3,1,1.1,4.4.9,6,2.6-.2.6-.2,1.1-.8,1.4-1.4.7-2.8,1.1-4.4,1.5,13.9,12.3,27.6,24.7,41.3,37.2,7.3,6.8,17,17.8,25.5,22.7,0-.2,0-.4,0-.6.1-2.5-1.9-4.1-3.3-5.9l.5-1.4c2.3.4,5.2,5.6,8.2,6.8l1.5-2c-10.1-9.8-20.8-19-31.3-28.5-21-19-42.1-37.9-63.4-56.6,3.8-3.9,7.4-8.1,11-12.2,10.7,10.2,23.5,19.1,35.1,28.4,1.7-.8,3.1-1.4,5-1.5l1,1.2c.3,3.4,1.4,5,3.6,7.6,3.9,4.4,63.1,50.6,67.4,52.6l-1.8-3.2.8-1.1c1.4.5,2.7,1.1,4,1.8l.2.7,1.4.4,1.5-1.6-1-2.4c-23.8-18.4-47.7-36.6-71.1-55.4l-27-21.7c-4.1-3.3-8.4-7.4-12.8-10.1h-1.8c-2.6-3.4-2.2-8.9-4.8-11.2-1.9.3-2.7.9-4.1,2.1-.8,2.6-.8,3.9.5,6.4.6,1.2,1.3,2.3,1.9,3.5l-1.8,1.4-1.1-.4c-.5-1.7-.7-3.9-2-5-3.1.5-6.4,6.3-9.2,4.7-9.4,9.6-17.1,20.4-26,30.4,1.1,3,0,6.2-.6,9.2ZM346.3,251.4c.9,1.2,1.7,2.1,2,3.6l-1.9.8-.7-.7.6-3.6ZM309,204.3l.4.5-.9,1.4-.3-.7.9-1.3ZM303.6,213.2v-.8c0,0,1.7-1.2,1.7-1.2l-.2,1.9c-1,1.6-1.6,2.7-3.4,3.6-1.8.9-3.1,2-4.6,3.3-.2-.9-.2-1.9-.3-2.8,1.8-2,4.4-2.9,6.8-4Z"/>
    <polygon class="cls-19" points="309.4 204.9 309 204.3 308.1 205.7 308.5 206.3 309.4 204.9"/>
    <path class="cls-18" d="M348.4,254.9c-.3-1.4-1.2-2.4-2-3.6l-.6,3.6.7.7,1.9-.8Z"/>
    <path class="cls-18" d="M301.7,216.7c1.7-.9,2.4-1.9,3.4-3.6l.2-1.9-1.7,1.2v.8c-2.4,1.1-5,2-6.8,4,0,.9.2,1.9.3,2.8,1.5-1.3,2.8-2.4,4.6-3.3Z"/>
    <path class="cls-19" d="M359.7,232.1l-1-1.2c-1.9.1-3.3.7-5,1.5,3.1,2.6,6.3,5,9.6,7.3-2.2-2.6-3.3-4.2-3.6-7.6Z"/>
    <path class="cls-18" d="M333.1,243c.6-.3.6-.8.8-1.4-1.6-1.7-5.1-1.5-6-2.6-1-1.1-.3-2-1.9-3.3-1.2.5-1.9.6-2.6,1.7l3.6,5.3,1.6,1.8c1.5-.4,2.9-.8,4.4-1.5Z"/>
    <path class="cls-18" d="M401.4,310c1.9-.1,2.4,0,3.9-1.1l-.4-1.1c-1,.2-1.9.3-3,.3.4-1.8.8-2,2.1-3.2l-.9-2.9-.8-.8-1.5,2c-2.9-1.2-5.9-6.4-8.2-6.8l-.5,1.4c1.5,1.8,3.4,3.4,3.3,5.9,0,.2,0,.4,0,.6,1.8,2,3.6,4.2,6,5.6Z"/>
    <path class="cls-18" d="M439.8,299.4l1.2-2c-.3-.2-.6-.5-.8-.8-.6-1.2-.6-2.5-1.7-3.6-.5-.5-.9-2.6-1.7-3.7l-1.5,1.6-1.4-.4-.2-.7c-1.3-.7-2.6-1.3-4-1.8l-.8,1.1,1.8,3.2c2.3,2.6,5.9,5.8,9.1,7.2Z"/>
    <path class="cls-19" d="M440.2,296.6c.2.3.5.6.8.8,1.1.8,2.2,1.2,3.4,1.7-.5-1.5-.7-1.8-.3-3.3l2.3-.3c-3.4-3-7-5.8-10.6-8.6l1,2.4c.8,1.1,1.2,3.2,1.7,3.7,1.1,1,1.1,2.3,1.7,3.6Z"/>
    <path class="cls-4" d="M444,295.8c-.5,1.6-.2,1.8.3,3.3-1.2-.5-2.3-1-3.4-1.7l-1.2,2c2.4,2.3,4.7,4.7,7.5,6.5.4-.3.6-.4.9-.8,1.4-1.8.3-6.7-.1-8.9l-1.7-.7-2.3.3Z"/>
    <path class="cls-4" d="M227.9,311.4c.3,0,.5,0,.8-.1l.9,1.5c4.5.6,7.9-4.5,11.8-5.6.2,0,.5-.1.7-.2,2.3-3.3,4.5-6.8,6.7-10.2,21.5,29.1,41.2,60,61.5,89.9,7.3,10.7,21.3,28.2,26.1,39.1.9,0,1.7,0,2.6-.1,2.9-.2,4-.7,5.9-2.9-3.9-6.4-8.7-12.6-13-18.8l-26.2-37.8c-17.3-25-33.9-51-52.1-75.3l-1.8.4c.8-2.3,0-4.8-.5-7.2,1.1-.5,2.2-.9,3.4-1.3,3.1-1.1,4.1-2.6,5.4-5.5l.3-.7,1.1.8c5.7,7.8,12.1,15.1,18.1,22.6,4.2,5.3,8.3,11.1,13,15.9,7.7,7.2,13.5,18.1,21.7,24.3l2.5-.7,1.3.9.2,1.5-2.5,3.3c11.3,15.6,23.5,30.5,35.3,45.8,6.6,8.5,12.8,18,19.8,26.2,3.3-.6,5.6-1.3,7.9-3.8-.4-.2-103.2-129.9-112.9-142-.8,1.5-1.4,2.4-2.8,3.3,0-.1-.2-.2-.2-.4-.9-1.9.4-6,1-8l2.5-.5c-1.2-1.1-1.9-2.1-2.7-3.5.7-2.8,2.4-3.9,4.3-5.9,1.5-1.5,4.4-4,4.4-6.1l-1.2.3c-.2.2-.8,1-.9,1.2-.5.4-1.3.8-1.9,1.2l-2.7,2.2h-.5c.5-2.3,1.5-3.4,2.9-5l1.1-1.1c-3.9,2.4-7.5,5.5-11.1,8.3-8.4,11-22.1,30.2-28.2,42.3.2,4.1-4.1,6.9-4.2,11.2.9.3,1.5.5,2.4.3ZM239.9,294.1l1.3.7-1.4-.2-1.1-.3,1.1-.3Z"/>
    <polygon class="cls-4" points="241.3 294.8 239.9 294.1 238.9 294.4 239.9 294.6 241.3 294.8"/>
    <path class="cls-4" d="M265.1,255.3h.5c0,0,2.7-2.1,2.7-2.1l-.4-2.8c-1.4,1.6-2.4,2.7-2.9,4.9Z"/>
    <path class="cls-6" d="M260.4,276.6l-.3.7c-1.3,2.9-2.4,4.4-5.4,5.5-1.2.4-2.3.8-3.4,1.3.5,2.3,1.3,4.8.5,7.2l1.8-.4c.8-4.2,5.9-9.3,7.8-13.5l-1.1-.8Z"/>
    <path class="cls-19" d="M318.4,342l-.2-1.5-1.3-.9-2.5.7c-8.2-6.2-14-17.2-21.7-24.3,7,9.8,14.9,20.8,23.2,29.4l2.5-3.3Z"/>
    <path class="cls-19" d="M268,250.4l.4,2.8c.6-.4,1.4-.8,1.9-1.2.2-.1.8-1,.9-1.2l1.2-.3c0,2.1-2.9,4.6-4.4,6.1-1.9,2-3.7,3.1-4.3,5.9.8,1.4,1.5,2.4,2.7,3.5l-2.5.5c-.6,2-1.9,6-1,8,0,.1.2.2.2.4,1.4-.9,2-1.9,2.8-3.3l8.5-12.1c1.3-2.1,3.1-4.2,4.6-6.2,2.6-4.6,6.7-9,9.9-13.2,1.5-2.1,3-4.1,4.6-6.1,2-3.3,5-6.5,7.5-9.5-1.3-.5-1.7-.8-3-.1-8.1,3.8-8.9,19.3-19,17.9l-.2,1.1,1.2.8-.2.9-1.1.2c-1.6-1.3-2.1-2.5-2.7-4.5.6-3,1.7-6.2.6-9.2-6.2,8.6-12.6,17.2-18.5,26,3.6-2.9,7.2-5.9,11.1-8.3l-1.1,1.1Z"/>
    <path class="cls-5" d="M88.1,476.7c-17.5-45.5-34.2-91.4-52.8-136.6.4,7,4.8,15.3,7.5,21.7,5.5,14.3,43.5,109.6,43.4,115.8-.9,1.6-1.6,2.1-3.2,2.9-4.4-3.8-5-11.9-8.4-16.7,1.6,6,4.4,12,6.7,17.8-4.6,3.4-9.4,6.7-14.1,10.1-6.5-19.7-16.1-39.5-24.5-58.5-14.4-32.4-28.7-65-42.8-97.6v3.2c4.7,12.7,10.9,25.2,16.3,37.5,12.9,28.6,25.4,57.4,37.6,86.3,2.9,7,6.7,14,9.1,21.1.9,2.7,2.8,8.2,1.5,10.9-.1.3-.2.4-.3.5,38.2-24.4,72.5-55.5,99.5-91-3.2-1.3-3.3-5.2-5.7-7.3.8,3.3,1.6,6.6,2.3,9.9-3.9,4.7-7.8,9.4-11.9,13.9-1.7-4.5-3.1-9.6-5.2-13.9l-.4.7-.5-.3c1.3,4,5.3,13.3,3.1,17.2-1.1,2-1.4,2.2-3.6,2.7l-1.7-.8c0,5.1-6.4,10.3-9.9,13.9-.5.5-1,1-1.4,1.4l-4.2-11.2v.7c-.1,5.3,3.5,9.3,1,14.6l-1.4.7c-2.2-.8-2.8-1.4-3.8-3.6-.4-.9-.8-1.9-1.2-2.8.7,2.9,1.4,5.7,2.4,8.5-4.3,3.9-8.6,7.8-13.1,11.4l-1.1.3-1.1-2.8v.7c-.4,1.9-1,5.7-2.7,6.9-.2.1-.3.2-.5.3-3.7-2.5-6.5-17.4-8.9-22.1.7,7.5,4.5,16.2,6.8,23.4l-12.8,10.1Z"/>
    <path class="cls-5" d="M26.2,337.9h.4s.9-2.5.9-2.5c-8.8-3.1-18.1-4-27.5-4.1v1.1c8.4.6,19.1,1.3,26.2,5.5Z"/>
    <path class="cls-5" d="M61.9,495.2c-1.6-1.6-2.5-3-3.6-5,.6,2.2,1.2,3.3.6,5.6-2.9,3.6-7.6,5.5-11.6,7.8-15.4-32-31.2-63.7-47.4-95.2v3.1c3.7,7.8,7.5,15.8,12,22.8,4.3,9.4,33.9,65.8,33.1,71-1.4,1.4-1.7,1.2-3.6,1.2-1-.6-2-1-2.9-1.8l.6,2.4c-2,3.4-8.5,5.8-12.1,7.6-9.5-15.6-18.2-31.8-27.2-47.8v2.6c3.4,5.8,6.7,11.7,10.1,17.5,4.5,7.8,13.1,19.6,15.2,27.9-1,1.8-3.1,1.9-5,2.5-1.9-.9-3-3.3-4.1-5.1,1.1,2.5,2.1,3.6,1.4,6.2-2.2,2.9-7.8,4.2-11.1,5.4-2.1-3.2-4.2-6.9-6.5-10.3v2.3c2.6,3.6,5.1,7.2,4,9.8-1.2.7-1.3,1-2.7.7-.5-.1-.9-.3-1.3-.5v2.3c.4-.2.7-.3,1.1-.5,21.5-8.8,42.5-19.7,62.4-32.4l-2.1-1,.4.6Z"/>
    <path class="cls-19" d="M8.9,439.5l-.6.2-2.8-2.1c11,22.4,21.6,45.2,33.2,67.2.9.8,1.9,1.3,2.9,1.8,1.9,0,2.2.2,3.6-1.2.8-5.2-28.8-61.6-33.1-71-.1.1-.3.3-.4.4-1.5,1.6-2.1,2.8-2.8,4.8Z"/>
    <path class="cls-4" d="M8.3,439.7l.6-.2c.7-2,1.3-3.2,2.8-4.8.1-.1.3-.3.4-.4-4.5-7-8.3-15-12-22.8v16.7c1.9,3.7,3.8,7,5.5,9.3l2.8,2.1Z"/>
    <path class="cls-19" d="M74.7,463.8c3.3,4.8,4,12.9,8.4,16.7,1.6-.8,2.3-1.4,3.2-2.9,0-6.2-37.9-101.5-43.4-115.8-2.7,2.3-1.9,5.1-4,6l-1.4-.3c4.8,16.2,12.4,32.3,18.5,48,6.2,15.9,11.6,32.8,18.7,48.2Z"/>
    <path class="cls-4" d="M4,526c1.1-2.7-1.4-6.3-4-9.8v10c.4.2.9.4,1.3.5,1.4.3,1.5,0,2.7-.7Z"/>
    <path class="cls-19" d="M63,483.7c-2.4-7.1-6.2-14.2-9.1-21.1-12.1-28.9-24.7-57.7-37.6-86.3-5.4-12.3-11.6-24.8-16.3-37.5v19.6c11.7,27.6,24.9,54.7,36.9,82,4.8,11.1,9.6,22.3,14.2,33.5,2.1,5.1,4.3,11.8,7.2,16.4,1,2,1.9,3.4,3.6,5l-.4-.6,2.1,1h.2c.2-.2.3-.3.4-.4,0-.1.1-.3.3-.5,1.3-2.7-.6-8.2-1.5-10.9Z"/>
    <path class="cls-5" d="M20.3,517.5c1.9-.6,3.9-.7,5-2.5-2.1-8.3-10.7-20.2-15.2-27.9-3.4-5.8-6.7-11.7-10.1-17.5v14.1c5.3,9.6,10.8,19.2,16.3,28.7,1.1,1.8,2.2,4.1,4.1,5.1Z"/>
    <path class="cls-1" d="M20.3,517.5c1.9-.6,3.9-.7,5-2.5-2.1-8.3-10.7-20.2-15.2-27.9-3.4-5.8-6.7-11.7-10.1-17.5v14.1c5.3,9.6,10.8,19.2,16.3,28.7,1.1,1.8,2.2,4.1,4.1,5.1Z"/>
    <path class="cls-4" d="M26.2,337.9c2.7,10,7.3,20,11.3,29.6l1.4.3c2.2-.9,1.3-3.7,4-6-2.7-6.4-7.1-14.7-7.5-21.7l-.8-1.9c-2.2-1.1-5-1.5-7-2.8l-.9,2.5h-.4Z"/>
    <path class="cls-4" d="M573,1c-1.5,4.7-10.9,11.7-13,15.9,0,.1-.1.2-.2.4-.8,3.2-4.1,3.8-4.8,6-.8,2.6,2.1,2.7-.4,5.8h-.9c0,.1-.4-1.8-.4-1.8-3,.2-5.2,5.9-8.1,4.3-4.3,3-8.1,6.5-12,9.9-17.7-13-34.8-26.9-52.1-40.6h-12.6c18.6,14.4,37,29,55.3,43.9l1.5,1.6v1.4c-5.1,4.5-11,8-16.4,12-10.3-10-22.5-18.7-33.6-27.8-12.7-10.3-25.3-21-38.4-31h-13.3c23.4,18.1,46.4,36.6,69.3,55.4,2.4,2,6.6,4.8,6.9,8-5.2,3.5-10.6,6.5-16,9.6-1.3-4.2-44.6-38.7-51.1-43.9.5,1.5,1.4,3.2.7,4.7-.6,1.2-2.1,2.3-3.2,3.1,7.9,6.5,44.8,35.2,47.5,39.7-4.2,2.1-8.5,4.1-12.5,6.6l-.6.5c-2.1,1.8-3.1,3.2-4,5.8-1.5.9-2.9,1.2-4.6.8-.6-.2-1.2-.5-1.8-.9v-1.1c1.5-1.6,4.4-3,6.7-3.3-6.7-8.4-26.4-22-35.8-27.7-1-8.3-1.7-16.8-1.7-25.2,0-.1,0-.3,0-.4-.7-3.3-1.6-6.8-.4-10.1-2.1-4.5-.2-16.1.2-21.5h-14.1c0,1.5-.1,3-.2,4.6,0,2.8-.1,5.6-.2,8.4,0,2.8,0,5.6,0,8.4,0,2.8.1,5.6.3,8.4.1,2.8.3,5.6.5,8.4.2,2.8.4,5.6.7,8.4.3,2.8.6,5.6.9,8.4.3,2.8.7,5.6,1.1,8.4s.8,5.6,1.3,8.3c.5,2.8,1,5.5,1.5,8.3,1.4,7.5,2.2,18.2,5.6,25,0,.1.1.2.2.4l1.3,1c0,4.4-4.7,5.8-4.8,9.9,1.4.6,2.7,1,4.2.8.3-.7.6-1.1.5-2,0-.2,0-.3,0-.5.2-.2.4-.3.6-.5,1.5-1.2,4.8-3.5,6.8-3.3l.2,1.3c2.3-1,3.3-1.9,5.8-1.4.3,1.7,0,2.2-1,3.6-.7,1.1-1.9,2-2.9,2.8-1.5,3.3-.2,11.8,1.1,15.4.2.5.3.6.6,1,1.5-.7,2.9-1.5,4.2-2.4-.5,1.9-2.2,3.9-4,4.9-2.1,1.3-4-.3-6.1.9l2,9c-6.3-3.7-12.7-7.4-19.1-11l-1.1.8-.6-.2c-2.7-1.1-4.5-1.6-7.5-1.2l-3.5,2.5c10.6,6.2,21.2,12.5,32.2,18,.7-.4,1.4-.6,2.1-.8,1,1,1.7,1.6,3,2.1l2.6-1.4.5-.5v.4c1,1.7,2.1,3.5,3.3,5.1-.6,1.6-1.7,2.1-3.2,3l-.5-.7,1.3-2.7-1.3-1.5c-2.4,1.8-1.4,4.1-4.3,6,.7,5,2.1,10.7,3.8,15.4,1.7.9,1.7,1.7,2.2,3.5.7,2.3.7,4.9.9,7.3,0,.1,0,.2,0,.4-.3,7.8,2.5,16.2,2.9,24.2h-.7s.3.7.3.7c-6.6-2-41.9-25.5-48.2-30.2l-1.1.9c-7.8-4-28.3-19.5-34.9-20.4l-4.1,3c18.8,12.5,37.9,24.4,56.9,36.6,10.9,7,21.8,15,33.2,20.9,2.3,5.5,4.7,23.6,3.9,29.6-9.3-4.7-18.4-12-26.9-18l-52.9-37.8c-8.9-6.3-17.8-13.4-27.2-18.8-1.7,1.5-4,3-5.3,4.9,20.3,15.3,41.3,29.7,62.1,44.3,12.5,8.8,24.6,18.4,37.1,27.1,4.6,3.2,9.7,5.8,14.5,8.9.2,2.1.2,3.8-.3,6l3,2.7c.2,0,.3,0,.5-.1.6-.1,1.3-.2,1.9-.3,1.8,4.4-.9,8.6,2.3,15l-1.1-.3,1.2,1.2-2.5,2.9.5.5,2.6-.7.5.5c-1,1.8-3.1,2-4.1,3.8,1.1,0,1.8-.7,2.7-1.4,2.6-.6,3.7-1.1,5.3-3.3,1.3-2.5.3-11.4.3-14.8,0-44.7-8.1-87.5-18.3-131-2.7-11.3-4.9-22.8-7.9-34l11.2-5.7c.8-1.5,1.7-2.7,2.9-3.9.3-.3.6-.6,1-.9.3-.3.7-.6,1-.8.3-.3.7-.5,1.1-.8.4-.3.7-.5,1.1-.7.4-.2.8-.5,1.1-.7.4-.2.8-.4,1.2-.6.4-.2.8-.4,1.2-.6.4-.2.8-.3,1.2-.5.4-.2.8-.3,1.2-.4.4-.1.8-.3,1.3-.4.4-.1.9-.2,1.3-.3.4,0,.9-.2,1.3-.3.4,0,.9-.1,1.3-.2.4,0,.9,0,1.3-.1.4,0,.9,0,1.3,0,.4,0,.9,0,1.3,0,9.3-4,18.5-9.5,27.3-14.4,0-.1,0-.2,0-.4,1.2-4.5,14.3-12,18.4-14.3-1.5-1.2-2.2-1.4-2.6-3.4l1.1-2.1,2.7,1.8c.1,1.7-.4,2.2-1.2,3.7,2,1.1,3.8,0,5.9-.5,1-.5,2-1.3,3-1.9l-.4-1.1c1.2-2.3,6.3-4.5,6.7-6.3.4-1.9-.7-3.3.6-5.1,2.8.8,5.4,1.3,8.3,1.6,3-2.4,5.9-4.8,8.8-7.3,2.9-2.5,5.7-5,8.5-7.7,2.8-2.6,5.5-5.3,8.1-8,2.6-2.7,5.2-5.5,7.8-8.4,2.5-2.8,5-5.7,7.4-8.7,2.4-2.9,4.7-5.9,7-9,1.1-1.4,2.1-2.9,3.2-4.4h-17.1ZM416.1,19.4v-.6c0,0,1.5-1.4,1.5-1.4v.6s-1.5,1.4-1.5,1.4ZM451.8,236.4c.4,1.7.6,3.5.8,5.3l-.9.7-1.1-1.2c-.3-2.2.2-2.8,1.2-4.8ZM429.3,108.6c-.1,0-.3-.1-.4-.2-1.8-1.2-2.4-2.9-2.9-4.9l1.2-1.5,2.7,5.9-.5.8ZM432.9,99.5c-1.3-5.4-2.4-10.8-3.4-16.2-.8-4.9-1.9-9.7-2.8-14.5,9,6.6,18.2,13.1,26.9,20-3.3,3.7-15.7,8.2-20.7,10.7ZM525.3,58.3l-.5-1.1c-.3-.5-.8-1-1.2-1.5l-2.7,1.2-.8-1c.6-2.2,2.5-3.2,4.2-4.7,1.3,2.2,1.9,3.7,1.9,6.3l-.9.9Z"/>
    <polygon class="cls-6" points="437.8 155.4 437.3 155.9 437.8 155.8 437.8 155.4"/>
    <polygon class="cls-2" points="416 18.8 416.1 19.4 417.6 17.9 417.6 17.3 416 18.8"/>
    <path class="cls-19" d="M451.7,242.3l.9-.7c-.2-1.7-.4-3.6-.8-5.3-1,1.9-1.5,2.5-1.2,4.8l1.1,1.2Z"/>
    <path class="cls-19" d="M516.5,64.1l-2.7-1.8-1.1,2.1c.4,2,1.1,2.1,2.6,3.4.8-1.5,1.3-2,1.2-3.7Z"/>
    <path class="cls-19" d="M426,103.4c.5,2,1,3.7,2.9,4.9.1,0,.3.2.4.2l.5-.8-2.7-5.9-1.2,1.5Z"/>
    <path class="cls-18" d="M434.3,115.5c1-1.5,1.3-1.9,1-3.6-2.5-.5-3.5.4-5.8,1.4.6,1.7,1,3.7,2,5.1,1-.9,2.1-1.7,2.9-2.8Z"/>
    <path class="cls-18" d="M520.2,55.8l.8,1,2.7-1.2c.4.5.9.9,1.2,1.5l.5,1.1.9-.9c0-2.6-.5-4.1-1.9-6.3-1.7,1.5-3.6,2.4-4.2,4.7Z"/>
    <path class="cls-19" d="M454.3,89.3v1.1c.7.4,1.2.7,1.9.9,1.7.4,3.1.1,4.6-.8.9-2.6,1.9-4,4-5.8l.6-.5c-1.1.4-3.6.9-4.3,1.8-2.3.3-5.1,1.7-6.8,3.3Z"/>
    <path class="cls-19" d="M553.4,27.4l.4,1.9h.9c2.5-3.3-.4-3.4.4-6,.7-2.2,4-2.8,4.8-6l-3.9,2.9c-1.7,1.9-3.6,4.4-5.6,5.9-1.7,1.8-3.4,3.7-5,5.6,2.9,1.6,5.1-4,8.1-4.3Z"/>
    <path class="cls-19" d="M437.3,159l1.3,1.5-1.3,2.7.5.7c1.4-.9,2.5-1.4,3.2-3-1.2-1.7-2.2-3.4-3.3-5.1h-.4c0,0-2.6,1.5-2.6,1.5-1.3-.5-2-1.1-3-2.1-.7.2-1.5.4-2.1.8,2.5,2.4,2.9,5.8,3.4,9,2.8-1.9,1.9-4.2,4.3-6Z"/>
    <path class="cls-19" d="M530.5,57.9c-.4,1.8-5.6,4.1-6.7,6.3l.4,1.1c5.3-3.3,10.1-7.4,15.2-11-2.9-.2-5.5-.7-8.3-1.6-1.2,1.8-.2,3.3-.6,5.1Z"/>
    <path class="cls-19" d="M466.8,96.9c-.4,0-.9,0-1.3.1-.4,0-.9.1-1.3.2-.4,0-.9.2-1.3.3-.4,0-.9.2-1.3.3-.4.1-.8.2-1.3.4-.4.1-.8.3-1.2.4-.4.2-.8.3-1.2.5-.4.2-.8.4-1.2.6-.4.2-.8.4-1.2.6-.4.2-.8.4-1.1.7-.4.2-.7.5-1.1.7-.4.3-.7.5-1.1.8-.3.3-.7.6-1,.8-.3.3-.7.6-1,.9-1.2,1.2-2.1,2.4-2.9,3.9,7.4-3.7,15.1-7,22.1-11.3-.4,0-.9,0-1.3,0-.4,0-.9,0-1.3,0Z"/>
    <path class="cls-19" d="M515.3,67.8c-4.1,2.3-17.2,9.8-18.4,14.3,0,.1,0,.2,0,.4,8.3-4.5,16.9-9.5,24.4-15.2-2.2.6-3.9,1.6-5.9.5Z"/>
    <path class="cls-18" d="M423.5,32.6c0,.1,0,.3,0,.4l6.8,4.9c1-.8,2.6-1.9,3.2-3.1.7-1.5-.2-3.2-.7-4.7l-9.6-7.6c-1.2,3.3-.3,6.8.4,10.1Z"/>
    <path class="cls-19" d="M425.2,123.6c0,.9,0,1.1-.5,1.7.7,4.3,1.6,8.5,2.6,12.8,2-1.2,3.9.4,6.1-.9,1.7-1.1,3.5-3,4-4.9-1.4.9-2.7,1.7-4.2,2.4-.3-.4-.4-.5-.6-1-1.3-3.5-2.6-12.1-1.1-15.4-1-1.4-1.4-3.5-2-5.1l-.2-1.3c-2-.2-5.3,2-6.8,3.3-.2.2-.4.3-.6.5,0,.2,0,.3,0,.5,0,.8-.2,1.2-.5,2,1.7,1.5,3.4,3.1,3.7,5.5Z"/>
    <path class="cls-19" d="M351.8,162.2c1-1.5,14-16,14.5-16.3,1.1-.6,2.3.1,3.4.5,0-1,.2-2,.3-3.1,6.3-9.2,8.4-4.5,14-8.7,1.9-1.4,4-3.4,6.5-3.4l-.2,1c-.9.6-1.8,1.2-2.8,1.7.2,1.4.3,2.6,0,4l-3.6-.6c-2.4,1.1-2,2.6-3.2,4.7-.5.8-2.5,1.1-3.5,1.3v1.7c0,0,.7,1.4.7,1.4-2,2.7-19.3,16.6-22.6,17.4-.3,0-.8,0-1,0-.9.9-1.4,1.6-1.9,2.8-2.8,5.7-10.7,8.5-12.1,14.5,1.7-1.4,2.7-3.4,4.5-4.8l1.3.5c2.9-2.2,5.6-4.6,8.2-7.2l4.1-3c6.6.9,27.1,16.4,34.9,20.4l1.1-.9c-11.4-7-22.9-13.9-33.9-21.5,4.7-3.9,9.3-7.7,14.5-10.9,15,8.7,30.1,17.2,45,26.2l1.3-2.3c1.3-.6,2.6-.9,4-1.2v-2.7c-14.9-7.4-29.7-16-43.7-24.7,4.6-3.8,10.5-9,16-11.2l3.5-2.5c2.9-.4,4.8,0,7.5,1.2l.6.2,1.1-.8c-.6-.4-1.2-.8-1.8-1.2-1.2-.9-2.2-1.4-2.4-3,1.8-1.3,3.6-2.7,5.5-4,2.8-1.9,8.8-6,12.2-5.3l1.1,2.6c.6-.6.6-.8.5-1.7-.2-2.4-1.9-4.1-3.7-5.5-1.5.2-2.8-.2-4.2-.8.1-4.1,4.9-5.5,4.8-9.9l-1.3-1c-28.5,17-55.1,35.8-80.4,57.2l.2,2c7.9-7.2,5.4-1.4,11.1-3.4Z"/>
    <path class="cls-18" d="M355.2,164c3.4-.8,20.7-14.7,22.6-17.4l-.8-1.4c-1.4,1.4-3.1,2.9-5.1,2.9.2-.6.3-1.3.7-1.9,1.1-1.5,2.6-2.4,4.5-2.7,1-.3,3-.5,3.5-1.3,1.2-2.1.8-3.6,3.2-4.7l3.6.6c.4-1.4.3-2.5,0-4,1-.5,1.9-1.1,2.8-1.7l.2-1c-2.4,0-4.5,2-6.5,3.4-5.6,4.2-7.7-.5-14,8.7-.1,1-.2,2-.3,3.1-1.1-.3-2.3-1-3.4-.5-.6.3-13.5,14.8-14.5,16.3l2.4,1.8c.2,0,.7,0,1,0Z"/>
    <path class="cls-13" d="M372.7,146.1c-.4.6-.5,1.2-.7,1.9,2,0,3.7-1.5,5.1-2.9v-1.7c-1.8.3-3.3,1.2-4.4,2.7Z"/>
    <path class="cls-19" d="M425.2,176.5c-1.4.3-2.7.6-4,1.2l-1.3,2.3c6.4,4.1,13.1,8.5,20.2,11.1-.2-2.4-.2-5-.9-7.3-.5-1.8-.5-2.6-2.2-3.5-3.7-.9-8.8-4.2-11.9-6.5v2.7Z"/>
    <path class="cls-7" d="M556,20.2c-8.1-6.5-16.3-12.9-24.6-19.2h-13.4c2.1,1.6,4.3,3.2,6.4,4.8,8.7,6.6,17.1,13.9,26,20.3,2.1-1.4,3.9-4,5.6-5.9Z"/>
    <path class="cls-4" d="M352.3,166.8c.6-1.2,1-1.9,1.9-2.8l-2.4-1.8c-5.8,2-3.2-3.8-11.1,3.4-.5,3.2-.9,4-3.4,6-5.2,4-14.8,7.9-16.4,14.9-.4,1.7.1,3.2,1.1,4.6.8,1.1,1,.9,2.4,1.1,3-1.5,4.6-4.5,6.1-7.3,1.5-.2,2,.7,3.2.7,1.2,0,4.6-3.8,6.6-4.3,1.5-6,9.4-8.8,12.1-14.5Z"/>
    <path class="cls-6" d="M311.6,196.4c1.3,1.2,1.5,3.4,2,5l1.1.4,1.8-1.4c-.7-1.2-1.3-2.3-1.9-3.5-1.3-2.5-1.3-3.8-.5-6.4,1.4-1.2,2.2-1.8,4.1-2.1,2.7,2.3,2.2,7.7,4.8,11h1.8c0,.1-.3-1.5-.3-1.5,2.4-3.2,7.6-9.6,11.3-10.9,1.2-1.9,3.5-3.4,5.3-4.9,1.4-1.9,3.1-3.5,4.8-5.2l-1.3-.5c-1.8,1.4-2.8,3.3-4.5,4.8-2,.5-5.4,4.3-6.6,4.3-1.1,0-1.7-.9-3.2-.7-1.5,2.9-3.1,5.8-6.1,7.3-1.3-.2-1.6,0-2.4-1.1-1-1.4-1.5-2.9-1.1-4.6,1.6-7,11.2-11,16.4-14.9,2.6-2,3-2.8,3.4-6l-.2-2c-13.2,11.3-26.6,24.5-38.1,37.6,2.7,1.6,6.1-4.2,9.2-4.7Z"/>
  </g>
  <g>
    <path class="cls-19" d="M247.5,137c4.2.5,8,1.1,11.7,3.2.4,1.6.9,2.4,2.1,3.5-4.8.3-8.7-2.4-13.6-1.1-1.6,1.2-1.4,2-3.4,2.9-.2-.5-.4-1-.7-1.4-1.2-1.4-2.2-1.4-3.9-1.7l.2-1c1.9-2.2,5.1-3.3,7.7-4.5Z"/>
    <path class="cls-7" d="M261.3,143.7c-1.2-1.1-1.7-2-2.1-3.5,3.9,3.3,8.7,7.6,9.1,13.1,0,.3,0,.5,0,.8-3.3,1.1-7.3,2-10.1,4,.2-1.4,0-3-.2-4.4-.8-1.1-1.6-1.7-2.8-2.4-1-.6-1.9-1.1-2.8-1.8l1.4-1.3c.3-.6.5-1.3.7-1.9-1.6.6-3.2,1.2-4.9,1.8l-1-.9.8-2.7-1.8-1.9c4.9-1.3,8.8,1.4,13.6,1.1Z"/>
    <path class="cls-6" d="M261.3,143.7c-1.2-1.1-1.7-2-2.1-3.5,3.9,3.3,8.7,7.6,9.1,13.1,0,.3,0,.5,0,.8-3.3,1.1-7.3,2-10.1,4,.2-1.4,0-3-.2-4.4-.8-1.1-1.6-1.7-2.8-2.4-1-.6-1.9-1.1-2.8-1.8l1.4-1.3c1.8.8,5.6-.2,7,.9,1.6,1.3,2.3,3,4.4,3.9,0-.6.3-1.4.2-1.9-.2-2.4-2.5-5.8-4.2-7.3Z"/>
    <path class="cls-4" d="M239.5,142.4c1.7.3,2.8.3,3.9,1.7.3.4.5.9.7,1.4,2-1,1.8-1.8,3.4-2.9l1.8,1.9-.8,2.7,1,.9c1.6-.6,3.2-1.2,4.9-1.8-.2.6-.4,1.3-.7,1.9l-1.4,1.3c.9.7,1.8,1.3,2.8,1.8,1.2.7,2,1.3,2.8,2.4.1,1.4.4,3,.2,4.4,2.8-2,6.8-2.9,10.1-4-.2,5.6-1.4,10.8-5.7,14.6-1.2,1.1-2.6,1.7-4.1,2.3-1.7,1-3.2,1.7-5.1,2.2-4.6,1.1-8.6.8-12.8-1.4-1-.5-1.8-1.2-2.6-1.9-3.3-3.2-5.3-6.9-5.4-11.5,0-6.6,2.5-11.2,7-15.8Z"/>
    <path class="cls-6" d="M238.8,159.6c2.5,1.1,2.7,1.1,5.4.5l.6-1.3-.2-.4c-.6-1.5-1.2-2.2-.6-3.8,2.3-.3,3.5.2,5.5,1.2l.8,1.1-3-.8-.6.7c1,.7,1.9,1.1,3.1,1.6-.8,2.2-3.1,2.5-3.4,4.6-1.6.7-3.2.9-4.8,1.1-1.9-1.3-2-2.4-2.8-4.5Z"/>
    <path class="cls-19" d="M237.9,164.7c.2-1.7.1-3.6,1-5.1.8,2.1.9,3.2,2.8,4.5,1.7-.3,3.3-.5,4.8-1.1.2,1.3.2,1.8,1.2,2.8.9-.6,1.6-1,2.2-1.9,1.4-.6,2.5-.1,3.8.2l1.2,1.5-.6.8c.2,0,.4,0,.6.1.7.1,1.2.3,1.8.7-.1.9-.1,1.4-.8,2.1-2,.6-4.6-.7-6-.3-.1,0-1.2,1.2-1.9,1.5l.2,1.4c1.7.4,3.4.6,5,1.2-4.6,1.1-8.6.8-12.8-1.4l.8-.8c-.5-.6-.3-.4-.8-.8-1.2-.9-2-1.7-2.9-2.8l.4-2.6Z"/>
    <path class="cls-18" d="M237.9,164.7c3,1.8,6.8,3.5,9.1,6.2-.8.8-.9.5-2,.5-1.3,0-2.6,0-3.8-.5-.5-.6-.3-.4-.8-.8-1.2-.9-2-1.7-2.9-2.8l.4-2.6Z"/>
    <path class="cls-2" d="M253.7,164.1c.4-.9.4-2.4.6-3.4-.5-.8-1-1.6-1.4-2.5-.8-1.9-.3-2.5.4-4.2l1.2-.5c2,1.4,2.7,3.5,3.7,5.6v-1.1c2.8-2,6.9-2.9,10.1-4-.2,5.6-1.4,10.8-5.7,14.6-1.2,1.1-2.6,1.7-4.1,2.3-1.7,1-3.2,1.7-5.1,2.2-1.6-.6-3.4-.8-5-1.2l-.2-1.4c.6-.3,1.7-1.5,1.9-1.5,1.4-.4,4,.9,6,.3.6-.7.6-1.2.8-2.1-.6-.4-1.1-.6-1.8-.7-.2,0-.4,0-.6-.1l.6-.8-1.2-1.5Z"/>
    <path class="cls-18" d="M254.9,165.6c2.2-1.8,3.1-1.8,5.8-2.1.2,0,.5,0,.7-.1.7,0,.5,0,1.3.2l-.2-.7c-.2-.8-.3-1.5-.3-2.3l2.4-2.7.4.2.6-1.2c.3,4.5-.8,6.8-3.7,10.2-.7.8-1.6,1.6-2.4,2.3-.5.5-.8.9-1.1,1.5-1.7,1-3.2,1.7-5.1,2.2-1.6-.6-3.4-.8-5-1.2l-.2-1.4c.6-.3,1.7-1.5,1.9-1.5,1.4-.4,4,.9,6,.3.6-.7.6-1.2.8-2.1-.6-.4-1.1-.6-1.8-.7-.2,0-.4,0-.6-.1l.6-.8Z"/>
  </g>
  <g>
    <path class="cls-10" d="M177.4,532.3c3.7-5.8,8.3-10.9,15.2-12.5,5.8-1.3,11.5.2,16.4,3.4,4.4,2.8,7.6,6.7,10.2,11.2,1.3,4.8,1.4,9.1.6,14-3,6.5-6.7,12-13.7,14.6-5.1,1.9-10.2,1.8-15.6,1.7-2.9-1.8-6.1-3.6-8.4-6.1-.9-.9-1.7-1.9-2.5-3-.8-1.1-1.4-2.2-2-3.3-3.4-6.8-2.4-13-.2-19.9Z"/>
    <path class="cls-11" d="M200.5,534.3c1.9-.3,3.3-.6,5.2,0,0,2.1-.6,2.8-1.7,4.5l-.4.3-.2-2.9c-.6.5-1.2.7-1.9.9l-1-2.8Z"/>
    <path class="cls-13" d="M219.2,534.3c1.3,4.8,1.4,9.1.6,14-.6-7.2-3.2-4.8-7.1-9.3.9-.2,1.8-.5,2.6-.8,2.5-1,2.9-1.5,3.9-3.9Z"/>
    <path class="cls-17" d="M177.4,532.3l1.3,2.5c2.6,0,2,2.4,7.1,1.2l.5.7-.4,1.3c1.1.5,1.6.6,2.3,1.6-.3,2-2,2.5-2.2,4.1l2.8.6c.4.9.6,1.7.8,2.6h2.5c0,0,.8,1,.8,1l-.8,1.5c-2-.4-3.2-1.1-5.1,0-.5,2.8-.5,4.1-3.1,5.8-.3.2-.6.4-.9.6l-.9,2.7c-.9-.9-1.7-1.9-2.5-3-.8-1.1-1.4-2.2-2-3.3-3.4-6.8-2.4-13-.2-19.9Z"/>
  </g>
  <g>
    <path class="cls-18" d="M572.3,119.7c-1.7-.2-3.5-.3-5.1-.9-.5-.2-1-.4-1.6-.6-.5-.2-1-.5-1.5-.8-.5-.3-1-.6-1.4-.9-.5-.3-.9-.7-1.3-1-.4-.4-.8-.7-1.2-1.2-.4-.4-.8-.8-1.1-1.3-.3-.4-.7-.9-1-1.4-.3-.5-.6-1-.8-1.5-2.4-4.8-1.7-9.4-.2-14.3l.6,1.6,1.8,1.6-.2,1.3-.5-.8c.6,5.1.8,10.8,5.2,14.3,1.8,1.4,3.1,1.8,5.5,1.4.5,0,1-.2,1.6-.3l1,.6c1.5,0,6.5-.2,7.4.5-2.3,1.1-5.2,1.7-7,3.4Z"/>
    <path class="cls-6" d="M565.7,86.2c4.4-1.9,8.8-2.7,13.5-.9,4.1,1.6,7.3,5,9.1,9,.1.3.3.6.4.9.1.3.2.6.3.9,0,.3.2.6.3.9,0,.3.2.6.2.9,0,.3.1.6.2.9,0,.3,0,.6.1.9,0,.3,0,.6,0,.9,0,.3,0,.6,0,.9,0,.3,0,.6,0,.9,0,.3,0,.6,0,.9,0,.3,0,.6,0,.9,0,.3,0,.6-.1.9,0,.3-.1.6-.2.9,0,.3-.1.6-.2.9,0,.3-.2.6-.3.9,0,.3-.2.6-.3.9-1.6,4.1-5,7.8-9.1,9.4-2.3.9-4.8,1.2-7.2,1.3,1.8-1.7,4.7-2.3,7-3.4-.9-.8-6-.5-7.4-.5,1.8-1.6,2.3-4.7,4.1-5.9l.6,2.1h1.9c1.4-.8,2.5-1.6,3.5-2.8,2.4-3,3-5.3,2.6-9.1l-.5-.5c-.1-1.3-.4-2.2-1-3.3-2-3.5-4.6-4.4-8.3-5.4-1.8-1.5-4.6-1-6.8-1.2-3.1,1.7-6.3,3.7-7.9,6.9l-2.5,1-.6-1.6c.9-3.7,6.2-7.1,8.7-9.8Z"/>
    <path class="cls-14" d="M565.7,86.2c3.6-.3,7.2-.5,10.9-.3,3.2,1.7,5.6,3.2,7.9,6,.3.4.6.7,1,1.1,1.8,1.9,2.1,3.5,2.4,6l-.5.9c-2.5-2.9-2.7-6.6-5.9-9.1,1,2.9,4.4,6.3,3.1,9.3l-.5-.5c-.1-1.3-.4-2.2-1-3.3-2-3.5-4.6-4.4-8.3-5.4-1.8-1.5-4.6-1-6.8-1.2-3.1,1.7-6.3,3.7-7.9,6.9l-2.5,1-.6-1.6c.9-3.7,6.2-7.1,8.7-9.8Z"/>
    <path class="cls-2" d="M557.6,97.6l2.5-1c1.5-3.2,4.8-5.3,7.9-6.9,2.2.2,5-.3,6.8,1.2,3.7,1,6.3,1.9,8.3,5.4.6,1.1.9,2,1,3.3l.5.5c.4,3.8-.2,6.1-2.6,9.1-1,1.2-2.1,1.9-3.5,2.7h-1.9c0,.1-.6-2-.6-2-1.7,1.2-2.3,4.3-4.1,5.9l-1-.6c-.5.1-1,.3-1.6.3-2.3.4-3.7,0-5.5-1.4-4.4-3.5-4.6-9.2-5.2-14.3l.5.8.2-1.3-1.8-1.6Z"/>
    <path class="cls-20" d="M574.8,90.9c3.7,1,6.3,1.9,8.3,5.4.6,1.1.9,2,1,3.3-.7.9-1.1,2.4-1.8,3.5l-1.3-.7c-1.6.7-1.5.9-2.1,2.4h-2.2c0-.1,2.2-1.5,2.2-1.5,0-1.8-.5-4.7,0-6.3.4-1.4,1.1-1.3,1.1-3.1h-1.2c-.9,1.3-1.5,2.4-3,3.2l-1.3-.8c.3-1.9,1.3-2.4,2.7-3.7l-2.5-1.8Z"/>
  </g>
  <path class="cls-21" d="M522,340c1.1,1.3,2.3,2.6,3,4.2,0,.9,0,1.8-.2,2.7-1.5,1.4-1.7,1.2-3.8,1.2-1.7-1.2-1.8-1.2-2.3-3.2.6-2.1,1.9-3.4,3.4-4.9Z"/>
  <g>
    <path class="cls-21" d="M557.8,291.1c.4-.4.7-.8.9-1.3.8-1.8,2-4.5,3.8-5.6,1.3-.8,2-.5,3.4-.2.2.4.4.7.6,1.2.6,2.1-.3,4.5-1.4,6.3-.9-.9-1.2-.9-2.5-1.1l-4.7.7Z"/>
    <path class="cls-21" d="M557.4,354.8l1.8-1.5c1.8,2.1,5.4,6,5.3,9,0,.2,0,.5,0,.7-1.7,1.2-2.3.9-4.4.9-2.5-2-1.8-6.3-2.7-9.1Z"/>
    <path class="cls-16" d="M569.8,350.9l.4-1.6c2.8-2.1,6-9,8.8-9.4l1.5,1.2h1c2.6.8,4.2,1.7,6.3,3.6l.7,1.7c-.7,1.5-1.2,2.2-2.6,3.1-3.2-1.1-5-3.6-8.3-3.8-1.3,1-1.6,2.4-2.2,3.8-2,1.3-3.2,1.3-5.5,1.4Z"/>
    <path class="cls-21" d="M588.4,316c2.7-.2,2.9-.4,5.1,1.1.7,2.1.4,2.4-.4,4.5-2.9,1.2-5.5.2-8.1,2.1-.1,2.1-.3,2.2,1,3.8,2.9.9,7.5,1.1,9.5,3.3.6,1.6.5,2.5,0,4.1-2,1.2-7.3,1.5-9.6,1-.6-.1-1.2-.5-1.8-.8l-.4-.5c-1.2-.5-1.8-.8-2.7-1.7.4-3.3,0-10.1,1.3-12.8,1-.2,2.2-.3,3.1-.7,1.9-.8,2.3-1.7,3-3.4Z"/>
    <path class="cls-17" d="M571.5,301c2.2-.2,13.2,1.6,15.6,2.5l.8,1c-1.3,2.2-5.6,3.3-8,4,.3.5,1.9,2.3,1.9,2.6,0,.3-.6,2-.5,2.1.5.8,4.3,1.9,5.3,2.2.6.2,1.2.4,1.8.5-.7,1.7-1.1,2.7-3,3.4-.9.4-2.1.5-3.1.7-1.3,2.7-.9,9.4-1.3,12.8.9,1,1.5,1.2,2.7,1.7l.4.5-2.4,1.3c-.1,1.5-.2,3-.2,4.5h-1c0,.1-1.5-1.1-1.5-1.1-2.7.5-6,7.4-8.8,9.4l-.4,1.6c-1.8.8-2.4.5-4.4,0l-.6-1.7-3.4-.5-.3-.5c5.7-3,9.5-4.3,12.4-10.3,4.2-8.6,5.7-19.6.3-28.1-1.6-2.5-4-4.4-5-7.3.9-.9,1.4-1.2,2.7-1.6Z"/>
    <path class="cls-16" d="M522,340l1.6-1.4-.2-1.6c-2.1-2.7-5.4-2.4-7.9-4.4-.9-.7-.7-.9-.9-2,1.7-2.9,5.7-4.3,8-6.9.8-4.8-5.9-3.7-7.8-7.4l.7-1.9c1.4-1.2,2.2-2,4.2-1.8,1.8.2,2.9.8,3.9,2.1,1.7-2.2,3.9-4,4.5-6.8-.8-3.8-4.7-3.1-7.3-5.2v-1.8c2.7-4,8,.9,12.4.2,1.8-1.3,2-1.7,3-3.7-1-1.9-.6-3.7-.8-5.8l-2.8-1.3v-1.1c2-2.2,2.4-.7,4.1-1.7.2-.1.4-1.7,1.3-2.4,2.3,1.9,1.1,7.1,3.9,9.7,2.1-.5,2.5-1.1,4.2-2.6,1.2-2.8-.2-5.3-.2-8.2l1.3-1,1.4.3c1.3,2.4,1.1,5.4,1.2,8.1l1.3,1.1c2.1.3,3.8.5,6,0l.8-1.4,4.7-.7c1.4,1.8,2,3.4,4.3,3.8,3.1-1.3,7.7-4.2,11.1-3.7l1.5,1.5c-.4,2.7-1.7,3.8-3.8,5.4-1.5,1.1-2.8,2.2-4.1,3.6-1.2.4-1.7.7-2.7,1.6,1,2.8,3.4,4.8,5,7.3,5.4,8.5,3.9,19.5-.3,28.1-2.9,6-6.8,7.3-12.4,10.3l.3.5,3.4.5.6,1.7c-.3.6-.7,1.7-1.3,1.9-1.7.5-3.1.5-4.9.4l-1.8,1.5c-.5,1.3-1.8,2.6-2.7,3.7-2.4,3-5.7,5.4-9.6,5.8-1.4-.9-1.7-1.1-2.5-2.6.6-1.7,2-2.4,3.5-3.5-.1-.5-.2-.9-.3-1.4-.6-2.4-1-2.8-3.1-3.9-3.1,0-4.5,2.6-7.1,3.9-1,.5-1.7.8-2.8.2-4.6-2.5.1-7.3-1.5-11.1-2.2-1.8-3.5-1.6-6.3-1.8-.6-1.6-1.9-2.9-3-4.2Z"/>
  </g>
  <g>
    <path class="cls-2" d="M54.1,292c-.2,1.4,0,2.1-1.2,3.2-2,1.9-5.8,3.3-8.5,3.1-2.6-.2-4.8-1.7-6.4-3.7-2.1-2.6-3.2-6.1-2.8-9.5.3-2.4,1.5-4.8,3.6-6.2,2.4-1.6,6.6-2.1,9.4-1.5,1.8.4,2.7,1.2,3.7,2.7,1.8,1.1,2.8,2.4,3.4,4.5.5,2,.6,4.6-.5,6.4-.3.4-.4.6-.8,1Z"/>
    <path class="cls-19" d="M51.9,280.1c1.8,1.1,2.8,2.4,3.4,4.5.5,2,.6,4.6-.5,6.4-.3.4-.4.6-.8,1l-.6-1.4c-3,.7-7.1,0-9.8-1.5-1-1.2-1.9-2.6-1.8-4.3.2-2.1,1.1-2.8,2.5-4.1,2.3-.7,3.8-.5,6,0l.8.2.7-.8Z"/>
  </g>
</svg>