<?xml version="1.0" encoding="utf-8"?>
<!-- Generator: Adobe Illustrator 20.1.0, SVG Export Plug-In . SVG Version: 6.00 Build 0)  -->
<svg version="1.1" id="Layer_1" xmlns="http://www.w3.org/2000/svg" xmlns:xlink="http://www.w3.org/1999/xlink" x="0px" y="0px"
	 viewBox="0 0 200 92.8" style="enable-background:new 0 0 200 92.8;" xml:space="preserve">
<style type="text/css">
	.st0{fill:#149A9D;}
	.st1{fill:#FAAD3D;}
	.st2{fill:#149A9D;stroke:#149A9D;stroke-width:3.4041;stroke-linejoin:round;stroke-miterlimit:10;}
	.st3{fill:#4D4D4F;}
</style>
<g>
	<path class="st0" d="M178.8,34.3c0-3.2-2.7-5.8-5.9-5.8c-2,0-3.8,1.1-4.9,2.6c-2.2,3.2-5.9,5.3-10.1,5.3c-6.8,0-12.4-5.5-12.5-12.3
		c0-6.8,5.5-12.4,12.3-12.5c4.2,0,7.9,2,10.2,5.2c0,0.1,0.1,0.1,0.1,0.2c0,0,0,0,0,0.1l0,0c1.1,1.4,2.8,2.4,4.7,2.4
		c3.2,0,5.8-2.6,5.8-5.9c0-1.3-0.4-2.4-1.1-3.4l0,0C173.2,4,166,0,157.8,0c-13.3,0.1-24,10.9-23.9,24.2c0.1,13.3,10.9,24,24.2,23.9
		c8,0,15-4,19.4-10C178.3,37.1,178.9,35.8,178.8,34.3z"/>
	<path class="st1" d="M188.2,15.1c-3.1,0-5.8,1.7-7.4,4.1c-1.7,2.5-4.5,4.1-7.7,4.2c-3,0-5.6-1.4-7.3-3.5c-1.5-2.7-4.4-4.6-7.8-4.6
		c-4.9,0-8.8,4-8.8,8.9c0,4.9,4,8.8,8.9,8.8c3.1,0,5.9-1.7,7.4-4.2c1.7-2.4,4.5-4,7.6-4c3.2,0,6.1,1.6,7.8,4.1l0,0
		c1.6,2.4,4.3,3.9,7.4,3.9c4.9,0,8.8-4,8.8-8.9C197,19,193,15,188.2,15.1z"/>
	<path class="st2" d="M39.9,33.3c0,2.7-0.7,5.1-2.1,7.3c-1.4,2.2-3.4,3.9-6.1,5.1c-2.7,1.2-5.9,1.8-9.6,1.8c-4.4,0-8.1-0.8-10.9-2.5
		c-2-1.2-3.7-2.8-5-4.8c-1.3-2-1.9-4-1.9-5.9c0-1.1,0.4-2,1.1-2.8c0.8-0.8,1.7-1.2,2.9-1.2c1,0,1.8,0.3,2.4,0.9
		c0.7,0.6,1.2,1.5,1.7,2.7c0.6,1.4,1.2,2.6,1.9,3.6c0.7,1,1.6,1.7,2.8,2.4c1.2,0.6,2.8,0.9,4.7,0.9c2.7,0,4.9-0.6,6.6-1.9
		s2.5-2.8,2.5-4.7c0-1.5-0.5-2.7-1.4-3.6c-0.9-0.9-2.1-1.6-3.5-2.1c-1.4-0.5-3.4-1-5.8-1.6c-3.2-0.8-5.9-1.6-8.1-2.6
		c-2.2-1-3.9-2.4-5.2-4.1c-1.3-1.7-1.9-3.9-1.9-6.5c0-2.5,0.7-4.7,2-6.6c1.3-1.9,3.3-3.4,5.8-4.4s5.5-1.5,9-1.5c2.8,0,5.1,0.3,7.1,1
		c2,0.7,3.7,1.6,5,2.7c1.3,1.1,2.3,2.3,2.9,3.6c0.6,1.2,0.9,2.5,0.9,3.6c0,1.1-0.4,2.1-1.1,2.9c-0.8,0.9-1.7,1.3-2.9,1.3
		c-1,0-1.8-0.3-2.4-0.8c-0.5-0.5-1.1-1.4-1.8-2.6c-0.8-1.7-1.8-3-2.9-4c-1.1-0.9-3-1.4-5.5-1.4c-2.3,0-4.2,0.5-5.7,1.5
		c-1.4,1-2.2,2.3-2.2,3.7c0,0.9,0.2,1.7,0.7,2.3c0.5,0.7,1.2,1.2,2,1.7c0.9,0.5,1.7,0.8,2.6,1.1c0.9,0.3,2.3,0.7,4.3,1.2
		c2.5,0.6,4.8,1.2,6.9,2c2,0.7,3.8,1.6,5.2,2.6c1.4,1,2.6,2.3,3.4,3.9C39.5,29.1,39.9,31,39.9,33.3z"/>
	<path class="st2" d="M66.8,46.7H53.1c-2,0-3.4-0.4-4.2-1.3c-0.8-0.9-1.3-2.3-1.3-4.2V7.5c0-2,0.4-3.4,1.3-4.3
		c0.9-0.9,2.3-1.3,4.2-1.3h14.5c2.1,0,4,0.1,5.6,0.4c1.6,0.3,3,0.8,4.2,1.5c1.1,0.6,2,1.4,2.8,2.4c0.8,1,1.4,2,1.9,3.2
		c0.4,1.2,0.6,2.4,0.6,3.7c0,4.5-2.2,7.8-6.7,9.8c5.9,1.9,8.8,5.5,8.8,10.9c0,2.5-0.6,4.8-1.9,6.8c-1.3,2-3,3.5-5.2,4.4
		c-1.4,0.6-2.9,1-4.7,1.2C71.2,46.6,69.1,46.7,66.8,46.7z M56.7,8.7v11.6H65c2.3,0,4-0.2,5.2-0.6c1.2-0.4,2.2-1.2,2.8-2.4
		c0.5-0.9,0.8-1.8,0.8-2.9c0-2.3-0.8-3.8-2.4-4.5c-1.6-0.7-4.1-1.1-7.4-1.1H56.7z M66.1,26.8h-9.4v13.1h9.8c6.1,0,9.2-2.2,9.2-6.6
		c0-2.3-0.8-3.9-2.4-4.9C71.6,27.3,69.3,26.8,66.1,26.8z"/>
	<path class="st2" d="M111.3,46.7H97.6c-2,0-3.4-0.4-4.2-1.3c-0.8-0.9-1.3-2.3-1.3-4.2V7.5c0-2,0.4-3.4,1.3-4.3
		c0.9-0.9,2.3-1.3,4.2-1.3h14.5c2.1,0,4,0.1,5.6,0.4c1.6,0.3,3,0.8,4.2,1.5c1.1,0.6,2,1.4,2.8,2.4c0.8,1,1.4,2,1.9,3.2
		c0.4,1.2,0.6,2.4,0.6,3.7c0,4.5-2.2,7.8-6.7,9.8c5.9,1.9,8.8,5.5,8.8,10.9c0,2.5-0.6,4.8-1.9,6.8c-1.3,2-3,3.5-5.2,4.4
		c-1.4,0.6-2.9,1-4.7,1.2C115.7,46.6,113.7,46.7,111.3,46.7z M101.2,8.7v11.6h8.3c2.3,0,4-0.2,5.2-0.6c1.2-0.4,2.2-1.2,2.8-2.4
		c0.5-0.9,0.8-1.8,0.8-2.9c0-2.3-0.8-3.8-2.4-4.5c-1.6-0.7-4.1-1.1-7.4-1.1H101.2z M110.6,26.8h-9.4v13.1h9.8c6.1,0,9.2-2.2,9.2-6.6
		c0-2.3-0.8-3.9-2.4-4.9C116.2,27.3,113.8,26.8,110.6,26.8z"/>
	<g>
		<path class="st3" d="M5.7,64.6c0,0.5,0.1,0.9,0.3,1.3c0.2,0.4,0.4,0.6,0.7,0.9C7,67,7.4,67.1,7.8,67.2c0.4,0.1,0.8,0.2,1.3,0.2
			c0.5,0,0.9-0.1,1.3-0.2c0.4-0.1,0.6-0.3,0.9-0.4c0.2-0.2,0.4-0.4,0.5-0.6c0.1-0.2,0.1-0.5,0.1-0.7c0-0.5-0.1-0.9-0.3-1.1
			c-0.2-0.2-0.5-0.4-0.7-0.5c-0.5-0.2-1-0.3-1.6-0.5c-0.6-0.2-1.4-0.4-2.3-0.6c-0.6-0.1-1-0.3-1.4-0.6c-0.4-0.2-0.7-0.5-0.9-0.8
			c-0.2-0.3-0.4-0.6-0.5-0.9c-0.1-0.3-0.1-0.7-0.1-1c0-0.7,0.1-1.2,0.4-1.7c0.3-0.5,0.6-0.9,1.1-1.2c0.5-0.3,1-0.6,1.5-0.7
			c0.6-0.2,1.2-0.2,1.7-0.2c0.7,0,1.3,0.1,1.9,0.3c0.6,0.2,1.1,0.4,1.6,0.8c0.5,0.4,0.8,0.8,1.1,1.3c0.3,0.5,0.4,1.1,0.4,1.8h-2.3
			c-0.1-0.8-0.3-1.4-0.9-1.8c-0.5-0.3-1.2-0.5-2-0.5c-0.3,0-0.5,0-0.8,0.1c-0.3,0.1-0.5,0.1-0.8,0.3c-0.2,0.1-0.4,0.3-0.6,0.5
			c-0.2,0.2-0.2,0.5-0.2,0.8c0,0.5,0.1,0.8,0.4,1.1c0.3,0.3,0.7,0.5,1.1,0.6c0,0,0.2,0.1,0.6,0.2c0.3,0.1,0.7,0.2,1.1,0.3
			c0.4,0.1,0.8,0.2,1.2,0.3c0.4,0.1,0.7,0.2,0.9,0.2c0.4,0.1,0.8,0.3,1.1,0.5c0.3,0.2,0.6,0.5,0.8,0.8c0.2,0.3,0.4,0.6,0.5,1
			c0.1,0.3,0.2,0.7,0.2,1c0,0.7-0.1,1.4-0.4,1.9c-0.3,0.5-0.7,0.9-1.2,1.3c-0.5,0.3-1,0.6-1.7,0.7c-0.6,0.2-1.3,0.2-1.9,0.2
			c-0.7,0-1.4-0.1-2.1-0.3c-0.7-0.2-1.2-0.5-1.7-0.8c-0.5-0.4-0.9-0.9-1.2-1.5c-0.3-0.6-0.4-1.3-0.5-2.1H5.7z"/>
		<path class="st3" d="M20.1,69.2c-0.8,0-1.4-0.1-2-0.4c-0.6-0.3-1.1-0.6-1.5-1c-0.4-0.4-0.7-1-0.9-1.6c-0.2-0.6-0.3-1.3-0.3-2
			c0-0.7,0.1-1.4,0.3-2c0.2-0.6,0.5-1.1,0.9-1.6c0.4-0.4,0.9-0.8,1.5-1c0.6-0.3,1.3-0.4,2-0.4c0.8,0,1.4,0.1,2,0.4
			c0.6,0.3,1.1,0.6,1.5,1c0.4,0.4,0.7,1,0.9,1.6c0.2,0.6,0.3,1.3,0.3,2c0,0.7-0.1,1.4-0.3,2c-0.2,0.6-0.5,1.1-0.9,1.6
			c-0.4,0.4-0.9,0.8-1.5,1C21.6,69.1,20.9,69.2,20.1,69.2z M20.1,67.5c0.5,0,0.9-0.1,1.2-0.3c0.3-0.2,0.6-0.5,0.8-0.8
			c0.2-0.3,0.4-0.7,0.5-1.1c0.1-0.4,0.2-0.8,0.2-1.2c0-0.4-0.1-0.8-0.2-1.2c-0.1-0.4-0.3-0.8-0.5-1.1c-0.2-0.3-0.5-0.6-0.8-0.8
			c-0.3-0.2-0.7-0.3-1.2-0.3c-0.5,0-0.9,0.1-1.2,0.3c-0.3,0.2-0.6,0.5-0.8,0.8c-0.2,0.3-0.4,0.7-0.5,1.1c-0.1,0.4-0.2,0.8-0.2,1.2
			c0,0.4,0.1,0.8,0.2,1.2c0.1,0.4,0.3,0.8,0.5,1.1c0.2,0.3,0.5,0.6,0.8,0.8C19.3,67.4,19.7,67.5,20.1,67.5z"/>
		<path class="st3" d="M33.1,62.6c-0.1-0.6-0.3-1-0.7-1.3c-0.4-0.3-0.9-0.4-1.5-0.4c-0.3,0-0.6,0-0.9,0.1c-0.3,0.1-0.6,0.3-0.8,0.5
			c-0.3,0.3-0.5,0.6-0.6,1c-0.2,0.4-0.3,1-0.3,1.7c0,0.4,0,0.8,0.1,1.2c0.1,0.4,0.2,0.7,0.4,1c0.2,0.3,0.5,0.6,0.8,0.7
			c0.3,0.2,0.7,0.3,1.2,0.3c0.6,0,1.1-0.2,1.5-0.6c0.4-0.4,0.6-0.9,0.7-1.6h2.1c-0.2,1.2-0.7,2.2-1.4,2.8c-0.7,0.7-1.7,1-2.9,1
			c-0.7,0-1.4-0.1-2-0.4c-0.6-0.3-1-0.6-1.4-1c-0.4-0.4-0.7-1-0.9-1.5c-0.2-0.6-0.3-1.2-0.3-1.9c0-0.7,0.1-1.4,0.3-2
			c0.2-0.6,0.5-1.2,0.9-1.6c0.4-0.5,0.9-0.8,1.5-1.1c0.6-0.3,1.3-0.4,2-0.4c0.6,0,1.1,0.1,1.6,0.2c0.5,0.1,0.9,0.4,1.3,0.6
			c0.4,0.3,0.7,0.6,0.9,1.1c0.2,0.4,0.4,0.9,0.4,1.5H33.1z"/>
		<path class="st3" d="M36.9,55.9H39v2h-2.1V55.9z M36.9,59.5H39v9.5h-2.1V59.5z"/>
		<path class="st3" d="M42.9,64.7c0,0.4,0.1,0.7,0.2,1.1c0.1,0.3,0.3,0.6,0.5,0.9c0.2,0.3,0.5,0.5,0.8,0.6c0.3,0.2,0.7,0.2,1.1,0.2
			c0.6,0,1.1-0.1,1.5-0.4c0.4-0.3,0.7-0.7,0.8-1.2h2c-0.1,0.5-0.3,1-0.6,1.4c-0.3,0.4-0.6,0.7-1,1c-0.4,0.3-0.8,0.5-1.3,0.6
			c-0.5,0.1-1,0.2-1.5,0.2c-0.7,0-1.4-0.1-2-0.4c-0.6-0.2-1.1-0.6-1.5-1c-0.4-0.4-0.7-1-0.9-1.6c-0.2-0.6-0.3-1.3-0.3-2
			c0-0.7,0.1-1.3,0.3-1.9c0.2-0.6,0.5-1.1,0.9-1.6c0.4-0.5,0.9-0.8,1.4-1.1c0.6-0.3,1.2-0.4,1.9-0.4c0.7,0,1.4,0.2,2,0.5
			c0.6,0.3,1.1,0.7,1.5,1.2c0.4,0.5,0.7,1.1,0.9,1.8c0.2,0.7,0.2,1.4,0.1,2.1H42.9z M47.8,63.4c0-0.3-0.1-0.6-0.2-1
			c-0.1-0.3-0.3-0.6-0.5-0.8c-0.2-0.2-0.4-0.4-0.7-0.5c-0.3-0.1-0.6-0.2-1-0.2c-0.4,0-0.7,0.1-1,0.2c-0.3,0.1-0.6,0.3-0.8,0.5
			c-0.2,0.2-0.4,0.5-0.5,0.8c-0.1,0.3-0.2,0.6-0.2,1H47.8z"/>
		<path class="st3" d="M60.4,68.9h-2v-1.3h0c-0.3,0.5-0.7,0.9-1.2,1.2c-0.5,0.2-1.1,0.4-1.7,0.4c-0.7,0-1.4-0.1-2-0.4
			c-0.6-0.3-1-0.6-1.4-1.1c-0.4-0.5-0.6-1-0.8-1.6c-0.2-0.6-0.3-1.3-0.3-2c0-0.9,0.1-1.6,0.3-2.2c0.2-0.6,0.5-1.1,0.9-1.5
			c0.4-0.4,0.8-0.7,1.3-0.9c0.5-0.2,1-0.3,1.5-0.3c0.3,0,0.6,0,0.9,0.1c0.3,0.1,0.6,0.1,0.9,0.3c0.3,0.1,0.5,0.3,0.8,0.5
			c0.2,0.2,0.4,0.4,0.6,0.7h0v-4.8h2.1V68.9z M53.1,64.3c0,0.4,0.1,0.8,0.2,1.2c0.1,0.4,0.3,0.7,0.5,1c0.2,0.3,0.5,0.5,0.8,0.7
			c0.3,0.2,0.7,0.3,1.2,0.3c0.5,0,0.9-0.1,1.2-0.3c0.3-0.2,0.6-0.5,0.8-0.8c0.2-0.3,0.4-0.7,0.5-1.1c0.1-0.4,0.2-0.8,0.2-1.2
			c0-1-0.2-1.9-0.7-2.5c-0.5-0.6-1.1-0.9-1.9-0.9c-0.5,0-0.9,0.1-1.2,0.3c-0.3,0.2-0.6,0.5-0.8,0.8c-0.2,0.3-0.4,0.7-0.5,1.1
			C53.1,63.5,53.1,63.9,53.1,64.3z"/>
		<path class="st3" d="M70.6,66.8c0,0.3,0,0.4,0.1,0.5c0.1,0.1,0.2,0.2,0.4,0.2c0.1,0,0.1,0,0.2,0c0.1,0,0.2,0,0.3,0v1.4
			c-0.1,0-0.2,0.1-0.3,0.1c-0.1,0-0.2,0.1-0.4,0.1c-0.1,0-0.2,0-0.4,0.1c-0.1,0-0.2,0-0.3,0c-0.4,0-0.8-0.1-1.1-0.3
			c-0.3-0.2-0.5-0.5-0.5-0.9c-0.4,0.4-0.9,0.7-1.5,0.9c-0.6,0.2-1.2,0.3-1.7,0.3c-0.4,0-0.8-0.1-1.2-0.2c-0.4-0.1-0.7-0.3-1-0.5
			c-0.3-0.2-0.5-0.5-0.7-0.9c-0.2-0.3-0.3-0.8-0.3-1.2c0-0.6,0.1-1.1,0.3-1.4c0.2-0.4,0.5-0.7,0.8-0.9c0.3-0.2,0.7-0.4,1.2-0.4
			c0.4-0.1,0.9-0.2,1.3-0.2c0.4-0.1,0.7-0.1,1.1-0.2c0.3,0,0.6-0.1,0.9-0.2c0.3-0.1,0.5-0.2,0.6-0.3c0.2-0.2,0.2-0.4,0.2-0.7
			c0-0.3-0.1-0.5-0.2-0.7c-0.1-0.2-0.3-0.3-0.5-0.4c-0.2-0.1-0.4-0.2-0.6-0.2c-0.2,0-0.5,0-0.7,0c-0.6,0-1.1,0.1-1.4,0.4
			c-0.4,0.2-0.6,0.6-0.6,1.1h-2.1c0-0.6,0.2-1.1,0.4-1.5c0.3-0.4,0.6-0.7,1-1c0.4-0.2,0.8-0.4,1.3-0.5c0.5-0.1,1-0.1,1.5-0.1
			c0.5,0,0.9,0,1.4,0.1c0.5,0.1,0.9,0.3,1.2,0.5c0.4,0.2,0.7,0.5,0.9,0.9c0.2,0.3,0.3,0.8,0.3,1.3V66.8z M68.5,64.2
			c-0.3,0.2-0.7,0.3-1.2,0.4c-0.5,0-0.9,0.1-1.4,0.2c-0.2,0-0.4,0.1-0.6,0.2c-0.2,0.1-0.4,0.2-0.5,0.3c-0.2,0.1-0.3,0.3-0.4,0.5
			c-0.1,0.2-0.1,0.4-0.1,0.7c0,0.2,0.1,0.4,0.2,0.6c0.1,0.2,0.3,0.3,0.5,0.4c0.2,0.1,0.4,0.2,0.6,0.2c0.2,0,0.4,0.1,0.6,0.1
			c0.2,0,0.5,0,0.8-0.1c0.3-0.1,0.5-0.2,0.8-0.3c0.2-0.1,0.4-0.3,0.6-0.6c0.2-0.2,0.2-0.5,0.2-0.8V64.2z"/>
		<path class="st3" d="M81.7,68.9h-2v-1.3h0c-0.3,0.5-0.7,0.9-1.2,1.2c-0.5,0.2-1.1,0.4-1.7,0.4c-0.7,0-1.4-0.1-2-0.4
			c-0.6-0.3-1-0.6-1.4-1.1c-0.4-0.5-0.6-1-0.8-1.6c-0.2-0.6-0.3-1.3-0.3-2c0-0.9,0.1-1.6,0.3-2.2c0.2-0.6,0.5-1.1,0.9-1.5
			c0.4-0.4,0.8-0.7,1.3-0.9s1-0.3,1.5-0.3c0.3,0,0.6,0,0.9,0.1c0.3,0.1,0.6,0.1,0.9,0.3c0.3,0.1,0.5,0.3,0.8,0.5
			c0.2,0.2,0.4,0.4,0.6,0.7h0v-4.8h2.1V68.9z M74.5,64.3c0,0.4,0.1,0.8,0.2,1.2c0.1,0.4,0.3,0.7,0.5,1c0.2,0.3,0.5,0.5,0.8,0.7
			c0.3,0.2,0.7,0.3,1.2,0.3c0.5,0,0.9-0.1,1.2-0.3c0.3-0.2,0.6-0.5,0.8-0.8c0.2-0.3,0.4-0.7,0.5-1.1c0.1-0.4,0.2-0.8,0.2-1.2
			c0-1-0.2-1.9-0.7-2.5c-0.5-0.6-1.1-0.9-1.9-0.9c-0.5,0-0.9,0.1-1.2,0.3c-0.3,0.2-0.6,0.5-0.8,0.8c-0.2,0.3-0.4,0.7-0.5,1.1
			C74.5,63.5,74.5,63.9,74.5,64.3z"/>
		<path class="st3" d="M85.6,64.7c0,0.4,0.1,0.7,0.2,1.1c0.1,0.3,0.3,0.6,0.5,0.9c0.2,0.3,0.5,0.5,0.8,0.6c0.3,0.2,0.7,0.2,1.1,0.2
			c0.6,0,1.1-0.1,1.5-0.4c0.4-0.3,0.7-0.7,0.8-1.2h2c-0.1,0.5-0.3,1-0.6,1.4c-0.3,0.4-0.6,0.7-1,1c-0.4,0.3-0.8,0.5-1.3,0.6
			c-0.5,0.1-1,0.2-1.5,0.2c-0.7,0-1.4-0.1-2-0.4c-0.6-0.2-1.1-0.6-1.5-1c-0.4-0.4-0.7-1-0.9-1.6c-0.2-0.6-0.3-1.3-0.3-2
			c0-0.7,0.1-1.3,0.3-1.9c0.2-0.6,0.5-1.1,0.9-1.6c0.4-0.5,0.9-0.8,1.4-1.1c0.6-0.3,1.2-0.4,1.9-0.4c0.7,0,1.4,0.2,2,0.5
			c0.6,0.3,1.1,0.7,1.5,1.2c0.4,0.5,0.7,1.1,0.9,1.8c0.2,0.7,0.2,1.4,0.1,2.1H85.6z M90.5,63.4c0-0.3-0.1-0.6-0.2-1
			c-0.1-0.3-0.3-0.6-0.5-0.8c-0.2-0.2-0.4-0.4-0.7-0.5c-0.3-0.1-0.6-0.2-1-0.2c-0.4,0-0.7,0.1-1,0.2c-0.3,0.1-0.6,0.3-0.8,0.5
			c-0.2,0.2-0.4,0.5-0.5,0.8c-0.1,0.3-0.2,0.6-0.2,1H90.5z"/>
		<path class="st3" d="M99.6,55.9h6.4c1.2,0,2.1,0.3,2.8,0.8c0.7,0.5,1.1,1.3,1.1,2.4c0,0.7-0.2,1.2-0.5,1.7
			c-0.3,0.5-0.8,0.8-1.4,1.1v0c0.8,0.2,1.4,0.6,1.8,1.1c0.4,0.6,0.6,1.3,0.6,2.2c0,0.5-0.1,1-0.3,1.4c-0.2,0.4-0.5,0.8-0.9,1.2
			c-0.4,0.3-0.9,0.6-1.5,0.8c-0.6,0.2-1.3,0.3-2.2,0.3h-6V55.9z M101.9,61.3h3.7c0.5,0,1-0.2,1.4-0.5c0.4-0.3,0.6-0.8,0.6-1.3
			c0-0.7-0.2-1.1-0.5-1.4c-0.3-0.3-0.8-0.4-1.4-0.4h-3.7V61.3z M101.9,67.1h4c0.7,0,1.2-0.2,1.6-0.5c0.4-0.4,0.6-0.9,0.6-1.5
			c0-0.6-0.2-1.1-0.6-1.5c-0.4-0.3-0.9-0.5-1.6-0.5h-4V67.1z"/>
		<path class="st3" d="M112.2,59.5h2v1.8h0c0.1-0.3,0.2-0.5,0.4-0.8c0.2-0.2,0.4-0.5,0.6-0.7c0.2-0.2,0.5-0.4,0.8-0.5
			c0.3-0.1,0.6-0.2,0.9-0.2c0.2,0,0.4,0,0.5,0c0.1,0,0.2,0,0.3,0v2c-0.1,0-0.3,0-0.4-0.1c-0.2,0-0.3,0-0.4,0c-0.4,0-0.7,0.1-1,0.2
			c-0.3,0.1-0.6,0.3-0.8,0.6c-0.2,0.3-0.4,0.6-0.5,1c-0.1,0.4-0.2,0.9-0.2,1.4v4.5h-2.1V59.5z"/>
		<path class="st3" d="M126.6,66.8c0,0.3,0,0.4,0.1,0.5c0.1,0.1,0.2,0.2,0.4,0.2c0.1,0,0.1,0,0.2,0c0.1,0,0.2,0,0.3,0v1.4
			c-0.1,0-0.2,0.1-0.3,0.1c-0.1,0-0.2,0.1-0.4,0.1c-0.1,0-0.2,0-0.4,0.1c-0.1,0-0.2,0-0.3,0c-0.4,0-0.8-0.1-1.1-0.3
			c-0.3-0.2-0.5-0.5-0.6-0.9c-0.4,0.4-0.9,0.7-1.5,0.9c-0.6,0.2-1.2,0.3-1.7,0.3c-0.4,0-0.8-0.1-1.2-0.2c-0.4-0.1-0.7-0.3-1-0.5
			c-0.3-0.2-0.5-0.5-0.7-0.9c-0.2-0.3-0.3-0.8-0.3-1.2c0-0.6,0.1-1.1,0.3-1.4c0.2-0.4,0.5-0.7,0.8-0.9c0.3-0.2,0.7-0.4,1.2-0.4
			c0.4-0.1,0.9-0.2,1.3-0.2c0.4-0.1,0.7-0.1,1.1-0.2c0.3,0,0.6-0.1,0.9-0.2c0.3-0.1,0.5-0.2,0.6-0.3c0.2-0.2,0.2-0.4,0.2-0.7
			c0-0.3-0.1-0.5-0.2-0.7c-0.1-0.2-0.3-0.3-0.5-0.4c-0.2-0.1-0.4-0.2-0.6-0.2c-0.2,0-0.5,0-0.7,0c-0.6,0-1.1,0.1-1.4,0.4
			c-0.4,0.2-0.6,0.6-0.6,1.1h-2.1c0-0.6,0.2-1.1,0.4-1.5c0.3-0.4,0.6-0.7,1-1c0.4-0.2,0.8-0.4,1.3-0.5c0.5-0.1,1-0.1,1.5-0.1
			c0.5,0,0.9,0,1.4,0.1c0.5,0.1,0.9,0.3,1.2,0.5c0.4,0.2,0.7,0.5,0.9,0.9c0.2,0.3,0.3,0.8,0.3,1.3V66.8z M124.5,64.2
			c-0.3,0.2-0.7,0.3-1.2,0.4c-0.5,0-0.9,0.1-1.4,0.2c-0.2,0-0.4,0.1-0.6,0.2c-0.2,0.1-0.4,0.2-0.5,0.3c-0.2,0.1-0.3,0.3-0.4,0.5
			c-0.1,0.2-0.1,0.4-0.1,0.7c0,0.2,0.1,0.4,0.2,0.6c0.1,0.2,0.3,0.3,0.5,0.4c0.2,0.1,0.4,0.2,0.6,0.2c0.2,0,0.4,0.1,0.6,0.1
			c0.2,0,0.5,0,0.8-0.1c0.3-0.1,0.5-0.2,0.8-0.3c0.2-0.1,0.4-0.3,0.6-0.6c0.2-0.2,0.2-0.5,0.2-0.8V64.2z"/>
		<path class="st3" d="M130.4,65.9c0.1,0.6,0.3,1,0.7,1.3c0.4,0.2,0.9,0.4,1.4,0.4c0.2,0,0.4,0,0.7,0c0.2,0,0.5-0.1,0.7-0.2
			c0.2-0.1,0.4-0.2,0.5-0.4c0.1-0.2,0.2-0.4,0.2-0.6c0-0.3-0.1-0.5-0.3-0.7c-0.2-0.2-0.4-0.3-0.7-0.4c-0.3-0.1-0.6-0.2-1-0.3
			c-0.4-0.1-0.7-0.2-1.1-0.2c-0.4-0.1-0.8-0.2-1.1-0.3c-0.4-0.1-0.7-0.3-1-0.5c-0.3-0.2-0.5-0.5-0.7-0.8c-0.2-0.3-0.3-0.7-0.3-1.2
			c0-0.5,0.1-0.9,0.4-1.3s0.6-0.6,1-0.8c0.4-0.2,0.8-0.4,1.3-0.4c0.5-0.1,0.9-0.1,1.3-0.1c0.5,0,1,0.1,1.4,0.2
			c0.4,0.1,0.8,0.3,1.2,0.5c0.4,0.2,0.7,0.5,0.9,0.9c0.2,0.4,0.4,0.8,0.4,1.3h-2.2c-0.1-0.5-0.3-0.8-0.7-1c-0.4-0.2-0.8-0.3-1.2-0.3
			c-0.1,0-0.3,0-0.5,0c-0.2,0-0.4,0.1-0.6,0.1c-0.2,0.1-0.3,0.2-0.4,0.3c-0.1,0.1-0.2,0.3-0.2,0.5c0,0.3,0.1,0.5,0.3,0.6
			c0.2,0.2,0.4,0.3,0.7,0.4c0.3,0.1,0.6,0.2,1,0.3c0.4,0.1,0.7,0.2,1.1,0.2c0.4,0.1,0.8,0.2,1.1,0.3c0.4,0.1,0.7,0.3,1,0.5
			c0.3,0.2,0.5,0.5,0.7,0.8c0.2,0.3,0.3,0.7,0.3,1.2c0,0.6-0.1,1-0.4,1.4c-0.3,0.4-0.6,0.7-1,1c-0.4,0.2-0.9,0.4-1.4,0.5
			c-0.5,0.1-1,0.2-1.5,0.2c-0.6,0-1.2-0.1-1.7-0.2c-0.5-0.1-0.9-0.3-1.3-0.6c-0.4-0.3-0.7-0.6-0.9-1c-0.2-0.4-0.3-0.9-0.3-1.5H130.4
			z"/>
		<path class="st3" d="M138.4,55.9h2.1v2h-2.1V55.9z M138.4,59.5h2.1v9.5h-2.1V59.5z"/>
		<path class="st3" d="M142.8,55.9h2.1v13.1h-2.1V55.9z"/>
		<path class="st3" d="M148.8,64.7c0,0.4,0.1,0.7,0.2,1.1c0.1,0.3,0.3,0.6,0.5,0.9c0.2,0.3,0.5,0.5,0.8,0.6c0.3,0.2,0.7,0.2,1.1,0.2
			c0.6,0,1.1-0.1,1.5-0.4c0.4-0.3,0.7-0.7,0.8-1.2h2c-0.1,0.5-0.3,1-0.6,1.4c-0.3,0.4-0.6,0.7-1,1c-0.4,0.3-0.8,0.5-1.3,0.6
			c-0.5,0.1-1,0.2-1.5,0.2c-0.7,0-1.4-0.1-2-0.4c-0.6-0.2-1.1-0.6-1.5-1c-0.4-0.4-0.7-1-0.9-1.6c-0.2-0.6-0.3-1.3-0.3-2
			c0-0.7,0.1-1.3,0.3-1.9c0.2-0.6,0.5-1.1,0.9-1.6c0.4-0.5,0.9-0.8,1.4-1.1c0.6-0.3,1.2-0.4,1.9-0.4c0.7,0,1.4,0.2,2,0.5
			c0.6,0.3,1.1,0.7,1.5,1.2c0.4,0.5,0.7,1.1,0.9,1.8c0.2,0.7,0.2,1.4,0.1,2.1H148.8z M153.7,63.4c0-0.3-0.1-0.6-0.2-1
			c-0.1-0.3-0.3-0.6-0.5-0.8c-0.2-0.2-0.4-0.4-0.7-0.5c-0.3-0.1-0.6-0.2-1-0.2c-0.4,0-0.7,0.1-1,0.2c-0.3,0.1-0.6,0.3-0.8,0.5
			c-0.2,0.2-0.4,0.5-0.5,0.8c-0.1,0.3-0.2,0.6-0.2,1H153.7z"/>
		<path class="st3" d="M157.4,55.9h2.1v2h-2.1V55.9z M157.4,59.5h2.1v9.5h-2.1V59.5z"/>
		<path class="st3" d="M161.7,59.5h2v1.8h0c0.1-0.3,0.2-0.5,0.4-0.8c0.2-0.2,0.4-0.5,0.6-0.7c0.3-0.2,0.5-0.4,0.8-0.5
			c0.3-0.1,0.6-0.2,0.9-0.2c0.2,0,0.4,0,0.5,0c0.1,0,0.2,0,0.3,0v2c-0.1,0-0.3,0-0.4-0.1c-0.2,0-0.3,0-0.5,0c-0.4,0-0.7,0.1-1,0.2
			c-0.3,0.1-0.6,0.3-0.8,0.6c-0.2,0.3-0.4,0.6-0.5,1c-0.1,0.4-0.2,0.9-0.2,1.4v4.5h-2.1V59.5z"/>
		<path class="st3" d="M176.1,66.8c0,0.3,0,0.4,0.1,0.5c0.1,0.1,0.2,0.2,0.4,0.2c0.1,0,0.1,0,0.2,0c0.1,0,0.2,0,0.3,0v1.4
			c-0.1,0-0.2,0.1-0.3,0.1c-0.1,0-0.2,0.1-0.4,0.1c-0.1,0-0.2,0-0.4,0.1c-0.1,0-0.2,0-0.3,0c-0.4,0-0.8-0.1-1.1-0.3
			c-0.3-0.2-0.5-0.5-0.5-0.9c-0.4,0.4-0.9,0.7-1.5,0.9c-0.6,0.2-1.2,0.3-1.7,0.3c-0.4,0-0.8-0.1-1.2-0.2c-0.4-0.1-0.7-0.3-1-0.5
			c-0.3-0.2-0.5-0.5-0.7-0.9c-0.2-0.3-0.3-0.8-0.3-1.2c0-0.6,0.1-1.1,0.3-1.4c0.2-0.4,0.5-0.7,0.8-0.9c0.3-0.2,0.7-0.4,1.2-0.4
			c0.4-0.1,0.9-0.2,1.3-0.2c0.4-0.1,0.7-0.1,1.1-0.2c0.3,0,0.6-0.1,0.9-0.2c0.3-0.1,0.5-0.2,0.6-0.3c0.2-0.2,0.2-0.4,0.2-0.7
			c0-0.3-0.1-0.5-0.2-0.7c-0.1-0.2-0.3-0.3-0.5-0.4c-0.2-0.1-0.4-0.2-0.6-0.2c-0.2,0-0.5,0-0.7,0c-0.6,0-1.1,0.1-1.4,0.4
			c-0.4,0.2-0.6,0.6-0.6,1.1H168c0-0.6,0.2-1.1,0.4-1.5c0.3-0.4,0.6-0.7,1-1c0.4-0.2,0.8-0.4,1.3-0.5c0.5-0.1,1-0.1,1.5-0.1
			c0.5,0,0.9,0,1.4,0.1c0.5,0.1,0.9,0.3,1.2,0.5c0.4,0.2,0.7,0.5,0.9,0.9c0.2,0.3,0.3,0.8,0.3,1.3V66.8z M174,64.2
			c-0.3,0.2-0.7,0.3-1.2,0.4c-0.5,0-0.9,0.1-1.4,0.2c-0.2,0-0.4,0.1-0.6,0.2c-0.2,0.1-0.4,0.2-0.5,0.3c-0.2,0.1-0.3,0.3-0.4,0.5
			c-0.1,0.2-0.1,0.4-0.1,0.7c0,0.2,0.1,0.4,0.2,0.6c0.1,0.2,0.3,0.3,0.5,0.4c0.2,0.1,0.4,0.2,0.6,0.2c0.2,0,0.4,0.1,0.6,0.1
			c0.2,0,0.5,0,0.8-0.1c0.3-0.1,0.5-0.2,0.8-0.3c0.2-0.1,0.4-0.3,0.6-0.6c0.2-0.2,0.2-0.5,0.2-0.8V64.2z"/>
		<path class="st3" d="M13.8,88.7h-2.2v-1.4h0c-0.3,0.6-0.8,1-1.3,1.3C9.6,88.9,9,89,8.4,89c-0.8,0-1.5-0.1-2.1-0.4
			c-0.6-0.3-1.1-0.7-1.5-1.2c-0.4-0.5-0.7-1.1-0.9-1.7c-0.2-0.7-0.3-1.4-0.3-2.2c0-0.9,0.1-1.7,0.4-2.4c0.3-0.7,0.6-1.2,1-1.7
			c0.4-0.4,0.9-0.8,1.4-1c0.5-0.2,1.1-0.3,1.6-0.3c0.3,0,0.6,0,1,0.1c0.3,0.1,0.7,0.2,1,0.3c0.3,0.1,0.6,0.3,0.8,0.5
			c0.3,0.2,0.5,0.4,0.6,0.7h0v-5.3h2.3V88.7z M5.8,83.7c0,0.4,0.1,0.9,0.2,1.3c0.1,0.4,0.3,0.8,0.5,1.1c0.2,0.3,0.5,0.6,0.9,0.8
			c0.4,0.2,0.8,0.3,1.3,0.3c0.5,0,0.9-0.1,1.3-0.3c0.4-0.2,0.7-0.5,0.9-0.8c0.2-0.3,0.4-0.7,0.5-1.2c0.1-0.4,0.2-0.9,0.2-1.3
			c0-1.1-0.3-2-0.8-2.7c-0.5-0.6-1.2-1-2.1-1c-0.5,0-1,0.1-1.3,0.3c-0.4,0.2-0.7,0.5-0.9,0.9c-0.2,0.4-0.4,0.8-0.5,1.2
			C5.9,82.7,5.8,83.2,5.8,83.7z"/>
		<path class="st3" d="M18,84.1c0,0.4,0.1,0.8,0.2,1.2c0.1,0.4,0.3,0.7,0.5,1c0.2,0.3,0.5,0.5,0.9,0.7c0.3,0.2,0.8,0.2,1.2,0.2
			c0.7,0,1.2-0.1,1.6-0.4c0.4-0.3,0.7-0.7,0.9-1.3h2.2c-0.1,0.6-0.3,1.1-0.6,1.5c-0.3,0.4-0.6,0.8-1.1,1.1c-0.4,0.3-0.9,0.5-1.4,0.7
			c-0.5,0.2-1,0.2-1.6,0.2c-0.8,0-1.5-0.1-2.2-0.4C18,88.3,17.5,88,17,87.5c-0.4-0.5-0.8-1.1-1-1.7c-0.2-0.7-0.3-1.4-0.3-2.2
			c0-0.7,0.1-1.4,0.3-2.1c0.2-0.7,0.6-1.2,1-1.7c0.4-0.5,1-0.9,1.6-1.2c0.6-0.3,1.3-0.4,2.1-0.4c0.8,0,1.5,0.2,2.2,0.5
			c0.6,0.3,1.2,0.8,1.6,1.3c0.4,0.6,0.7,1.2,0.9,1.9c0.2,0.7,0.2,1.5,0.2,2.2H18z M23.3,82.6c0-0.4-0.1-0.7-0.2-1
			c-0.1-0.3-0.3-0.6-0.5-0.9c-0.2-0.2-0.5-0.4-0.8-0.6c-0.3-0.2-0.7-0.2-1-0.2c-0.4,0-0.8,0.1-1.1,0.2c-0.3,0.1-0.6,0.3-0.8,0.6
			c-0.2,0.2-0.4,0.5-0.6,0.9c-0.1,0.3-0.2,0.7-0.2,1.1H23.3z"/>
		<path class="st3" d="M33.2,74.5h6.9c1.3,0,2.3,0.3,3.1,0.9c0.8,0.6,1.2,1.5,1.2,2.7c0,0.7-0.2,1.3-0.5,1.8
			c-0.4,0.5-0.9,0.9-1.5,1.2v0c0.9,0.2,1.5,0.6,2,1.2c0.5,0.6,0.7,1.5,0.7,2.4c0,0.6-0.1,1.1-0.3,1.6c-0.2,0.5-0.5,0.9-0.9,1.3
			c-0.4,0.4-1,0.6-1.6,0.8c-0.7,0.2-1.5,0.3-2.4,0.3h-6.5V74.5z M35.7,80.4h4.1c0.6,0,1.1-0.2,1.5-0.5c0.4-0.3,0.6-0.8,0.6-1.5
			c0-0.7-0.2-1.2-0.5-1.5c-0.4-0.3-0.9-0.4-1.6-0.4h-4.1V80.4z M35.7,86.7h4.4c0.8,0,1.3-0.2,1.8-0.6c0.4-0.4,0.6-0.9,0.6-1.7
			c0-0.7-0.2-1.2-0.6-1.6c-0.4-0.4-1-0.6-1.8-0.6h-4.4V86.7z"/>
		<path class="st3" d="M47,74.5h2.3v2.2H47V74.5z M47,78.4h2.3v10.3H47V78.4z"/>
		<path class="st3" d="M56.5,89c-0.8,0-1.6-0.1-2.2-0.4c-0.6-0.3-1.2-0.7-1.6-1.1c-0.4-0.5-0.8-1.1-1-1.7c-0.2-0.7-0.3-1.4-0.3-2.2
			c0-0.8,0.1-1.5,0.3-2.2c0.2-0.7,0.6-1.2,1-1.7c0.4-0.5,1-0.9,1.6-1.1c0.6-0.3,1.4-0.4,2.2-0.4c0.8,0,1.6,0.1,2.2,0.4
			c0.6,0.3,1.2,0.6,1.6,1.1c0.4,0.5,0.8,1.1,1,1.7c0.2,0.7,0.4,1.4,0.4,2.2c0,0.8-0.1,1.5-0.4,2.2c-0.2,0.7-0.6,1.2-1,1.7
			c-0.4,0.5-1,0.9-1.6,1.1C58,88.9,57.3,89,56.5,89z M56.5,87.2c0.5,0,0.9-0.1,1.3-0.3c0.4-0.2,0.7-0.5,0.9-0.8
			c0.2-0.3,0.4-0.7,0.5-1.2c0.1-0.4,0.2-0.9,0.2-1.3c0-0.4-0.1-0.9-0.2-1.3c-0.1-0.4-0.3-0.8-0.5-1.2c-0.2-0.3-0.5-0.6-0.9-0.8
			c-0.4-0.2-0.8-0.3-1.3-0.3c-0.5,0-0.9,0.1-1.3,0.3c-0.4,0.2-0.7,0.5-0.9,0.8c-0.2,0.3-0.4,0.7-0.5,1.2c-0.1,0.4-0.2,0.9-0.2,1.3
			c0,0.5,0.1,0.9,0.2,1.3c0.1,0.4,0.3,0.8,0.5,1.2c0.2,0.3,0.5,0.6,0.9,0.8C55.5,87.1,56,87.2,56.5,87.2z"/>
		<path class="st3" d="M63.6,74.5h2.3v14.3h-2.3V74.5z"/>
		<path class="st3" d="M73.1,89c-0.8,0-1.6-0.1-2.2-0.4c-0.6-0.3-1.2-0.7-1.6-1.1c-0.4-0.5-0.8-1.1-1-1.7c-0.2-0.7-0.4-1.4-0.4-2.2
			c0-0.8,0.1-1.5,0.4-2.2c0.2-0.7,0.6-1.2,1-1.7c0.4-0.5,1-0.9,1.6-1.1c0.6-0.3,1.4-0.4,2.2-0.4c0.8,0,1.6,0.1,2.2,0.4
			c0.6,0.3,1.2,0.6,1.6,1.1c0.4,0.5,0.8,1.1,1,1.7c0.2,0.7,0.3,1.4,0.3,2.2c0,0.8-0.1,1.5-0.3,2.2c-0.2,0.7-0.6,1.2-1,1.7
			c-0.4,0.5-1,0.9-1.6,1.1C74.7,88.9,74,89,73.1,89z M73.1,87.2c0.5,0,0.9-0.1,1.3-0.3c0.4-0.2,0.7-0.5,0.9-0.8
			c0.2-0.3,0.4-0.7,0.5-1.2c0.1-0.4,0.2-0.9,0.2-1.3c0-0.4-0.1-0.9-0.2-1.3c-0.1-0.4-0.3-0.8-0.5-1.2c-0.2-0.3-0.5-0.6-0.9-0.8
			c-0.4-0.2-0.8-0.3-1.3-0.3c-0.5,0-0.9,0.1-1.3,0.3c-0.4,0.2-0.7,0.5-0.9,0.8c-0.2,0.3-0.4,0.7-0.5,1.2c-0.1,0.4-0.2,0.9-0.2,1.3
			c0,0.5,0.1,0.9,0.2,1.3c0.1,0.4,0.3,0.8,0.5,1.2c0.2,0.3,0.5,0.6,0.9,0.8C72.2,87.1,72.6,87.2,73.1,87.2z"/>
		<path class="st3" d="M89.8,88.2c0,1.6-0.4,2.7-1.3,3.5c-0.9,0.8-2.1,1.1-3.8,1.1c-0.5,0-1-0.1-1.6-0.2c-0.5-0.1-1-0.3-1.4-0.5
			c-0.4-0.3-0.8-0.6-1.1-1c-0.3-0.4-0.5-0.9-0.5-1.5h2.3c0.1,0.3,0.2,0.6,0.3,0.8c0.2,0.2,0.4,0.4,0.6,0.5c0.2,0.1,0.5,0.2,0.7,0.2
			c0.3,0,0.5,0.1,0.8,0.1c0.9,0,1.6-0.2,2-0.7c0.4-0.5,0.6-1.1,0.6-2v-1.6h0c-0.3,0.6-0.8,1-1.3,1.3c-0.6,0.3-1.1,0.5-1.8,0.5
			c-0.8,0-1.5-0.1-2.1-0.4c-0.6-0.3-1.1-0.7-1.4-1.2c-0.4-0.5-0.7-1.1-0.8-1.7s-0.3-1.4-0.3-2.1c0-0.7,0.1-1.3,0.3-2
			c0.2-0.6,0.5-1.2,0.9-1.6c0.4-0.5,0.9-0.9,1.5-1.1c0.6-0.3,1.2-0.4,2-0.4c0.7,0,1.3,0.1,1.8,0.4c0.5,0.3,1,0.7,1.3,1.3h0v-1.4h2.3
			V88.2z M84.7,86.9c0.5,0,0.9-0.1,1.3-0.3c0.4-0.2,0.6-0.5,0.9-0.8c0.2-0.3,0.4-0.7,0.5-1.2c0.1-0.4,0.1-0.9,0.1-1.3
			c0-0.4-0.1-0.9-0.2-1.3c-0.1-0.4-0.3-0.8-0.5-1.1c-0.2-0.3-0.5-0.6-0.9-0.8c-0.4-0.2-0.8-0.3-1.3-0.3c-0.5,0-0.9,0.1-1.3,0.3
			c-0.3,0.2-0.6,0.5-0.8,0.8c-0.2,0.3-0.4,0.7-0.5,1.2c-0.1,0.4-0.1,0.9-0.1,1.3s0.1,0.8,0.2,1.2c0.1,0.4,0.3,0.8,0.5,1.1
			c0.2,0.3,0.5,0.6,0.8,0.8C83.8,86.8,84.3,86.9,84.7,86.9z"/>
		<path class="st3" d="M92.1,74.5h2.3v2.2h-2.3V74.5z M92.1,78.4h2.3v10.3h-2.3V78.4z"/>
		<path class="st3" d="M105.5,86.4c0,0.3,0,0.5,0.1,0.6c0.1,0.1,0.2,0.2,0.4,0.2c0.1,0,0.1,0,0.2,0c0.1,0,0.2,0,0.3,0v1.6
			c-0.1,0-0.2,0.1-0.3,0.1c-0.1,0-0.3,0.1-0.4,0.1c-0.1,0-0.3,0-0.4,0.1c-0.1,0-0.2,0-0.3,0c-0.5,0-0.9-0.1-1.2-0.3
			c-0.3-0.2-0.5-0.5-0.6-1c-0.5,0.4-1,0.8-1.7,1c-0.7,0.2-1.3,0.3-1.9,0.3c-0.5,0-0.9-0.1-1.3-0.2c-0.4-0.1-0.8-0.3-1.1-0.6
			c-0.3-0.2-0.6-0.6-0.8-0.9c-0.2-0.4-0.3-0.8-0.3-1.3c0-0.6,0.1-1.2,0.3-1.6c0.2-0.4,0.5-0.7,0.9-0.9c0.4-0.2,0.8-0.4,1.3-0.5
			c0.5-0.1,0.9-0.2,1.4-0.2c0.4-0.1,0.8-0.1,1.2-0.2c0.4,0,0.7-0.1,1-0.2c0.3-0.1,0.5-0.2,0.7-0.4c0.2-0.2,0.2-0.4,0.2-0.7
			c0-0.3-0.1-0.5-0.2-0.7c-0.1-0.2-0.3-0.3-0.5-0.4c-0.2-0.1-0.4-0.2-0.7-0.2c-0.3,0-0.5-0.1-0.7-0.1c-0.6,0-1.2,0.1-1.6,0.4
			C99.3,80.6,99,81,99,81.5h-2.3c0-0.7,0.2-1.2,0.5-1.7c0.3-0.4,0.6-0.8,1.1-1.1c0.4-0.3,0.9-0.5,1.5-0.6c0.5-0.1,1.1-0.2,1.7-0.2
			c0.5,0,1,0.1,1.5,0.2c0.5,0.1,0.9,0.3,1.3,0.5c0.4,0.2,0.7,0.5,0.9,0.9c0.2,0.4,0.4,0.8,0.4,1.4V86.4z M103.3,83.5
			c-0.3,0.2-0.8,0.4-1.3,0.4c-0.5,0-1,0.1-1.5,0.2c-0.2,0-0.5,0.1-0.7,0.2c-0.2,0.1-0.4,0.2-0.6,0.3c-0.2,0.1-0.3,0.3-0.4,0.5
			c-0.1,0.2-0.2,0.5-0.2,0.7c0,0.3,0.1,0.5,0.2,0.6c0.1,0.2,0.3,0.3,0.5,0.4c0.2,0.1,0.4,0.2,0.7,0.2c0.2,0,0.5,0.1,0.7,0.1
			c0.3,0,0.5,0,0.8-0.1c0.3-0.1,0.6-0.2,0.8-0.3c0.3-0.2,0.5-0.4,0.6-0.6c0.2-0.2,0.3-0.5,0.3-0.9V83.5z"/>
		<path class="st3" d="M123.5,79c-0.1-0.4-0.3-0.8-0.4-1.1c-0.2-0.3-0.4-0.6-0.7-0.9c-0.3-0.3-0.6-0.5-1-0.6
			c-0.4-0.1-0.8-0.2-1.4-0.2c-0.8,0-1.4,0.2-2,0.5c-0.6,0.3-1,0.7-1.3,1.2c-0.3,0.5-0.6,1.1-0.8,1.7c-0.2,0.7-0.2,1.3-0.2,2
			c0,0.7,0.1,1.3,0.2,2c0.2,0.7,0.4,1.2,0.8,1.7c0.3,0.5,0.8,0.9,1.3,1.2c0.6,0.3,1.2,0.5,2,0.5c0.6,0,1.1-0.1,1.5-0.3
			c0.4-0.2,0.8-0.5,1.1-0.8c0.3-0.3,0.5-0.7,0.7-1.2c0.2-0.5,0.3-0.9,0.3-1.5h2.4c-0.1,0.9-0.2,1.6-0.5,2.3
			c-0.3,0.7-0.7,1.3-1.3,1.8c-0.5,0.5-1.2,0.9-1.9,1.2c-0.7,0.3-1.5,0.4-2.4,0.4c-1.1,0-2-0.2-2.9-0.6c-0.8-0.4-1.6-0.9-2.1-1.6
			c-0.6-0.7-1-1.5-1.3-2.4c-0.3-0.9-0.5-1.9-0.5-2.9c0-1,0.2-2,0.5-2.9c0.3-0.9,0.8-1.7,1.3-2.4c0.6-0.7,1.3-1.2,2.1-1.6
			c0.8-0.4,1.8-0.6,2.9-0.6c0.8,0,1.5,0.1,2.3,0.3c0.7,0.2,1.3,0.5,1.9,1c0.5,0.4,1,0.9,1.3,1.5c0.3,0.6,0.5,1.3,0.6,2.1H123.5z"/>
		<path class="st3" d="M129.7,84.1c0,0.4,0.1,0.8,0.2,1.2c0.1,0.4,0.3,0.7,0.5,1c0.2,0.3,0.5,0.5,0.9,0.7c0.3,0.2,0.8,0.2,1.2,0.2
			c0.7,0,1.2-0.1,1.6-0.4c0.4-0.3,0.7-0.7,0.9-1.3h2.2c-0.1,0.6-0.3,1.1-0.6,1.5c-0.3,0.4-0.6,0.8-1.1,1.1c-0.4,0.3-0.9,0.5-1.4,0.7
			c-0.5,0.2-1,0.2-1.6,0.2c-0.8,0-1.5-0.1-2.2-0.4c-0.6-0.3-1.2-0.6-1.6-1.1c-0.4-0.5-0.8-1.1-1-1.7c-0.2-0.7-0.3-1.4-0.3-2.2
			c0-0.7,0.1-1.4,0.3-2.1c0.2-0.7,0.6-1.2,1-1.7c0.4-0.5,1-0.9,1.6-1.2c0.6-0.3,1.3-0.4,2.1-0.4c0.8,0,1.5,0.2,2.2,0.5
			c0.6,0.3,1.2,0.8,1.6,1.3c0.4,0.6,0.7,1.2,0.9,1.9c0.2,0.7,0.2,1.5,0.1,2.2H129.7z M135,82.6c0-0.4-0.1-0.7-0.2-1
			c-0.1-0.3-0.3-0.6-0.5-0.9c-0.2-0.2-0.5-0.4-0.8-0.6c-0.3-0.2-0.7-0.2-1-0.2c-0.4,0-0.8,0.1-1.1,0.2c-0.3,0.1-0.6,0.3-0.8,0.6
			c-0.2,0.2-0.4,0.5-0.6,0.9c-0.1,0.3-0.2,0.7-0.2,1.1H135z"/>
		<path class="st3" d="M139.1,74.5h2.3v14.3h-2.3V74.5z"/>
		<path class="st3" d="M152.9,88.7h-2.2v-1.4h0c-0.3,0.5-0.7,0.9-1.2,1.2c-0.6,0.3-1.1,0.5-1.7,0.5c-1.4,0-2.3-0.3-2.9-1
			c-0.6-0.7-0.9-1.7-0.9-3v-6.5h2.3v6.3c0,0.9,0.2,1.5,0.5,1.9c0.3,0.4,0.8,0.6,1.5,0.6c0.5,0,0.9-0.1,1.2-0.2
			c0.3-0.1,0.6-0.3,0.8-0.6c0.2-0.2,0.3-0.5,0.4-0.9c0.1-0.3,0.1-0.7,0.1-1.1v-6h2.3V88.7z"/>
		<path class="st3" d="M155.4,74.5h2.3v14.3h-2.3V74.5z"/>
		<path class="st3" d="M168.8,86.4c0,0.3,0,0.5,0.1,0.6c0.1,0.1,0.2,0.2,0.4,0.2c0.1,0,0.1,0,0.2,0c0.1,0,0.2,0,0.3,0v1.6
			c-0.1,0-0.2,0.1-0.3,0.1c-0.1,0-0.3,0.1-0.4,0.1c-0.1,0-0.3,0-0.4,0.1c-0.1,0-0.2,0-0.3,0c-0.5,0-0.9-0.1-1.2-0.3
			c-0.3-0.2-0.5-0.5-0.6-1c-0.5,0.4-1,0.8-1.7,1c-0.7,0.2-1.3,0.3-1.9,0.3c-0.5,0-0.9-0.1-1.3-0.2c-0.4-0.1-0.8-0.3-1.1-0.6
			c-0.3-0.2-0.6-0.6-0.8-0.9c-0.2-0.4-0.3-0.8-0.3-1.3c0-0.6,0.1-1.2,0.3-1.6c0.2-0.4,0.5-0.7,0.9-0.9c0.4-0.2,0.8-0.4,1.3-0.5
			c0.5-0.1,0.9-0.2,1.4-0.2c0.4-0.1,0.8-0.1,1.2-0.2c0.4,0,0.7-0.1,1-0.2c0.3-0.1,0.5-0.2,0.7-0.4c0.2-0.2,0.2-0.4,0.2-0.7
			c0-0.3-0.1-0.5-0.2-0.7c-0.1-0.2-0.3-0.3-0.5-0.4c-0.2-0.1-0.4-0.2-0.7-0.2c-0.3,0-0.5-0.1-0.7-0.1c-0.6,0-1.2,0.1-1.6,0.4
			c-0.4,0.3-0.6,0.7-0.7,1.2H160c0-0.7,0.2-1.2,0.5-1.7c0.3-0.4,0.6-0.8,1.1-1.1c0.4-0.3,0.9-0.5,1.5-0.6c0.5-0.1,1.1-0.2,1.7-0.2
			c0.5,0,1,0.1,1.5,0.2c0.5,0.1,0.9,0.3,1.3,0.5c0.4,0.2,0.7,0.5,0.9,0.9c0.2,0.4,0.4,0.8,0.4,1.4V86.4z M166.5,83.5
			c-0.3,0.2-0.8,0.4-1.3,0.4c-0.5,0-1,0.1-1.5,0.2c-0.2,0-0.5,0.1-0.7,0.2c-0.2,0.1-0.4,0.2-0.6,0.3c-0.2,0.1-0.3,0.3-0.4,0.5
			c-0.1,0.2-0.1,0.5-0.1,0.7c0,0.3,0.1,0.5,0.2,0.6c0.1,0.2,0.3,0.3,0.5,0.4c0.2,0.1,0.4,0.2,0.7,0.2c0.2,0,0.5,0.1,0.7,0.1
			c0.3,0,0.5,0,0.8-0.1c0.3-0.1,0.6-0.2,0.8-0.3c0.3-0.2,0.5-0.4,0.6-0.6c0.2-0.2,0.3-0.5,0.3-0.9V83.5z"/>
		<path class="st3" d="M171.2,78.4h2.1v2h0c0.1-0.3,0.2-0.6,0.4-0.8c0.2-0.3,0.4-0.5,0.7-0.7c0.3-0.2,0.6-0.4,0.9-0.5
			c0.3-0.1,0.7-0.2,1-0.2c0.3,0,0.4,0,0.5,0c0.1,0,0.2,0,0.3,0v2.2c-0.2,0-0.3,0-0.5-0.1c-0.2,0-0.3,0-0.5,0c-0.4,0-0.7,0.1-1.1,0.2
			c-0.3,0.2-0.6,0.4-0.9,0.7c-0.3,0.3-0.5,0.7-0.6,1.1c-0.1,0.4-0.2,0.9-0.2,1.5v4.9h-2.3V78.4z"/>
	</g>
</g>
</svg>
